<svg xmlns="http://www.w3.org/2000/svg" width="231" height="204" viewBox="0 0 231 204" fill="none">
  <path d="M230.379 111.012C230.089 108.582 229.539 106.232 228.769 103.982C223.899 89.732 210.179 79.672 196.469 79.322C195.029 79.282 194.339 78.572 194.879 76.802C195.429 74.972 196.149 73.062 196.139 71.192C196.119 65.922 195.799 60.642 195.539 55.372C195.249 49.652 192.519 45.402 188.539 42.052C182.839 37.252 176.589 33.762 169.319 32.942C164.099 32.352 158.859 31.162 153.619 32.422C150.579 33.152 147.639 34.342 144.649 35.312C143.849 35.572 142.889 36.072 142.639 34.622C141.259 26.672 138.709 20.412 133.399 14.662C126.099 6.75203 116.359 0.96203 106.029 0.16203C95.6689 -0.63797 86.509 2.71203 77.639 8.64203C74.829 10.522 72.129 12.642 69.879 15.292C67.959 17.552 66.3991 20.162 64.9891 22.852C61.7991 28.902 59.309 35.402 57.579 42.142C57.039 44.232 56.9189 47.272 55.0089 48.472C52.9389 49.772 49.619 48.222 47.299 48.812C41.709 50.222 36.479 52.762 31.589 56.082C30.279 56.972 29.0389 58.092 28.0089 59.352C26.0189 61.802 24.149 64.382 22.359 67.012C21.039 68.942 19.449 70.882 18.799 73.102C15.669 83.932 14.8991 94.712 20.4991 105.022C20.5891 105.192 20.6091 105.422 20.7391 105.952C16.8491 107.872 12.669 109.272 9.32898 112.242C6.16898 115.052 3.64904 118.752 2.13904 122.912C0.209042 128.222 0.719003 133.382 0.599003 138.852C0.479003 144.212 2.62907 149.012 6.66907 152.122C10.6591 155.192 15.709 156.192 20.569 155.942C23.419 155.792 26.2389 155.232 29.0189 154.532C31.1989 153.982 33.919 152.312 36.059 153.652C37.089 154.302 37.8691 155.302 38.6891 156.252C47.3391 166.232 61.5589 169.782 73.2689 164.882C78.2189 162.812 83.8091 159.792 89.3991 158.962C89.7591 159.112 90.079 159.322 90.349 159.622C90.739 160.062 90.949 160.632 91.129 161.202C92.639 166.042 91.9189 171.462 91.5289 176.432C91.1089 181.682 90.5191 186.932 90.4191 192.202C90.3991 193.192 89.6392 200.622 90.2492 200.982C93.6392 202.932 97.7391 203.202 101.489 202.422C101.819 202.352 102.159 202.262 102.409 202.032C102.699 201.762 102.809 201.362 102.889 200.972C104.119 195.432 103.639 189.712 103.839 184.082C104.049 178.332 104.729 172.622 105.349 166.902C105.609 164.512 105.639 162.952 108.269 162.312C110.019 161.882 111.839 162.102 113.619 161.952C117.939 161.572 123.119 160.852 127.039 163.182C131.559 165.872 131.069 173.262 130.819 177.702C130.439 184.372 130.399 191.062 129.979 197.722C129.929 198.462 129.889 199.212 130.089 199.922C130.439 201.122 131.469 202.032 132.629 202.492C135.619 203.662 140.539 203.352 142.239 200.232C143.469 197.982 143.149 194.832 142.999 192.382C142.809 189.372 142.309 186.382 142.139 183.372C141.909 179.172 141.969 174.952 142.309 170.762C142.479 168.662 142.719 166.572 143.029 164.492C143.189 163.452 143.359 162.412 143.549 161.382C143.639 160.872 143.789 160.352 143.849 159.832C143.899 159.382 143.949 158.962 144.119 158.542C144.159 158.432 144.209 158.332 144.269 158.222C144.419 157.942 144.619 157.692 144.859 157.492C147.029 158.152 148.979 159.472 151.399 160.702C156.129 163.112 161.679 163.202 166.779 162.732C170.999 162.342 175.229 161.542 179.119 159.732C184.459 157.252 188.289 152.902 191.039 147.362C191.319 146.802 191.609 146.212 192.109 145.882C192.519 145.612 193.029 145.562 193.509 145.532C196.679 145.342 199.739 146.252 202.859 145.962C206.209 145.662 209.469 145.382 212.709 144.302C225.179 140.162 232.049 124.782 230.379 111.012Z" fill="black"/>
  <path d="M137.929 83.7621C138.299 83.2221 138.849 82.7821 139.489 82.4221C140.769 81.7121 141.969 81.4821 143.399 81.4321C143.529 81.4321 143.669 81.4321 143.789 81.4721C143.969 81.5521 144.079 81.7321 144.159 81.9121C144.509 82.6721 144.649 83.5022 144.709 84.3322C144.759 85.1022 144.899 86.0321 144.729 86.7921C144.709 86.8721 144.689 86.9621 144.639 87.0221C144.579 87.1021 144.479 87.1421 144.379 87.1821C143.209 87.6421 141.969 87.9521 140.719 88.0921C140.249 88.1421 139.489 88.3221 139.059 88.1221C138.669 87.9321 138.389 87.3921 138.179 87.0321C137.669 86.1321 137.279 84.6921 137.919 83.7621H137.929Z" fill="white"/>
  <path d="M102.569 110.242C102.599 110.172 102.639 110.092 102.709 110.052C102.809 109.992 102.929 110.022 103.029 110.052C105.409 110.782 107.789 111.512 110.169 112.242C116.139 114.072 121.139 113.002 126.779 110.572C127.509 110.262 128.299 109.932 129.079 110.102C129.859 110.272 130.519 111.172 130.119 111.862C129.999 112.082 129.799 112.242 129.599 112.392C128.449 113.252 127.149 114.002 125.749 114.612C121.919 116.292 117.609 116.952 113.449 116.592C111.409 116.412 109.369 115.982 107.469 115.212C106.089 114.662 103.449 113.972 102.689 112.642C102.279 111.912 102.229 110.992 102.569 110.232V110.242Z" fill="white"/>
  <path d="M86.5794 83.0922C86.6394 82.3922 86.7894 81.8222 87.0894 81.6022C87.4494 81.3422 87.9094 81.3322 88.3394 81.3422C91.4194 81.3822 95.9994 84.2122 92.3094 88.0022C91.8794 88.4422 91.3494 88.7322 90.8094 88.9622C89.4494 88.2322 87.8895 87.7022 86.6095 87.3522C86.6095 87.1722 86.6095 86.9922 86.6095 86.8122C86.6195 86.1122 86.4494 84.3922 86.5694 83.0922H86.5794Z" fill="white"/>
  <path d="M73.4792 88.062C73.0292 88.202 71.2491 86.182 71.1591 85.742C70.9291 84.542 71.869 83.742 72.829 83.202C73.039 83.082 73.279 82.952 73.539 82.822C75.259 81.952 78.0491 80.842 79.6191 81.412C80.8491 81.852 80.5591 82.172 80.5991 83.582C80.5991 83.842 80.6291 86.702 80.5991 86.702C79.6091 86.772 78.6291 86.882 77.6491 87.042C76.2291 87.282 74.8392 87.632 73.4692 88.062H73.4792Z" fill="white"/>
  <path d="M159.569 86.5821C159.349 87.2321 158.85 87.8221 158.18 87.9621C157.8 88.0421 157.409 87.9621 157.019 87.9021C156.279 87.7621 155.519 87.8521 154.799 87.7621C153.879 87.6421 152.919 87.2521 152.019 87.0121C151.729 86.9321 151.41 86.8321 151.24 86.5821C150.94 86.1321 151.079 85.1721 151.109 84.6421C151.159 83.8721 151.09 83.0921 151.2 82.3221C151.37 81.1821 151.82 81.1021 152.91 81.2721C154.03 81.4421 155.37 81.8921 155.96 82.1121C157.73 82.7521 160.279 84.4321 159.549 86.5921L159.569 86.5821Z" fill="white"/>
  <path d="M119.189 94.5523C119.099 93.8223 119.029 93.0823 118.959 92.3423C118.819 90.8023 116.989 89.7323 115.789 89.7023C115.329 89.7023 114.799 89.6223 114.419 89.8123C113.999 90.0223 113.599 90.0423 113.169 90.1123C112.959 90.1523 112.769 90.3223 112.569 90.4423C111.979 90.7723 112.269 91.6423 111.649 91.9523C111.479 93.1023 111.059 94.2423 111.709 95.3823C111.809 95.5623 111.739 95.8323 111.749 96.0123C112.549 96.7723 113.489 96.8523 114.389 97.0723C115.529 97.3523 116.589 97.1522 117.599 96.7422C118.509 96.3622 119.319 95.7723 119.169 94.5623L119.189 94.5523ZM117.359 94.4523C116.919 95.1923 116.179 95.4123 115.469 95.5123C114.589 95.4623 113.939 95.1023 113.519 94.4523C113.349 94.1923 113.259 93.7323 113.369 93.4623C113.549 93.0423 113.899 92.6723 114.229 92.3323C114.409 92.1523 114.699 92.0723 114.939 91.9423C115.519 91.6323 116.419 91.7922 116.859 92.2722C117.329 92.7922 117.629 94.0023 117.359 94.4523Z" fill="white"/>
</svg>