<svg xmlns="http://www.w3.org/2000/svg" width="294" height="245" viewBox="0 0 294 245" fill="none">
  <path d="M228.068 31.27C236.182 27.0683 245.281 25.5806 254.659 29.3402C266.78 34.2024 275.844 46.2827 275.284 59.4528C275.043 65.2829 273.922 71.1906 271.231 76.4099C267.668 83.4156 261.581 88.8163 255.673 94.0424C262.608 93.6098 269.366 94.0799 276.207 95.098C282.519 96.0676 285.655 100.803 288.455 106.325C293.589 116.354 295.494 128.389 291.751 139.053C289.201 146.358 283.724 152.831 276.694 156.393C270.233 159.677 261.301 162.387 254.073 162.93C255.737 166.856 257.878 171.002 259.234 174.979C260.417 178.432 260.976 182.083 260.986 185.724C260.992 192.596 258.995 199.562 255.213 205.391C246.265 219.098 228.446 227.453 212.45 223.629C198.285 220.265 184.936 213.704 173.688 204.648C173.271 214.866 166.855 232.013 157.544 237.517C141.122 247.24 111.279 248.33 100.057 230.239C96.27 224.157 96.4498 216.538 96.7564 209.391C81.4413 213.273 64.5662 225.271 48.5723 218.089C44.1836 216.128 40.5011 212.838 37.5061 209.111C24.0092 192.262 24.0745 163.068 41.5351 148.569C43.0935 147.296 48.8033 144.214 48.9131 142.221C48.9114 142.094 42.7185 143.374 42.3881 143.462C39.4886 144.176 36.516 144.497 33.5307 144.41C29.5129 144.314 26.2447 144.493 22.3448 143.036C18.9826 141.782 15.9285 139.876 13.2457 137.554C7.75837 132.815 3.86247 126.446 1.37842 119.699C-2.41018 109.404 1.2524 90.2709 16.8375 82.23C19.3826 80.9145 21.8343 79.3706 24.5266 78.3641C27.1809 77.336 30.0679 76.8159 33.1919 75.9788C31.7816 49.2077 41.7695 27.9675 68.354 17.9614C77.8552 14.3701 88.1814 13.3773 98.068 15.6701C108.673 18.119 116.572 24.049 125.026 30.3686C125.11 30.4412 133.536 18.8699 134.427 17.8708C138.081 13.7239 142.411 10.0608 147.421 7.60975C151.03 5.81906 154.886 4.46907 158.564 2.81812C171.496 -2.99108 188.724 0.629098 199.428 9.57727C204.449 13.7758 208.342 19.2905 210.673 25.3499C212.912 31.181 211.934 36.5433 213.276 42.3928C213.236 42.2451 218.945 37.3574 219.475 36.9304C222.152 34.7874 225.014 32.8486 228.068 31.27Z" fill="#D28CB4"/>
</svg>