<svg width="160" height="200" viewBox="0 0 160 200" fill="none" xmlns="http://www.w3.org/2000/svg">
<path d="M159.542 135.595C159.542 135.364 159.511 135.195 159.496 135.057C159.419 135.918 159.588 136.703 159.542 135.595Z" fill="#B496C8"/>
<path d="M159.99 132.271C159.99 131.408 159.851 130.639 159.836 131.162C159.759 132.732 159.728 130.854 159.681 130.439C159.635 129.931 159.604 129.161 159.542 128.699C159.48 128.283 159.48 127.976 159.511 127.745C159.542 127.575 159.558 127.406 159.589 127.237C159.604 127.052 159.619 126.682 159.589 126.328C159.511 125.574 159.403 124.404 159.357 124.65C159.233 125.358 159.357 126.221 159.218 126.328C159.187 126.344 159.218 127.329 159.171 127.113C159.11 126.744 159.171 126.313 159.14 125.79C159.094 124.758 159.14 124.342 159.202 124.265C159.249 124.219 159.017 123.234 159.032 122.788C159.048 122.28 159.28 122.464 159.218 122.172C159.187 122.018 159.14 121.941 159.125 122.11C159.079 122.511 159.063 122.357 159.048 121.556C159.048 121.279 159.048 120.971 159.048 120.725C158.986 119.693 159.017 118.108 158.909 117.784C158.847 117.6 158.785 118.8 158.785 119.955C158.785 120.91 158.723 122.003 158.661 122.495C158.646 122.618 158.646 122.88 158.631 123.111C158.631 123.634 158.584 123.788 158.538 123.881C158.461 124.019 158.414 124.512 158.368 124.927C158.322 125.358 158.26 125.713 158.167 125.497C158.043 122.818 157.92 120.217 157.889 117.769C157.889 116.892 157.843 115.999 157.827 115.121C157.873 115.198 157.92 115.26 157.982 115.383C158.028 115.475 158.059 115.429 158.09 115.414C158.152 115.398 158.152 114.998 158.121 114.228C158.028 112.704 157.92 111.488 157.781 110.965C157.765 110.903 157.75 110.842 157.734 110.765C157.703 109.595 157.673 108.409 157.626 107.239C157.626 107.132 157.626 107.008 157.626 106.916C157.657 106.423 157.657 105.777 157.626 104.976C157.564 103.56 157.58 102.559 157.642 101.79C157.673 101.513 157.688 101.097 157.688 100.697C157.719 99.573 157.688 98.9572 157.564 98.403C157.41 97.7102 157.286 96.4171 157.163 95.1394C157.101 94.5544 157.07 94.0772 157.054 93.6461C157.054 93.5846 157.054 93.5384 157.054 93.4768C157.039 93.0304 157.054 92.6301 157.054 92.1683C157.132 90.8906 157.085 89.1664 157.085 87.55C157.085 86.2723 157.024 85.4563 156.946 84.5019C156.761 82.516 156.715 81.3769 156.792 79.468C156.807 78.9907 156.823 78.4981 156.792 77.8669C156.761 77.1896 156.745 76.543 156.745 75.8811C156.745 75.527 156.745 75.1114 156.699 74.8496C156.668 74.5879 156.637 74.7419 156.622 75.019C156.606 75.4038 156.575 75.7425 156.514 75.2345C156.467 74.7573 156.405 74.3108 156.405 73.5103C156.405 73.3102 156.405 73.0947 156.405 72.8946C156.405 72.3558 156.406 71.9093 156.344 71.5091C156.313 71.2628 156.251 71.1704 156.266 70.57C156.266 70.062 156.328 70.2006 156.375 70.3699C156.405 70.4623 156.421 70.6008 156.452 70.647C156.56 70.8471 156.606 70.1852 156.56 68.9074C156.483 67.1987 156.421 65.5207 156.344 63.7811C156.344 63.2885 156.297 62.9344 156.251 62.8882C156.22 62.8574 156.205 62.8882 156.189 63.1346C156.174 63.6272 156.22 63.9505 156.251 64.2891C156.282 64.674 156.313 65.0588 156.297 65.4899C156.282 65.9055 156.236 65.7208 156.205 65.5976C156.112 65.3359 156.019 64.8895 155.926 64.4123C155.865 62.3956 155.787 60.302 155.695 58.116C155.726 58.3931 155.757 58.624 155.787 58.4855C155.88 58.039 155.988 58.4393 156.112 59.5323C156.158 60.0249 156.205 59.9941 156.205 59.286C156.205 57.5002 156.143 55.6991 156.004 53.9287C155.942 53.2206 155.926 52.8203 155.942 52.1738C155.973 50.9422 155.911 49.4644 155.772 48.7562C155.617 47.9865 155.571 47.0013 155.509 45.6774C155.463 44.7537 155.432 44.1841 155.509 43.8454C155.587 43.5221 155.556 42.3368 155.463 41.5209C155.324 40.3663 155.2 39.3657 155.046 38.1033C154.999 37.6723 154.968 37.7647 154.938 38.0418C154.907 38.519 154.845 38.2727 154.799 37.5953C154.768 37.1181 154.721 36.7332 154.675 36.3484C154.381 31.5146 154.041 26.8193 153.655 22.5397C153.609 21.8777 153.547 21.185 153.454 20.446C153.392 19.8456 153.331 19.2607 153.269 18.6757C153.269 18.4448 153.3 18.3524 153.377 18.4756C153.408 18.5371 153.485 19.0144 153.485 18.6603C153.485 18.2908 153.408 17.8136 153.346 17.3979C153.253 16.7514 153.176 16.2434 153.068 15.8123C153.006 15.5814 152.944 15.2735 152.913 14.9041C152.821 13.5494 152.573 12.1793 152.357 10.8092C152.233 10.0087 152.094 9.56223 151.986 9.20816C151.291 5.46733 150.503 3.05042 149.576 2.5578C149.545 2.52701 149.514 2.49623 149.483 2.48083C149.421 2.46544 149.359 2.46544 149.298 2.45004C149.298 2.45004 149.267 2.43464 149.251 2.43464C149.236 2.43464 149.22 2.43464 149.205 2.43464C148.927 2.38846 148.633 2.37307 148.185 2.35767C147.691 2.35767 147.212 2.35767 146.717 2.35767C146.176 2.34228 145.636 2.32689 145.079 2.31149C144.585 2.2961 144.106 2.2807 143.596 2.21912C143.55 2.21912 143.426 2.21912 143.38 2.21912C142.669 2.21912 142.004 2.21913 141.355 2.20373C141.232 2.20373 141.093 2.20373 140.969 2.20373C140.289 2.17294 139.64 2.12676 139.022 2.04979C136.766 1.97281 134.572 1.88045 132.301 1.80348C131.512 1.78808 130.925 1.78809 130.369 1.81887C130.199 1.81887 130.045 1.84966 129.875 1.84966C128.747 1.81887 127.619 1.78808 126.475 1.7573C126.274 1.68032 126.522 1.66493 127.557 1.71111C127.881 1.71111 127.989 1.71111 128.082 1.68032C128.468 1.58796 127.959 1.48019 126.861 1.38783C125.548 1.26467 123.833 1.15692 123.4 0.987578C123.292 0.941395 122.875 0.910608 122.35 0.910608C121.345 0.910608 120.433 0.864426 119.475 0.833637C117.281 0.756665 116.431 0.772056 115.535 0.925999C114.933 1.03376 113.635 1.00297 112.383 1.00297C111.27 1.00297 111.61 0.910604 111.317 0.864421C111.116 0.833632 110.946 0.802844 110.591 0.78745C109.679 0.741267 109.401 0.695083 109.262 0.618111C109.107 0.525745 108.412 0.494957 107.454 0.510351C106.233 0.54114 105.26 0.602718 104.286 0.648901C103.158 0.725872 103.127 0.71048 101.86 0.602719C101.072 0.525748 99.7743 0.525748 99.4498 0.602719C98.9708 0.71048 99.697 0.818239 99.5116 0.925999C99.4343 0.972182 100.021 1.01837 100.516 1.06455C101.134 1.11073 101.551 1.17231 101.752 1.23389C100.701 1.21849 99.6352 1.1877 98.5845 1.17231C97.132 1.01837 95.3395 0.941394 93.2072 0.956789C92.5737 0.956789 91.8783 0.972182 91.2912 0.925999C90.4722 0.849028 89.3288 0.818238 88.3089 0.756661C87.3509 0.710478 86.532 0.664296 86.6401 0.57193C86.671 0.541141 86.532 0.510351 86.192 0.479562C85.4503 0.433379 84.5078 0.402595 83.8897 0.448778C83.1171 0.510356 84.0442 0.556536 84.5696 0.602719C84.8786 0.633508 85.5585 0.633507 85.4503 0.67969C85.3422 0.725873 84.7396 0.741271 84.2142 0.725877C82.8853 0.710483 82.1282 0.725874 81.9273 0.849029C81.8037 0.926 81.0002 0.941392 80.2739 0.864421C79.7022 0.802843 79.4086 0.818237 78.8524 0.864421C78.4506 0.895209 78.0334 0.910605 77.5853 0.925999C76.89 0.925999 76.2101 0.925999 75.5148 0.925999C75.3448 0.925999 75.1903 0.926002 75.0048 0.910608C74.1704 0.864425 72.5016 0.864425 72.1153 0.910608C72.1153 0.910608 72.0844 0.910608 72.069 0.910608C69.5812 0.910608 67.0935 0.879818 64.6057 0.879818C64.5903 0.879818 64.5903 0.879818 64.5594 0.879818C64.2658 0.833635 63.725 0.818243 63.1841 0.833637C62.7669 0.833637 62.3652 0.864424 61.9634 0.879818C61.4072 0.879818 60.8664 0.879818 60.3101 0.879818C60.0474 0.864424 59.8156 0.833634 59.4757 0.818239C58.8422 0.802845 58.9349 0.772057 59.1048 0.710479C59.5839 0.556536 59.1821 0.49496 57.4515 0.49496C56.2308 0.49496 55.0564 0.433382 53.8048 0.49496C51.9506 0.556537 50.3745 0.510354 49.2311 0.3872C47.7477 0.233256 45.6771 0.233253 43.5448 0.264042C42.8185 0.264042 42.4477 0.310227 42.4168 0.35641C42.3859 0.417988 42.2623 0.479566 41.5051 0.525749C40.2381 0.602721 38.9247 0.664299 38.3838 0.802848C38.1212 0.864425 37.2095 0.849031 36.576 0.833637C35.8034 0.833637 35.927 0.77206 36.1897 0.725877C37.1322 0.602722 36.4678 0.556534 35.1698 0.510351C34.0264 0.464168 34.2582 0.356412 35.4789 0.310229C35.8188 0.310229 36.2206 0.310226 36.576 0.294831C37.4104 0.294831 38.1057 0.264043 38.2602 0.187071C38.4147 0.1101 37.7503 0.0793108 37.1013 0.0485221C36.1279 0.0023391 35.6952 0.0177323 35.8188 0.125493C35.9733 0.248647 35.1389 0.233253 34.32 0.233253C33.4392 0.233253 32.4967 0.202464 31.6777 0.233253C29.8698 0.341013 28.5873 0.294835 27.3203 0.202469C25.7133 0.0947087 24.9098 0.110101 23.1637 0.24865C21.8967 0.356411 20.7378 0.464173 19.687 0.587328C19.4398 0.618116 19.0844 0.633506 18.7136 0.618111C18.4354 0.618111 18.4045 0.571933 18.5127 0.556538C19.0999 0.433384 18.2655 0.387199 17.1993 0.35641C16.1486 0.325621 16.3494 0.279438 16.813 0.217861C16.983 0.202467 17.1684 0.171676 17.3074 0.156282C17.8637 0.0485217 17.3538 -0.0130534 15.994 0.00234097C15.6232 0.00234097 15.2524 0.017736 14.8815 0.0331304C13.3363 0.0947077 11.8993 0.187071 10.1532 0.156282C9.41151 0.156282 8.26809 0.202465 7.41823 0.264042C6.93922 0.294831 6.04301 0.325624 5.11589 0.341018C4.15787 0.341018 3.12259 0.510356 2.59722 0.695088C1.97915 0.864425 1.16021 1.31086 0.634849 2.09597C0.0940326 2.89648 0.0167589 3.82014 0.0167589 4.48209C0.0167589 5.69825 0.016774 6.86822 0.0322259 8.06897C0.0322259 9.46986 0.0631174 10.9323 0.140377 12.1947C0.171281 12.7489 0.202179 13.4416 0.279438 12.9952C0.356698 12.5025 0.341259 13.0721 0.341259 13.6725C0.341259 14.3191 0.294899 14.5654 0.263995 14.9502C0.186735 15.7354 0.155827 16.7514 0.186731 18.1061C0.217635 19.7687 0.264002 21.4313 0.294905 23.0785C0.325809 23.9713 0.356707 24.5871 0.433967 24.6487C0.526678 24.7103 0.60393 25.2183 0.619382 26.3575C0.634834 27.589 0.573032 27.9893 0.480321 28.097C0.387609 28.2048 0.356703 28.8821 0.356703 29.9136V34.1624C0.356703 34.8243 0.387603 35.4863 0.44941 34.8397C0.495766 34.2548 0.526688 34.3779 0.588495 35.0553C0.650303 35.8712 0.727553 36.4715 0.820264 35.7942C0.835716 35.6249 0.897512 35.9635 0.928416 36.0559C1.03658 36.333 1.16021 36.3176 1.23747 35.4247C1.29928 34.7936 1.33018 34.7628 1.37653 35.748C1.39199 36.1329 1.4538 37.2105 1.50015 36.0405C1.50015 35.6864 1.54651 35.5171 1.57742 35.7326C1.62377 36.1329 1.57742 36.4869 1.57742 36.841C1.56196 37.4876 1.56196 38.011 1.62377 38.2727C1.65467 38.3804 1.68557 38.5498 1.71648 38.5806C1.74738 41.2746 1.76282 43.9532 1.77827 46.6472C1.73192 46.8473 1.68557 46.7088 1.63921 46.4471C1.56195 46.0622 1.57742 45.3695 1.57742 44.7691C1.57742 44.0764 1.54651 43.83 1.50015 43.6299C1.43834 43.3528 1.37652 42.8756 1.31471 42.2752C1.28381 41.875 1.0366 41.9673 1.02115 42.4138C0.990243 43.984 0.912976 43.5375 0.820264 43.2758C0.743005 43.0449 0.69664 43.5068 0.665736 44.3381C0.665736 44.7691 0.665743 45.2617 0.696646 45.5696C0.72755 45.8313 0.758459 45.6158 0.773911 45.3233C0.789363 45.0616 0.804819 44.6613 0.851175 44.8461C0.897531 45.077 0.882077 45.6004 0.897529 46.0314C0.897529 46.5702 0.897522 47.0628 0.866618 47.4939C0.804811 48.5715 0.804804 49.8338 0.835708 51.1116C0.866612 52.7742 0.866618 54.406 0.866618 56.0224C0.866618 58.3161 0.866608 60.5637 0.928416 62.8575C0.943867 63.5656 0.959339 63.7965 1.02115 63.5348C1.0675 63.3039 1.11384 62.7343 1.17565 63.3501C1.23746 63.8735 1.28382 64.3045 1.33018 64.7817C1.39199 65.3205 1.39199 65.8901 1.33018 66.3981C1.29928 66.6599 1.28383 67.2756 1.23747 67.1833C1.19112 67.0909 1.14476 67.3372 1.16021 68.0146C1.16021 68.7381 1.20655 69.3385 1.26836 69.4154C1.29926 69.4616 1.34563 69.2769 1.37653 69.5232C1.39199 69.6771 1.43835 69.7233 1.40744 70.2621C1.34564 71.2782 1.34563 72.5097 1.37653 73.8028C1.39199 74.434 1.39199 75.096 1.37653 75.5116C1.31473 76.8663 1.23746 78.5751 1.17565 79.976C1.11384 80.9766 1.03659 82.2389 1.11385 84.0093C1.14476 84.6712 1.14476 85.6719 1.11385 86.5647C1.08295 87.6577 1.0675 88.8893 0.990236 89.8437C0.943881 90.5211 0.943887 91.5833 1.02115 92.276C1.08295 92.9534 1.14476 92.43 1.19112 91.9066C1.29928 90.9367 1.40743 90.0439 1.43833 88.3351C1.43833 87.904 1.46923 87.8886 1.48468 88.2273C1.53104 89.0586 1.5774 89.9053 1.6083 90.8906C1.6083 91.6449 1.56197 91.7834 1.53106 92.1529C1.50016 92.5378 1.50015 93.0766 1.50015 93.6C1.50015 94.5236 1.46925 95.047 1.37653 94.4466C1.29927 93.8463 1.22201 94.1695 1.17565 94.8931C1.1293 95.7706 1.17567 97.0329 1.14476 98.0181C1.14476 98.0181 1.17567 98.3568 1.19112 98.326C1.26838 98.0335 1.29928 98.7109 1.33018 99.4498C1.36108 100.42 1.43834 100.835 1.5156 100.804C1.56195 100.789 1.60832 100.851 1.67012 100.804C1.79374 100.697 1.88645 99.4498 1.88645 97.9104C1.88645 96.1554 1.88644 96.0015 2.02551 95.7552C2.02551 95.7398 2.04097 95.7244 2.05642 95.709C2.08733 99.9732 2.11823 104.237 2.14913 108.517C2.08732 108.887 2.05641 108.548 1.9946 107.224C1.9637 106.531 1.94826 105.808 1.91736 105.1C1.91736 104.745 1.871 104.438 1.8401 104.607C1.79374 104.822 1.79374 105.392 1.8401 105.715C1.96371 107.178 1.9019 108.302 1.8401 109.456C1.8401 109.518 1.8401 109.564 1.8401 109.625C1.77829 110.842 1.8092 111.827 1.91736 112.104C1.99462 112.273 2.05643 112.981 2.13369 112.781C2.18004 112.674 2.18003 112.858 2.19548 113.336L2.22639 115.121C2.22639 115.491 2.22639 115.999 2.19548 116.03C2.14913 116.076 2.16458 115.568 2.14913 115.214C2.14913 114.767 2.14912 114.198 2.11822 113.982C2.05641 113.643 2.07187 114.444 2.05642 114.706C2.04097 114.998 2.01006 115.137 1.97916 115.029C1.9019 114.813 1.84008 115.244 1.77827 115.229C1.71647 115.229 1.68557 115.429 1.73192 116.276C1.73192 116.445 1.73194 116.691 1.74739 116.907C1.74739 117.307 1.74737 117.677 1.70101 117.692C1.67011 117.692 1.65466 117.446 1.65466 117.138C1.5774 115.275 1.57741 115.275 1.42289 115.521C1.37653 115.598 1.33018 115.552 1.28383 115.645C1.23747 115.737 1.19112 115.968 1.19112 116.661C1.19112 117.338 1.19111 118.062 1.25292 118.416C1.34563 118.893 1.39198 119.724 1.42289 120.786C1.42289 121.233 1.46925 121.695 1.50015 121.756C1.60832 121.987 1.59286 122.772 1.46924 123.819C1.42289 124.296 1.36108 124.835 1.29927 125.358C1.08294 127.144 1.0675 127.529 1.33018 126.544C1.5156 125.836 1.59286 125.759 1.50015 126.883C1.50015 127.067 1.48469 127.221 1.46924 127.375C1.42289 128.437 1.50016 128.391 1.74739 127.221C1.77829 127.052 1.82464 126.836 1.85554 126.682C1.85554 126.636 1.871 126.621 1.88645 126.575C1.77829 127.437 1.65468 128.33 1.53106 129.253C1.50016 129.361 1.48469 129.423 1.46924 129.407C1.37653 129.284 1.17566 130.192 1.11385 129.715C1.0675 129.315 0.851157 130.531 0.71209 131.131C0.665734 131.301 0.634834 131.701 0.619382 131.932C0.588478 132.763 0.542125 133.687 0.573028 134.364C0.58848 135.288 0.573043 135.365 0.418523 136.442C0.341264 136.92 0.279449 137.043 0.217641 137.258C0.109478 137.689 -0.0141364 138.721 0.00131547 139.783C0.0167674 140.337 0.0476759 140.753 0.0785797 140.399C0.155839 139.506 0.264006 139.86 0.37217 140.645C0.418525 140.938 0.464875 140.368 0.511231 141.353L0.696646 143.139C0.943877 144.771 0.990232 144.771 1.29927 145.31C1.36108 145.417 1.42288 145.525 1.48468 145.633C1.51559 145.679 1.5465 145.771 1.59286 145.864C1.62376 145.925 1.65467 145.972 1.67012 146.018C1.68558 146.048 1.68557 146.064 1.71648 146.095C1.84009 146.326 1.90189 146.464 1.85554 146.418C1.5774 146.141 1.54651 146.279 1.71648 146.741C1.80919 146.972 1.91734 147.311 2.21093 147.65C2.48906 148.004 2.79811 148.435 3.35438 148.758C3.44709 148.819 3.43163 148.835 3.49344 148.881C3.91064 149.174 4.69868 149.435 5.34766 149.528C5.70305 149.605 5.82669 149.558 6.16663 149.589C6.67655 149.651 7.29461 149.666 7.98995 149.759C8.8089 149.851 8.23717 149.866 8.17536 149.912H8.14447C8.09812 149.974 8.54622 150.036 9.14884 150.113C9.82872 150.19 10.0605 150.113 10.4468 150.113C10.9722 150.113 11.7447 150.082 12.0847 150.036C12.6719 149.943 13.5217 149.912 14.6497 149.928C14.8506 149.928 15.2987 149.897 15.3142 149.928C15.3142 149.928 15.0051 149.959 14.8197 149.974C14.6188 149.989 14.1707 150.005 14.3407 150.036C14.3716 150.036 14.7579 150.036 14.9587 150.02C15.3759 149.989 15.7622 149.959 16.164 149.928C16.6739 149.882 17.2611 149.82 17.6165 149.882C17.9255 149.943 17.1838 149.959 16.6894 149.989C16.2258 150.005 15.8395 150.036 15.4996 150.082C15.1905 150.113 14.9433 150.159 15.206 150.174C15.7468 150.205 16.3185 150.236 17.2302 150.205C18.0028 150.174 18.1264 150.128 18.1109 150.066C18.1109 150.005 18.729 149.928 19.4089 149.928C20.0733 149.928 20.8923 149.897 21.1859 149.928C22.1593 149.959 24.0754 150.036 24.3999 150.19C24.4617 150.22 25.018 150.251 25.3579 150.236C26.2696 150.19 27.1348 150.205 28.1392 150.205C29.5299 150.205 30.9978 150.143 32.3885 150.051C32.9757 150.02 33.5165 149.974 33.7019 149.912C34.0264 149.805 34.8453 149.712 35.7261 149.62C36.6841 149.528 37.2868 149.451 36.8696 149.327C36.5914 149.251 36.9159 149.204 37.843 149.204C38.3993 149.204 38.8474 149.204 39.1873 149.189C39.3573 149.189 39.5891 149.189 39.8518 149.189C40.1144 149.189 40.3771 149.235 40.6244 149.251C41.6442 149.374 42.3395 149.635 41.6133 149.62C39.7745 149.62 40.2535 149.866 40.6553 150.082C40.7634 150.128 41.2579 150.22 41.9069 150.282C42.494 150.343 42.8494 150.374 43.0658 150.359C43.2357 150.359 43.4366 150.313 43.8538 150.39C45.6617 150.759 45.4299 150.651 45.708 150.667C45.7544 150.667 45.8162 150.698 45.8935 150.744C45.9707 150.79 46.048 150.898 46.1098 151.005C46.1716 151.129 46.2025 151.298 46.2025 151.513C46.2025 151.744 46.1716 151.96 46.1407 152.068C46.0171 152.453 45.9707 153.499 45.9089 153.946C45.8316 154.469 45.7389 154.469 45.6462 154.792C45.5844 155.008 45.5226 155.562 45.4763 156.07C45.4144 156.655 45.3526 157.302 45.2908 157.548C45.1672 157.948 45.1054 158.826 45.0436 159.749C44.9972 160.427 44.9509 161.089 44.9045 161.751C44.7964 163.69 44.7037 165.615 44.5955 167.539C44.5492 168.555 44.5646 169.34 44.6419 169.263C44.8273 169.125 44.9354 170.079 45.1209 169.879C45.2136 169.787 45.2908 169.586 45.3526 168.709C45.4299 167.908 45.4917 166.939 45.4299 166.384C45.4144 166.184 45.4145 166.092 45.4608 165.799C45.6153 164.86 45.6462 163.921 45.6308 163.013C45.6308 162.69 45.6308 162.336 45.6926 161.858C45.8007 160.996 45.9089 160.673 46.0016 160.519C45.4763 168.032 45.1363 175.559 44.9663 183.087C44.9663 183.133 44.9663 183.164 44.9509 183.149C44.92 183.118 44.92 182.749 44.92 182.364C44.92 181.84 44.9354 181.225 44.8736 181.302C44.8118 181.379 44.7809 182.025 44.7655 182.641L44.7346 184.211C44.7346 184.581 44.7346 185.073 44.6882 185.119C44.6419 185.196 44.6573 184.688 44.6728 184.35C44.6882 183.811 44.7037 183.103 44.6728 182.949C44.5646 182.487 44.5182 181.702 44.5646 180.07C44.5646 179.901 44.5646 179.593 44.5492 179.562C44.4564 179.346 44.3792 178.7 44.3019 178.192C44.271 177.992 44.2092 178.3 44.1629 178.761C44.1011 179.5 44.1628 179.577 44.1937 179.824C44.2556 180.362 44.1938 180.963 44.1629 181.594C44.0701 183.118 44.0856 183.287 44.1783 183.78C44.2556 184.103 44.2556 184.658 44.2556 185.55C44.2556 186.551 44.1938 187.475 44.2092 188.337C44.2247 189.322 44.3483 189.507 44.3637 190.554C44.3637 191.062 44.3946 191.57 44.4564 191.354C44.5028 191.154 44.5028 190.615 44.5182 190.061C44.5491 188.953 44.5646 187.829 44.5955 186.736C44.5955 186.289 44.6419 185.951 44.6882 186.074C44.7191 186.166 44.7191 186.582 44.7037 186.967C44.7037 187.413 44.6728 187.844 44.6882 188.291C44.6882 188.799 44.6882 189.368 44.75 189.337C44.7964 189.307 44.8118 188.814 44.8273 188.383C44.8273 187.736 44.8582 186.92 44.92 186.828C44.8736 189.63 44.8582 192.416 44.8736 195.218C44.8427 194.956 44.8273 194.664 44.7964 194.325C44.7655 193.833 44.7191 194.325 44.6728 194.31C44.5492 194.31 44.3946 194.941 44.3174 192.986C44.3019 192.462 44.2556 192.401 44.2092 192.77C44.1783 193.109 44.1783 193.509 44.2092 193.971C44.2247 194.756 44.2556 195.526 44.271 196.326C44.271 196.742 44.2865 197.188 44.4564 197.712C44.6264 198.251 45.0282 198.713 45.569 198.959C46.4961 199.359 47.2841 199.236 47.9486 199.298C48.6439 199.344 49.3392 199.421 50.0037 199.498C52.4142 199.775 54.9328 200.067 57.5906 199.913C58.3323 199.867 58.904 199.775 59.3984 199.621C59.8465 199.482 60.1401 199.39 60.4337 199.282C60.7273 199.205 61.0209 199.082 61.4999 198.882C61.9635 198.589 62.3961 198.451 63.0296 197.62C63.864 196.465 64.2658 195.264 64.5594 194.048C65.0384 191.785 65.1929 189.399 65.0693 187.352C65.0538 187.044 65.0384 186.597 65.0693 186.274C65.1465 184.858 64.992 183.549 64.9766 182.241C64.9766 181.363 64.9611 180.732 64.853 181.086C64.7911 181.302 64.7757 180.855 64.7602 180.301C64.7293 178.746 64.7139 176.36 64.4821 177.068C64.4821 177.099 64.4512 177.022 64.4512 176.945C64.3894 176.529 64.343 175.744 64.2658 176.452C64.2658 174.805 64.2658 173.173 64.2349 171.526C64.2658 171.834 64.2967 172.234 64.3276 171.973C64.3585 171.772 64.343 171.357 64.3276 170.987C64.3121 169.094 64.2967 169.094 64.4667 168.971C64.4976 168.94 64.5594 169.094 64.5594 168.663C64.5439 167.724 64.4821 168.524 64.4512 168.109C64.3739 167.016 64.343 168.093 64.2812 167.77C64.1885 167.154 64.1422 167.308 64.1113 167.755C63.9877 164.66 63.8177 161.551 63.555 158.472C63.555 158.472 63.555 158.472 63.555 158.456C63.6014 158.795 63.6477 159.011 63.6786 158.98C63.8177 158.826 63.9722 159.842 64.1422 161.12C64.2967 162.336 64.4358 162.551 64.513 162.136C64.5903 161.72 64.5594 160.612 64.4512 159.164C64.2812 156.855 64.0649 154.746 64.343 152.483L64.3894 152.145L64.4203 151.991L64.4976 151.683L65.3474 151.56C66.3209 151.421 67.2944 151.267 68.2833 151.129C69.2568 150.975 69.504 150.898 69.2876 150.852C69.1486 150.821 68.8859 150.805 68.9477 150.744C68.9941 150.698 69.1022 150.636 69.7666 150.559C70.3229 150.497 70.5238 150.513 70.6629 150.528C70.8328 150.559 71.0028 150.59 71.1882 150.605C71.4509 150.636 71.9145 150.636 72.4707 150.621C74.5413 150.59 76.7355 150.359 78.9451 150.236C79.3314 150.22 79.7022 150.174 79.5323 150.143C78.667 150.005 79.8413 149.897 81.541 149.866C81.6028 149.866 81.6955 149.866 81.7419 149.866C82.7617 149.789 83.6888 149.774 84.4923 149.928C84.7086 149.974 85.1877 150.005 85.6667 150.005C87.66 150.051 89.1897 150.282 90.5649 150.621C90.9821 150.728 91.5075 150.867 92.2337 150.975C92.7127 151.067 93.2072 151.159 93.7017 151.283C93.9489 151.329 94.1807 151.421 94.4279 151.483L94.8605 151.606L95.0923 151.667C95.0923 151.667 95.0923 151.821 95.1078 151.898V152.453C95.1078 153.053 95.1078 153.653 95.1078 154.254C95.1387 155.439 95.1541 156.624 95.185 157.794C95.2159 158.61 95.2468 158.841 95.2778 158.272C95.3087 157.794 95.3241 157.256 95.3859 157.81C95.4323 158.256 95.4941 157.933 95.5404 158.102C95.5559 158.164 95.5404 158.857 95.5404 159.072C95.5095 160.257 95.4323 161.304 95.4786 162.674C95.4786 162.998 95.4786 163.044 95.4477 163.013C95.2932 162.628 95.185 163.783 95.0923 165.061C95.0305 165.861 95.0151 166.492 95.0769 167.4C95.1078 167.924 95.1541 168.709 95.1387 169.202C95.046 170.741 95.0923 172.481 95.0769 174.097C95.046 176.206 95.046 178.392 94.9842 180.439C94.9533 181.317 94.9069 181.871 94.8605 182.548C94.7987 183.503 94.9378 184.211 94.8915 185.227C94.8915 185.566 94.876 185.935 94.8605 186.305C94.8296 187.936 94.7987 189.584 94.7678 191.2C94.7369 192.447 94.7524 193.617 94.7678 194.787L94.8142 196.527C94.8142 197.281 94.8451 198.035 94.8605 198.79L95.2159 198.897C95.5713 199.005 95.6949 199.051 95.8495 199.097C95.8958 199.097 95.9422 199.097 96.004 199.097C96.1122 199.097 96.2358 199.097 96.3439 199.097H96.5448C96.5448 199.097 96.6839 199.221 96.7611 199.298C96.9002 199.436 97.0547 199.59 97.2092 199.744C97.302 199.806 97.3329 199.944 97.4719 199.913H97.7037C97.9818 199.913 98.1054 199.959 98.3372 199.975C99.1562 200.036 101.335 199.975 101.582 199.898C101.984 199.759 102.803 199.775 103.606 199.775C104.41 199.775 105.229 199.775 105.847 199.806C106.635 199.821 107.346 199.806 108.196 199.698C109.138 199.575 110.127 199.498 111.147 199.436C111.549 199.405 111.966 199.39 112.398 199.328C112.63 199.298 112.769 199.282 113.094 199.236L114.083 198.959C114.423 198.882 114.732 198.728 115.041 198.605C115.273 198.589 115.18 198.358 115.211 198.205V197.712C115.242 197.389 115.18 197.004 115.164 196.65L115.118 195.942C114.979 194.264 114.871 192.57 114.809 190.954C114.809 190.784 114.778 190.523 114.763 190.323C114.67 189.368 114.624 188.429 114.608 187.49C114.593 186.505 114.531 185.658 114.438 184.781C114.361 184.026 114.299 183.488 114.206 183.38C114.036 183.18 113.99 182.548 113.99 180.64C113.99 180.085 113.975 179.5 113.959 178.946C113.913 177.684 113.913 176.776 114.005 176.391C114.036 176.252 114.067 175.883 114.036 175.39C113.975 174.282 113.99 173.327 113.99 172.342C113.99 171.326 113.944 170.602 113.882 169.971C113.835 169.586 113.789 169.14 113.743 169.556C113.696 170.033 113.727 170.587 113.774 171.08C113.897 172.481 113.913 174.236 113.882 175.252C113.835 176.36 113.789 177.776 113.604 177.207C113.496 176.899 113.434 177.391 113.418 178.469C113.418 178.715 113.418 179.069 113.403 179.146C113.326 179.362 113.233 179.531 113.171 179.978C113.109 178.423 113.032 176.853 112.986 175.298C113.032 174.913 113.032 174.297 112.986 173.281C112.986 172.989 112.986 172.696 112.986 172.527C113.063 171.68 113.017 170.11 113.063 168.986C113.063 168.54 113.063 168.109 113.032 167.801C112.986 167.524 112.955 167.554 112.939 167.924C112.924 168.309 112.893 168.724 112.862 169.125C112.862 168.386 112.847 167.647 112.831 166.908C112.908 165.907 113.017 164.937 113.063 164.86C113.094 164.83 113.109 164.86 113.14 164.876C113.171 164.891 113.187 164.984 113.217 164.953C113.264 164.907 113.279 164.66 113.295 164.152C113.295 163.752 113.295 163.336 113.264 163.182C113.187 162.859 113.156 162.151 113.125 161.427C113.109 160.981 113.017 160.658 113.078 160.073C113.125 159.703 113.156 159.011 113.217 159.072C113.248 159.103 113.279 159.18 113.31 159.195C113.449 159.272 113.434 159.257 113.418 160.919C113.418 162.059 113.372 163.69 113.526 164.229C113.542 165.261 113.712 165.399 113.666 166.908C113.65 167.447 113.696 167.508 113.727 167.477C113.82 167.385 113.866 166.569 113.851 165.03C113.836 162.905 113.82 160.858 113.913 158.81C113.959 157.871 113.913 156.317 113.913 155.054C113.913 154.654 113.866 154.377 113.835 154.5C113.727 154.792 113.696 154.007 113.666 153.099C113.666 152.622 113.666 152.083 113.604 151.883C113.557 151.683 113.542 151.344 113.542 150.928C113.542 150.651 113.542 150.328 113.542 150.005V149.774C113.542 149.774 113.681 149.774 113.743 149.743C113.897 149.743 114.052 149.743 114.191 149.743C114.469 149.743 114.701 149.743 114.886 149.743C115.118 149.743 115.288 149.743 115.396 149.728C115.597 149.697 115.504 149.651 115.072 149.589C114.855 149.543 114.654 149.512 114.469 149.481C114.345 149.451 114.237 149.42 114.175 149.389C114.052 149.327 114.083 149.266 114.484 149.22C114.546 149.22 114.562 149.204 114.546 149.189C114.5 149.158 114.454 149.127 114.33 149.097C115.365 149.143 116.416 149.189 117.451 149.235C117.343 149.235 117.266 149.266 117.173 149.266C117.003 149.281 117.173 149.327 117.59 149.358C118.255 149.42 118.718 149.389 119.166 149.389C119.491 149.389 119.568 149.358 119.537 149.327C120.001 149.358 120.449 149.374 120.912 149.404C121.036 149.404 121.16 149.42 121.283 149.435C123.647 149.589 124.729 149.728 124.837 149.928C124.868 149.974 123.168 150.082 122.628 150.066C122.365 150.066 122.149 150.036 122.18 150.005C122.21 149.989 122.458 149.974 122.442 149.943C122.442 149.882 122.303 149.805 121.268 149.759C120.372 149.712 120.078 149.728 120.263 149.805C120.418 149.866 120.063 149.866 119.506 149.805C118.378 149.697 118.224 149.774 117.946 149.805C117.59 149.851 118.069 149.928 118.796 149.974C120.279 150.066 121.484 150.267 123.215 150.282C123.354 150.282 123.678 150.313 123.848 150.328C125.44 150.497 127.109 150.559 128.824 150.59C129.55 150.605 130.384 150.621 131.033 150.651C133.073 150.759 134.263 150.682 135.623 150.605C136.256 150.574 136.349 150.528 135.715 150.482C135.19 150.451 134.958 150.405 134.804 150.359C134.696 150.328 134.819 150.297 135.113 150.282C135.422 150.267 135.638 150.282 135.885 150.297C136.936 150.344 137.94 150.344 138.868 150.42C139.656 150.482 140.753 150.497 141.417 150.482C142.02 150.467 142.236 150.359 141.881 150.313C141.294 150.236 141.711 150.251 142.159 150.205C142.823 150.159 143.333 150.205 143.936 150.22C144.338 150.22 145.048 150.251 144.894 150.19C144.523 150.051 145.512 150.113 146.3 150.128C146.903 150.128 147.706 150.174 147.845 150.097C151.136 150.113 154.335 150.066 155.896 149.835C155.942 149.835 155.988 149.835 156.035 149.835C156.205 149.805 156.39 149.789 156.575 149.728C156.761 149.682 156.946 149.558 156.962 149.327C156.977 149.266 156.993 149.204 157.008 149.143C157.286 148.111 157.503 147.311 157.688 146.48C157.812 146.018 157.873 145.679 157.812 145.617C157.781 145.587 157.781 145.402 157.812 145.171C157.935 144.386 158.043 143.585 158.121 142.77C158.152 142.554 158.198 142.4 158.229 142.4C158.306 142.369 158.383 141.969 158.399 141.076C158.399 140.522 158.492 140.106 158.522 139.66C158.615 138.582 158.739 137.582 158.646 136.288C158.631 135.95 158.646 135.396 158.708 135.426C158.754 135.457 158.816 135.75 158.831 136.242C158.847 136.781 158.785 136.966 158.77 137.351C158.739 138.12 158.646 138.967 158.677 139.675C158.692 140.337 158.661 140.938 158.584 141.861C158.476 142.8 158.445 143.431 158.538 143.478C158.569 143.478 158.584 143.539 158.6 143.616C158.615 143.739 158.661 143.832 158.569 144.417C158.492 144.909 158.414 145.294 158.352 145.433C158.275 145.633 158.136 146.233 158.074 146.156C158.059 146.125 157.982 146.372 157.92 146.68C157.796 147.28 157.889 147.049 157.92 147.003C158.028 146.849 158.121 146.911 157.827 148.158C157.703 148.619 157.595 149.035 157.503 149.435C157.364 150.343 156.189 150.436 155.556 150.528C154.474 150.667 153.346 150.744 152.187 150.744C151.909 150.744 151.554 150.759 151.507 150.728C151.476 150.698 151.754 150.682 152.033 150.667C152.651 150.636 153.392 150.605 153.64 150.528C153.949 150.436 153.3 150.451 152.589 150.451C151.136 150.451 152.712 150.344 152.156 150.313C151.724 150.297 151.229 150.282 150.704 150.313C150.147 150.344 149.421 150.359 149.159 150.39C148.154 150.528 146.408 150.497 144.94 150.497C144.585 150.497 144.183 150.497 143.828 150.497C143.318 150.497 143.117 150.528 143.101 150.559C143.086 150.605 143.055 150.667 143.596 150.682C145.033 150.713 145.759 150.805 146.779 150.867C146.995 150.867 147.443 150.867 147.397 150.913C147.351 150.944 146.918 150.975 146.594 150.959C144.894 150.898 144.508 150.99 144.075 151.082C143.642 151.159 144.399 151.267 145.435 151.252C147.227 151.221 149.112 151.267 150.827 151.206C151.724 151.175 152.62 151.144 153.501 151.113L154.86 151.036L155.556 150.975L155.926 150.928C156.112 150.898 156.297 150.882 156.467 150.821C157.163 150.713 157.719 150.282 157.889 149.682C157.951 149.42 158.012 149.174 158.074 148.927C158.105 148.773 158.136 148.619 158.167 148.465C158.352 147.557 158.538 146.603 158.708 145.741C159.187 143.431 159.249 141.292 159.326 139.106C159.341 138.49 159.326 138.197 159.249 138.659C159.187 139.075 159.125 139.121 159.156 138.474C159.171 137.197 159.187 135.919 159.218 134.626C159.218 134.179 159.264 133.671 159.295 133.995C159.357 134.503 159.434 134.518 159.496 135.072C159.496 135.072 159.496 135.072 159.496 135.057C159.542 134.595 159.589 134.056 159.635 134.534C159.697 135.088 159.635 135.55 159.619 136.042C159.589 136.781 159.619 136.997 159.666 137.043C159.712 137.089 159.759 136.72 159.774 136.15C159.805 135.349 159.82 135.057 159.898 134.764C159.975 134.472 160.021 133.425 159.99 132.286V132.271ZM114.036 1.11074C115.396 1.12613 116.648 1.11073 117.807 1.09534C118.517 1.07994 118.888 1.12613 119.166 1.18771C119.321 1.21849 119.475 1.26467 119.954 1.24928C120.294 1.24928 120.14 1.21849 120.14 1.18771C120.14 1.15692 120.063 1.11073 120.588 1.12613C121.098 1.12613 121.7 1.15691 122.025 1.2031C122.303 1.23389 121.886 1.24928 121.639 1.26468C121.361 1.28007 121.237 1.31086 121.175 1.34165C121.021 1.41862 120.372 1.44941 119.414 1.38783C118.347 1.32625 117.544 1.34165 116.679 1.37244C115.504 1.40323 114.299 1.35704 113.434 1.24928C113.248 1.21849 113.109 1.2031 113.017 1.18771C113.047 1.12613 113.542 1.11074 114.036 1.11074ZM0.557585 32.7923C0.511229 32.8693 0.495764 32.2997 0.495764 31.961C0.495764 31.2529 0.511221 30.8372 0.573028 31.0373C0.603932 31.1451 0.665744 30.9758 0.650293 31.6223C0.650293 32.1303 0.603941 32.6999 0.557585 32.7769V32.7923ZM1.29927 58.8549C1.22201 59.3937 1.1911 60.225 1.17565 61.2718C1.17565 61.6875 1.17565 62.0108 1.1293 61.8568C1.09839 61.7337 1.0675 61.472 1.0675 60.8716C1.0984 60.0403 1.08295 58.9473 1.0675 57.8389C1.0675 57.3001 1.11385 57.0846 1.16021 57.1615C1.22202 57.2539 1.28381 57.7465 1.31471 58.3931C1.31471 58.6394 1.31473 58.7626 1.28383 58.8703L1.29927 58.8549ZM0.387613 139.706C0.387613 139.706 0.263986 139.306 0.279438 138.567C0.279438 138.321 0.31034 138.197 0.325792 138.228C0.356696 138.444 0.433967 138.336 0.433967 139.09C0.433967 139.49 0.433969 139.721 0.387613 139.706ZM45.3218 159.934C45.2754 160.581 45.1672 161.273 45.1054 161.15C45.0745 161.073 45.0745 160.858 45.1054 160.35C45.1672 159.734 45.229 159.134 45.3063 159.149C45.3526 159.149 45.3527 159.395 45.3218 159.95V159.934ZM95.1696 184.888C95.1696 185.258 95.1387 185.535 95.0923 185.443C95.046 185.335 95.0614 184.935 95.0614 184.55C95.0614 183.395 95.1078 182.271 95.0769 181.04C95.0769 180.547 95.0769 179.731 95.1387 179.762C95.185 179.777 95.2005 180.378 95.2005 180.932C95.2005 181.225 95.2005 181.532 95.2005 182.056C95.2005 182.903 95.185 183.888 95.1541 184.888H95.1696ZM95.6641 168.586C95.6641 168.139 95.5713 167.616 95.6331 167.262C95.664 167.077 95.7258 166.939 95.7722 167.046C95.7722 168.37 95.7722 169.71 95.7722 171.034C95.6949 171.449 95.6486 171.449 95.6795 170.218C95.6795 169.571 95.6795 169.094 95.6641 168.586ZM88.757 149.635C88.4789 149.605 88.1699 149.574 87.8454 149.528C88.1544 149.558 88.4635 149.589 88.757 149.635ZM156.251 74.2647C156.251 74.2647 156.251 74.2954 156.251 74.3108C156.251 73.9568 156.236 73.5873 156.22 73.2178C156.251 73.5103 156.266 73.849 156.251 74.2647ZM52.8623 0.818239C52.4142 0.818239 51.9661 0.818239 51.5334 0.818239C51.6879 0.787451 51.7961 0.756664 52.3833 0.772058C52.6614 0.772058 52.8159 0.802845 52.8777 0.818239H52.8623ZM45.0591 0.24865C45.739 0.24865 46.4343 0.248649 46.3879 0.325621C46.357 0.387198 45.8317 0.3872 45.2754 0.3872C44.5801 0.3872 43.9002 0.387201 43.9002 0.310229C43.9002 0.248652 44.5182 0.24865 45.0436 0.24865H45.0591ZM13.3363 0.802848C14.0626 0.802848 14.248 0.864425 14.6034 0.910608C14.8197 0.941396 14.4488 0.972184 14.0625 0.987578C13.3054 1.01837 12.301 0.98758 12.3628 0.941397C12.4246 0.895214 12.6873 0.849031 13.3518 0.802848H13.3363ZM1.59286 30.6063C1.4847 30.7756 1.36109 30.437 1.28383 31.8378C1.25292 32.2997 1.22201 32.2843 1.22201 31.4838C1.22201 30.7295 1.22202 30.0983 1.14476 29.5595C1.0366 28.759 1.00568 27.3119 1.08294 26.1881C1.1293 25.403 1.1293 24.4332 1.08294 24.0021C0.974781 23.1862 0.95934 21.2157 0.804821 21.0926C0.789369 21.0926 0.773919 20.8617 0.758467 20.6923C0.743015 20.3998 0.712105 20.0766 0.727557 19.6763C0.727557 19.2453 0.773917 19.2607 0.804821 19.2299C0.866629 19.1683 0.912985 19.3838 0.974793 19.6917C1.02115 19.938 1.06749 20.1689 1.08294 19.4608C1.08294 18.7988 1.16021 18.2754 1.11385 17.4441C1.08295 16.9515 1.03658 16.3665 1.00568 17.2132C0.974776 17.7828 0.928433 17.906 0.897529 18.2138C0.866625 18.4909 0.83571 18.845 0.789354 18.1831C0.742998 17.4749 0.789361 17.2132 0.820264 16.8284C0.990235 15.3043 0.990235 14.4268 0.820264 12.5487C0.727553 11.5943 0.681205 10.3781 0.634849 9.06961C0.603945 7.992 0.665743 7.65333 0.696646 7.05295C0.696646 6.85282 0.696646 6.46796 0.696646 6.20626C0.681194 5.2672 0.634844 4.4821 0.773911 3.98948C0.820266 3.80474 0.912982 3.112 1.0675 2.71174C1.25292 2.15755 1.65468 1.68032 1.96371 1.41862C2.24185 1.15691 2.64358 0.910606 3.2462 0.710479C3.70976 0.556536 4.25058 0.49496 4.40509 0.525749C4.80684 0.602721 5.5949 0.602721 6.92376 0.525749C8.14446 0.464172 8.79344 0.510351 8.34533 0.618111C7.75816 0.772055 7.32552 0.926 6.13572 1.06455C5.76488 1.11073 5.53309 1.14152 5.88849 1.18771C6.12027 1.21849 6.1048 1.24928 5.56399 1.26468C5.25495 1.26468 4.83777 1.26468 4.83777 1.26468C4.82232 1.14152 3.57069 1.17231 2.59722 1.68032C2.05641 1.95742 1.65466 2.40386 1.46924 2.85029C1.28382 3.29673 1.25292 3.69698 1.28383 4.00487C1.29928 4.34354 1.33019 4.80537 1.36109 5.29799C1.43835 9.085 1.50014 12.8566 1.56195 16.6282C1.56195 16.9977 1.56195 17.4133 1.56195 18.0907C1.56195 18.414 1.5774 18.8142 1.6083 19.0298C1.6083 20.015 1.63921 21.0002 1.63921 21.9855C1.59286 21.185 1.53106 20.4768 1.4538 19.8918C1.40744 19.4454 1.34563 19.6763 1.33018 20.5384C1.31473 22.1856 1.26836 23.8636 1.39198 25.4646C1.42288 25.8956 1.4229 26.4036 1.40744 26.9424C1.37654 28.7744 1.39199 28.7898 1.54651 28.3433C1.54651 28.3125 1.57742 28.2818 1.57742 28.2356C1.65468 27.8969 1.68556 28.4665 1.70101 29.2208C1.70101 29.8058 1.67012 30.1445 1.67012 30.5909C1.70103 30.6525 1.73194 30.7141 1.74739 30.7602C1.74739 32.1303 1.77829 33.5004 1.79374 34.8705C1.67013 33.8083 1.65467 32.2689 1.67012 30.6217L1.59286 30.6063ZM1.8401 48.0943C1.8401 48.5099 1.8401 48.941 1.8401 49.3566C1.8401 49.3258 1.8401 49.3104 1.8401 49.2796C1.80919 49.0641 1.80919 48.787 1.80919 48.4791C1.80919 48.279 1.82464 48.0019 1.8401 48.0943ZM1.85554 51.0654C1.85554 51.6042 1.85554 52.143 1.85554 52.6818C1.80918 52.5125 1.74739 52.6048 1.74739 51.8813C1.74739 51.2193 1.79374 51.1424 1.8401 51.0808L1.85554 51.0654ZM1.46924 48.1712C1.46924 48.1712 1.54651 48.5099 1.54651 49.0333C1.54651 49.6491 1.53105 50.0494 1.46924 50.0032C1.42289 49.957 1.40744 49.4644 1.40744 49.0025C1.40744 48.4637 1.40743 48.1712 1.46924 48.1712ZM1.46924 55.8838C1.46924 55.5605 1.46924 55.1757 1.46924 54.8062C1.46924 54.1135 1.4538 53.4977 1.40744 52.9589C1.39199 52.7588 1.36109 52.4663 1.40744 52.2354C1.4229 52.0814 1.45378 52.1122 1.48468 52.3123C1.5774 53.2668 1.57741 54.6061 1.62377 55.776C1.62377 56.0839 1.62377 56.4842 1.57742 56.5304C1.53106 56.5766 1.50014 56.3302 1.48468 55.8684L1.46924 55.8838ZM1.56195 61.6875C1.56195 61.1949 1.63922 60.1019 1.67012 60.225C1.73193 60.4098 1.71647 61.0409 1.73192 61.5181C1.74737 62.2417 1.70101 62.4264 1.65466 62.3956C1.6083 62.3648 1.56196 62.3494 1.54651 61.6875H1.56195ZM1.68557 72.6944C1.65466 72.833 1.63921 72.3712 1.63921 71.9247C1.65467 71.1396 1.70102 71.0318 1.76283 71.078C1.85554 71.1396 1.91734 70.7855 1.94825 69.9235C1.94825 70.647 1.94825 71.3859 1.94825 72.1094C1.87099 72.7868 1.76284 72.248 1.67012 72.6944H1.68557ZM2.30366 119.262C2.28821 119.339 2.27273 119.17 2.25728 118.924C2.25728 118.477 2.25729 118.246 2.28819 118.123C2.28819 118.508 2.28819 118.877 2.28819 119.262H2.30366ZM0.681203 135.334C0.773914 134.534 0.835706 134.457 0.882062 134.595C0.835706 135.118 0.789371 135.627 0.758467 136.135C0.727563 136.181 0.712107 136.181 0.681203 136.165C0.634847 136.15 0.634847 135.919 0.681203 135.319V135.334ZM23.1483 149.635C22.8083 149.62 22.592 149.589 22.6075 149.558C22.6693 149.466 23.4727 149.543 24.1372 149.574C24.4153 149.574 25.1261 149.574 24.9561 149.62C24.678 149.666 23.9672 149.682 23.1483 149.635ZM27.5984 149.281C28.201 149.281 28.7882 149.266 29.3908 149.251C29.19 149.297 28.8191 149.343 28.371 149.358C27.8302 149.358 27.6757 149.327 27.6139 149.297L27.5984 149.281ZM32.234 149.635C31.6623 149.666 31.3841 149.651 31.4768 149.605C31.585 149.558 31.3996 149.497 32.3267 149.466C32.7902 149.466 33.2229 149.466 33.2383 149.497C33.2538 149.558 32.7593 149.589 32.2185 149.62L32.234 149.635ZM33.9182 149.327C33.2229 149.358 32.6666 149.297 32.7439 149.251C32.8366 149.189 32.7439 149.158 32.5585 149.127C33.192 149.112 33.841 149.081 34.4745 149.066C34.2118 149.097 34.2118 149.127 35.3244 149.127C35.3862 149.127 35.4789 149.143 35.4325 149.158C34.9535 149.22 34.5363 149.297 33.9337 149.327H33.9182ZM45.7235 158.795C45.6771 158.549 45.7544 157.579 45.7853 156.948C45.8471 156.27 45.9089 155.732 45.9707 155.547C46.048 155.316 45.9707 156.147 45.9707 156.486C45.9707 156.547 45.9707 156.609 45.9707 156.671C45.9398 157.24 45.9707 157.794 45.8935 158.379C45.8317 158.764 45.7544 158.964 45.708 158.795H45.7235ZM49.1693 198.697C48.7366 198.666 48.3194 198.636 48.304 198.605H48.3349C48.9838 198.636 49.7101 198.697 50.4827 198.759C50.4209 198.82 49.6019 198.728 49.1693 198.713V198.697ZM64.2349 186.643C64.2967 185.997 64.3739 186.674 64.4512 186.412C64.513 186.182 64.5594 187.121 64.513 187.89C64.4821 188.445 64.4666 189.214 64.3585 189.568C64.2194 190.107 64.204 190.169 64.2503 188.645C64.2503 188.368 64.2812 188.06 64.2503 187.936C64.2194 187.798 64.1885 187.875 64.1576 188.244C64.1576 188.383 64.1576 188.568 64.1422 188.722C64.1731 187.552 64.1576 186.397 64.1422 185.319C64.1422 185.504 64.1576 185.781 64.1731 186.058C64.1731 186.767 64.204 187.121 64.2503 186.643H64.2349ZM63.4932 157.009C63.4623 156.871 63.4159 156.517 63.3696 156.286C63.3387 156.07 63.3078 156.055 63.3078 156.286C63.3078 156.455 63.3078 156.655 63.3232 156.871C63.1996 155.331 63.1378 153.776 63.3541 152.268C63.3232 152.591 63.3541 152.776 63.3232 153.176C63.3232 153.253 63.3232 153.33 63.3078 153.392C63.1687 154.869 63.3078 154.946 63.385 155.193C63.4005 155.254 63.4314 155.331 63.4468 155.408C63.5086 155.593 63.5395 155.901 63.5704 156.547C63.5859 157.086 63.5704 157.271 63.4932 157.04V157.009ZM64.1885 158.78C64.204 158.98 64.2349 159.211 64.2503 159.426C64.2812 159.826 64.343 160.411 64.2967 160.504C64.2658 160.565 64.2194 160.104 64.1885 159.796C64.1576 159.596 64.1422 159.395 64.1113 159.211C64.034 158.579 63.9876 157.964 64.0185 157.748C64.0649 157.456 64.1422 158.302 64.1885 158.795V158.78ZM77.678 149.435C76.8745 149.528 76.1483 149.605 75.2366 149.605C74.9276 149.605 74.464 149.635 74.2168 149.682C73.5987 149.789 72.6871 149.912 71.8527 150.02C71.3119 150.097 71.3273 150.19 70.4774 150.251C69.9212 150.297 69.9521 150.205 69.7666 150.174C69.7048 150.174 69.7203 150.143 69.6585 150.128C69.4731 150.097 68.9786 150.143 68.7159 150.22C68.1597 150.374 67.3098 150.513 66.4136 150.667C65.9655 150.744 65.4865 150.821 65.0384 150.898C64.6675 150.975 64.2967 151.036 63.9567 151.098C63.8177 151.667 63.7713 151.898 63.6786 152.16C63.6013 152.36 63.5704 152.299 63.5395 152.237C63.4932 152.16 63.6168 151.283 63.5086 151.667C63.4623 151.837 63.4314 151.96 63.4159 152.068C63.4777 151.637 63.555 151.206 63.6786 150.79C68.2524 150.143 73.7223 149.481 79.1923 149.297C78.6979 149.327 78.1725 149.374 77.7089 149.42L77.678 149.435ZM84.8632 149.451C84.3532 149.42 83.9515 149.312 83.1326 149.312C82.4218 149.312 81.9428 149.297 81.7573 149.266C83.2716 149.266 84.7859 149.312 86.2693 149.404C85.6049 149.404 85.404 149.481 84.8632 149.451ZM95.4323 185.058C95.4632 184.473 95.5095 183.98 95.5713 183.503C95.6022 183.164 95.6486 182.918 95.6486 182.348C95.6486 180.994 95.7104 180.255 95.7722 179.654C95.7722 183.241 95.7722 186.828 95.7722 190.415C95.6949 189.245 95.6177 187.967 95.4941 187.413C95.3859 186.967 95.3705 186.12 95.4323 185.058ZM114.376 197.958C114.376 197.958 114.376 197.727 114.376 197.604C114.33 197.112 114.253 196.48 114.237 196.234C114.206 195.649 114.098 194.556 114.206 194.648C114.299 194.756 114.423 195.48 114.5 196.665C114.531 197.05 114.546 197.527 114.531 197.897C114.531 197.943 114.531 197.989 114.531 198.035L114.407 198.081C114.33 198.112 114.253 198.128 114.191 198.158C114.067 198.205 113.975 198.22 113.928 198.22C113.913 198.22 113.99 198.158 114.129 198.081C114.206 198.051 114.284 198.004 114.376 197.958ZM113.557 188.953C113.573 189.029 113.588 189.368 113.604 189.522C113.619 189.922 113.635 190.276 113.65 190.6C113.619 189.984 113.573 189.368 113.526 188.768C113.526 188.829 113.542 188.906 113.557 188.953ZM113.125 155.716C113.094 155.593 113.017 155.701 113.032 154.792C113.063 153.884 113.063 153.022 112.97 153.422C112.877 153.884 112.847 153.561 112.831 152.714C112.831 152.437 112.8 152.299 112.785 152.283C112.8 151.39 112.785 150.482 112.816 149.589C112.847 149.897 112.893 149.882 112.939 149.62C112.939 149.558 112.97 149.497 112.97 149.435C113.047 149.127 113.094 149.435 113.14 149.959C113.156 150.22 113.171 150.405 113.171 150.682C113.171 151.005 113.171 151.344 113.125 151.729C113.078 152.36 113.094 152.853 113.125 153.176C113.14 153.315 113.171 153.361 113.187 153.561C113.202 154.115 113.217 154.762 113.217 155.316C113.217 155.855 113.14 155.824 113.109 155.685L113.125 155.716ZM126.676 149.728C126.259 149.712 126.012 149.666 125.795 149.635C125.78 149.635 125.764 149.635 125.749 149.635C126.243 149.666 126.722 149.666 127.217 149.697C127.186 149.728 127.109 149.759 126.676 149.728ZM158.445 136.504C158.445 136.689 158.445 136.827 158.445 136.935C158.445 136.673 158.445 136.412 158.445 136.135C158.445 136.258 158.445 136.381 158.445 136.489V136.504ZM158.831 133.163C158.754 132.055 158.646 131.87 158.553 130.793C158.507 130.269 158.461 129.854 158.461 129.207C158.461 128.484 158.507 128.314 158.553 128.314C158.615 128.268 158.677 128.545 158.739 128.838C158.801 129.145 158.878 129.469 158.816 130.238C158.785 130.623 158.816 131.054 158.862 131.424C158.909 131.993 158.924 132.532 158.893 133.071C158.878 133.379 158.847 133.61 158.816 133.179L158.831 133.163Z" fill="#B496C8"/>
<path d="M140.83 150.62C139.965 150.559 139.439 150.59 139.517 150.651C139.718 150.851 138.806 150.882 136.643 150.928C136.565 150.928 136.504 150.928 136.426 150.928C135.298 150.974 135.267 151.02 136.303 151.097C136.967 151.144 137.678 151.144 138.373 151.128C139.177 151.097 140.011 151.113 140.923 151.128C141.834 151.128 142.576 151.113 142.468 151.036C142.344 150.944 141.85 150.851 142.514 150.774C142.437 150.667 141.386 150.682 140.815 150.636L140.83 150.62Z" fill="#B496C8"/>
<path d="M1.16017 108.624C1.22198 108.855 1.29923 108.855 1.29923 107.839C1.29923 106.777 1.34558 106.839 1.39194 107.131C1.53101 107.224 1.56193 106.808 1.53103 105.068C1.53103 104.991 1.53103 104.914 1.53103 104.853C1.50012 104.006 1.48466 102.621 1.42285 102.405C1.34559 102.19 1.36105 103.59 1.33014 104.175C1.31469 104.514 1.29923 105.053 1.25288 104.868C1.20652 104.714 1.19108 104.237 1.19108 103.775C1.19108 102.805 1.19108 101.835 1.19108 100.881C1.19108 100.573 1.19107 100.265 1.16017 100.127C1.12927 99.9728 1.1138 100.219 1.09835 100.481C1.06745 101.127 1.06745 101.851 1.08291 102.621C1.11381 104.098 1.12926 105.561 1.08291 106.993C1.06745 107.716 1.08291 108.363 1.16017 108.609V108.624Z" fill="#B496C8"/>
<path d="M65.6409 0.617544C67.047 0.586775 68.9012 0.402164 68.8549 0.279087C68.8239 0.202164 68.4995 0.140625 67.5569 0.140625C67.0006 0.140625 66.5371 0.140626 66.2744 0.171395C65.44 0.279087 64.4356 0.386779 64.4665 0.52524C64.482 0.602163 64.791 0.632929 65.6409 0.617544Z" fill="#B496C8"/>
<path d="M113.434 175.205C113.48 175.621 113.511 175.559 113.541 175.282C113.572 174.974 113.603 174.805 113.634 174.62C113.664 174.451 113.664 174.035 113.649 173.373C113.618 172.957 113.572 172.388 113.526 171.911C113.449 171.11 113.403 171.264 113.403 172.311C113.403 172.957 113.434 173.665 113.403 174.22C113.403 174.512 113.403 174.882 113.418 175.22L113.434 175.205Z" fill="#B496C8"/>
<path d="M154.057 23.0937C154.088 22.8936 154.057 22.4626 154.026 21.9238C153.995 21.4619 153.949 21.1695 153.902 21.1079C153.825 20.9847 153.686 19.9533 153.655 20.4151C153.609 20.9539 153.686 21.816 153.872 22.7705C153.964 23.2785 154.026 23.3401 154.057 23.0783V23.0937Z" fill="#B496C8"/>
<path d="M64.9139 167.262C64.9139 166.584 64.8062 165.63 64.7446 165.615C64.6831 165.599 64.6985 166.215 64.6985 166.769C64.7139 167.585 64.8369 169.479 64.9139 169.956C64.9139 169.987 64.9139 170.002 64.9293 170.033C64.9293 169.94 64.9293 169.817 64.9293 169.771C64.8677 168.801 64.8985 168.078 64.8831 167.262H64.9139Z" fill="#B496C8"/>
<path d="M156.05 150.219C156.282 150.173 156.56 150.112 156.823 149.989C156.946 149.927 157.054 149.819 157.132 149.696C157.178 149.558 157.209 149.419 157.255 149.296C157.363 148.727 157.41 148.435 157.394 148.419C157.363 148.419 157.255 148.727 157.101 149.219C157.024 149.404 156.993 149.681 156.761 149.758C156.56 149.866 156.344 149.896 156.158 149.942C155.123 150.127 155.247 150.143 155.2 150.219C155.401 150.219 155.015 150.358 156.035 150.219H156.05Z" fill="#B496C8"/>
<path d="M45.8153 152.636C45.8307 152.406 45.8307 151.99 45.8153 151.698C45.8153 151.39 45.7538 151.267 45.723 151.298C45.6769 151.298 45.6769 151.467 45.6154 151.99C45.5538 152.744 45.5692 153.59 45.6307 153.575C45.6769 153.575 45.7538 153.113 45.8 152.636H45.8153Z" fill="#B496C8"/>
<path d="M138.126 1.48002C138.126 1.48002 137.709 1.37233 136.967 1.35695C136.241 1.34156 135.994 1.37233 135.947 1.43387C136.025 1.48002 136.287 1.54156 136.998 1.55694C137.832 1.58771 138.157 1.55694 138.111 1.48002H138.126Z" fill="#B496C8"/>
<path d="M65.0532 172.403C65.0532 171.803 65.0071 171.279 64.9609 171.387C64.884 171.541 64.9148 172.449 64.8994 173.127C64.8994 173.527 64.9148 173.866 64.9609 173.835C65.0225 173.758 65.0686 173.219 65.0686 172.403H65.0532Z" fill="#B496C8"/>
<path d="M38.2293 0.325457C38.2293 0.325457 38.3065 0.402379 38.8937 0.402379C39.4345 0.402379 39.6045 0.356226 39.6354 0.325457C39.6663 0.279303 39.5427 0.248535 38.94 0.248535C38.3992 0.248535 38.1365 0.279303 38.2293 0.325457Z" fill="#B496C8"/>
<path d="M154.937 36.5168C154.937 36.5168 154.983 36.1321 154.937 35.6706C154.891 35.1014 154.86 34.9783 154.814 35.0245C154.783 35.0706 154.752 35.2091 154.814 35.7937C154.845 36.2245 154.891 36.5322 154.937 36.5168Z" fill="#B496C8"/>
<path d="M64.5441 170.879C64.5441 171.556 64.6056 171.633 64.6364 171.802C64.6825 171.848 64.6979 171.618 64.6825 171.202C64.6825 170.771 64.6518 170.294 64.6056 170.248C64.5748 170.202 64.5287 170.418 64.5441 170.894V170.879Z" fill="#B496C8"/>
<path d="M84.5542 77.8361C84.4615 77.0972 84.3997 76.3429 84.3224 75.6039C84.1834 74.0491 82.3291 72.9715 81.1084 72.9407C80.6449 72.9407 80.1041 72.8483 79.7178 73.0485C79.2851 73.264 78.8834 73.2794 78.4507 73.341C78.2344 73.3718 78.049 73.5565 77.8481 73.6643C77.2455 74.0029 77.539 74.8804 76.921 75.1883C76.751 76.3429 76.3183 77.4974 76.9828 78.652C77.0909 78.8367 77.0137 79.0985 77.0291 79.2832C77.8481 80.0529 78.7907 80.1299 79.7023 80.3454C80.8612 80.6225 81.9428 80.4224 82.9627 80.0067C83.8898 79.6219 84.7087 79.0369 84.5542 77.8053V77.8361ZM82.6845 77.7284C82.2364 78.4673 81.4947 78.6982 80.7685 78.7906C79.8723 78.7444 79.2079 78.3749 78.7907 77.713C78.6207 77.4513 78.528 76.9894 78.6361 76.7123C78.8216 76.2813 79.1769 75.9118 79.5014 75.5731C79.6869 75.3884 79.9804 75.3114 80.2277 75.1883C80.8148 74.8804 81.7265 75.0343 82.1746 75.527C82.6536 76.0504 82.9627 77.2665 82.6845 77.7284Z" fill="white"/>
<path d="M128.206 57.6697C129.349 57.839 130.694 58.3009 131.296 58.5164C133.089 59.1629 135.685 60.8563 134.943 63.0423C134.727 63.6889 134.217 64.2892 133.537 64.4278C133.15 64.5048 132.749 64.4278 132.362 64.3662C131.621 64.2277 130.848 64.32 130.106 64.2277C129.179 64.1045 128.206 63.7196 127.294 63.4733C127.001 63.3964 126.676 63.2886 126.506 63.0423C126.197 62.5805 126.336 61.6106 126.383 61.0872C126.429 60.3021 126.352 59.517 126.475 58.7473C126.645 57.5927 127.109 57.5157 128.206 57.6851V57.6697Z" fill="#B496C8"/>
<path d="M114.593 58.8395C115.891 58.116 117.112 57.9004 118.564 57.8389C118.703 57.8389 118.842 57.8389 118.966 57.885C119.151 57.962 119.259 58.1468 119.337 58.3315C119.692 59.1012 119.831 59.9325 119.893 60.7792C119.939 61.5643 120.078 62.488 119.924 63.2577C119.908 63.3346 119.877 63.427 119.831 63.4886C119.769 63.5656 119.661 63.6117 119.568 63.6425C118.379 64.1044 117.127 64.4123 115.86 64.5662C115.381 64.6278 114.608 64.7971 114.176 64.597C113.774 64.4123 113.496 63.8581 113.279 63.504C112.77 62.5957 112.368 61.1333 113.017 60.1942C113.388 59.64 113.944 59.1936 114.593 58.8395Z" fill="#B496C8"/>
<path d="M41.6131 59.5167C41.6749 58.8085 41.8295 58.2389 42.1385 58.008C42.5094 57.7463 42.9729 57.7309 43.4056 57.7463C46.5268 57.7925 51.1779 60.6405 47.4231 64.4737C46.9904 64.9201 46.4496 65.2126 45.9088 65.4435C44.5335 64.7046 42.942 64.1658 41.6595 63.8117C41.6595 63.627 41.6595 63.4422 41.6595 63.2729C41.6595 62.5648 41.505 60.8252 41.6131 59.5167Z" fill="#B496C8"/>
<path d="M28.3864 59.2401C30.1325 58.3626 32.9602 57.2388 34.5517 57.8084C35.8033 58.2548 35.5098 58.5781 35.5407 60.0098C35.5407 60.2715 35.5716 63.1656 35.5407 63.1656C34.5363 63.2426 33.5473 63.3504 32.5584 63.5197C31.1214 63.766 29.6998 64.1201 28.3246 64.5511C27.8611 64.6897 26.0686 62.6422 25.9759 62.2112C25.7441 60.995 26.6867 60.1945 27.6602 59.6403C27.8611 59.5172 28.1083 59.394 28.3864 59.2555V59.2401Z" fill="#B496C8"/>
<path d="M128.206 57.6697C129.349 57.839 130.694 58.3009 131.296 58.5164C133.089 59.1629 135.685 60.8563 134.943 63.0423C134.727 63.6889 134.217 64.2892 133.537 64.4278C133.15 64.5048 132.749 64.4278 132.362 64.3662C131.621 64.2277 130.848 64.32 130.106 64.2277C129.179 64.1045 128.206 63.7196 127.294 63.4733C127.001 63.3964 126.676 63.2886 126.506 63.0423C126.197 62.5805 126.336 61.6106 126.383 61.0872C126.429 60.3021 126.352 59.517 126.475 58.7473C126.645 57.5927 127.109 57.5157 128.206 57.6851V57.6697Z" fill="white"/>
<path d="M114.593 58.8395C115.891 58.116 117.112 57.9004 118.564 57.8389C118.703 57.8389 118.842 57.8389 118.966 57.885C119.151 57.962 119.259 58.1468 119.337 58.3315C119.692 59.1012 119.831 59.9325 119.893 60.7792C119.939 61.5643 120.078 62.488 119.924 63.2577C119.908 63.3346 119.877 63.427 119.831 63.4886C119.769 63.5656 119.661 63.6117 119.568 63.6425C118.379 64.1044 117.127 64.4123 115.86 64.5662C115.381 64.6278 114.608 64.7971 114.176 64.597C113.774 64.4123 113.496 63.8581 113.279 63.504C112.77 62.5957 112.368 61.1333 113.017 60.1942C113.388 59.64 113.944 59.1936 114.593 58.8395Z" fill="white"/>
<path d="M41.6131 59.5167C41.6749 58.8085 41.8295 58.2389 42.1385 58.008C42.5094 57.7463 42.9729 57.7309 43.4056 57.7463C46.5268 57.7925 51.1779 60.6405 47.4231 64.4737C46.9904 64.9201 46.4496 65.2126 45.9088 65.4435C44.5335 64.7046 42.942 64.1658 41.6595 63.8117C41.6595 63.627 41.6595 63.4422 41.6595 63.2729C41.6595 62.5648 41.505 60.8252 41.6131 59.5167Z" fill="white"/>
<path d="M28.3864 59.2401C30.1325 58.3626 32.9602 57.2388 34.5517 57.8084C35.8033 58.2548 35.5098 58.5781 35.5407 60.0098C35.5407 60.2715 35.5716 63.1656 35.5407 63.1656C34.5363 63.2426 33.5473 63.3504 32.5584 63.5197C31.1214 63.766 29.6998 64.1201 28.3246 64.5511C27.8611 64.6897 26.0686 62.6422 25.9759 62.2112C25.7441 60.995 26.6867 60.1945 27.6602 59.6403C27.8611 59.5172 28.1083 59.394 28.3864 59.2555V59.2401Z" fill="white"/>
<path d="M46.7432 94.4158C48.2884 95.555 49.8026 96.6326 51.6878 97.156C57.0187 98.6184 61.9478 101.005 67.4333 102.005C72.5478 102.944 77.5852 103.421 82.8079 103.468C85.1875 103.498 87.5671 103.344 89.9158 103.006C90.7965 102.883 91.6618 102.713 92.5426 102.529C100.176 100.897 107.5 97.7256 113.82 93.1534C117.018 90.8443 119.97 88.1811 122.55 85.1945C124.93 82.4544 126.769 77.5897 131.033 77.8515C131.42 77.8822 131.821 77.9438 132.099 78.2055C133.274 79.2985 131.528 81.1766 130.925 82.0387C127.495 86.8571 123.632 91.9527 118.996 95.3548C115.86 97.6486 112.537 99.6806 109.107 101.497C105.677 103.314 102.262 104.407 98.507 105.438C83.5341 109.579 60.8507 107.732 44.8271 98.3105C40.0216 95.4934 35.2933 92.1682 31.3376 88.2272C30.1787 87.0727 27.9845 86.0566 28.9117 84.0554C29.916 81.8694 31.8012 82.947 33.0837 83.9938C34.9997 85.5486 36.9467 87.0727 38.909 88.5813C41.1187 90.2747 43.3747 91.9527 45.6306 93.5845C46.0015 93.8616 46.3723 94.1233 46.7277 94.4004L46.7432 94.4158Z" fill="white"/>
</svg>
