<svg xmlns="http://www.w3.org/2000/svg" width="64" height="64" viewBox="0 0 64 64" fill="none">
  <path fill-rule="evenodd" clip-rule="evenodd" d="M32 0C14.3269 0 0 14.3269 0 32C0 49.6731 14.3269 64 32 64C49.6731 64 64 49.6731 64 32C64 14.3269 49.6731 0 32 0ZM38.2365 16C38.2365 16.4755 38.2809 16.9438 38.3627 17.397C38.7562 19.4921 39.9961 21.2901 41.7184 22.4118C42.921 23.1994 44.3463 23.6527 45.8829 23.6527L45.8827 24.8785V29.1506C43.032 29.1506 40.3893 28.2368 38.2363 26.6914V37.8732C38.2363 43.4529 33.6932 48 28.1182 48C25.9654 48 23.9609 47.3163 22.3203 46.1647C19.7073 44.3295 18 41.2982 18 37.8732C18 32.286 22.5358 27.7465 28.1108 27.7538C28.5785 27.7538 29.0313 27.791 29.4767 27.8505V29.1506L29.4604 29.1584L29.4767 29.1581V33.4673C29.0461 33.3336 28.5859 33.2519 28.1108 33.2519C25.5645 33.2519 23.4933 35.3248 23.4933 37.8732C23.4933 39.649 24.5029 41.1869 25.9728 41.967C25.9865 41.9858 26.0004 42.0045 26.0144 42.0231L26.0391 42.0556C26.0222 42.0229 26.0026 41.9909 25.9803 41.9596C26.6261 42.3013 27.3536 42.4945 28.1257 42.4945C30.6124 42.4945 32.6466 40.5108 32.7356 38.0441L32.743 16H38.2365Z" fill="black"/>
</svg>