<svg width="17" height="14" viewBox="0 0 17 14" fill="none" xmlns="http://www.w3.org/2000/svg">
<path d="M14.5876 3.17106C15.1257 3.05705 15.6789 3.11049 16.1664 3.46321C16.7964 3.91924 17.1358 4.73511 16.8977 5.46726C16.7927 5.79148 16.6352 6.10678 16.397 6.35974C16.0802 6.69998 15.6414 6.91197 15.2157 7.11683C15.6264 7.19699 16.0126 7.32525 16.3952 7.48557C16.7477 7.63521 16.8564 7.94873 16.9333 8.30145C17.0758 8.94275 16.999 9.64817 16.6146 10.1915C16.352 10.5638 15.932 10.8453 15.467 10.9397C15.0395 11.027 14.4769 11.0448 14.0475 10.9664C14.0831 11.2122 14.1432 11.4777 14.16 11.7217C14.175 11.9337 14.1507 12.1475 14.0944 12.3523C13.9875 12.7389 13.7625 13.1005 13.4512 13.3713C12.7162 14.0072 11.548 14.2085 10.676 13.7525C9.9035 13.3499 9.22846 12.7799 8.71467 12.1011C8.53091 12.6694 7.88962 13.5369 7.26145 13.7062C6.15326 14.0054 4.39814 13.6171 4.02687 12.4307C3.90123 12.0317 4.03062 11.6059 4.16 11.2087C3.20744 11.1962 2.03736 11.6166 1.21793 10.9717C0.992918 10.7954 0.829782 10.5549 0.713525 10.3002C0.190366 9.14939 0.649772 7.50873 1.89298 6.9565C2.00361 6.9084 2.38426 6.82112 2.42176 6.71067C2.42364 6.70355 2.04299 6.68217 2.02236 6.68217C1.84235 6.67861 1.66421 6.65189 1.4917 6.60201C1.25918 6.53609 1.06605 6.4969 0.861661 6.35618C0.6854 6.23504 0.537266 6.08184 0.417258 5.91083C0.171617 5.56168 0.0441065 5.14483 0.00472893 4.72799C-0.055275 4.09203 0.456636 3.0713 1.48983 2.85397C1.65859 2.81834 1.82547 2.76847 1.99798 2.75243C2.16862 2.73462 2.34488 2.74887 2.5399 2.74887C2.87554 1.22222 3.78873 0.178331 5.49321 0.016225C6.10263 -0.0425608 6.71954 0.0571968 7.25958 0.335093C7.83899 0.632584 8.20651 1.08506 8.60029 1.56781C8.60404 1.57316 9.27534 1.04943 9.34284 1.00668C9.62036 0.828537 9.92975 0.687807 10.2598 0.625459C10.4979 0.579143 10.7436 0.561329 10.9836 0.52392C11.8274 0.392097 12.7743 0.855257 13.2581 1.51971C13.485 1.83146 13.6256 2.2002 13.6669 2.57608C13.7062 2.9377 13.5656 3.2245 13.5525 3.57365C13.5525 3.56474 13.9613 3.37592 13.9988 3.35989C14.1882 3.27972 14.385 3.21381 14.5876 3.17106Z" fill="#D28CB4"/>
</svg>
