<svg width="525" height="48" viewBox="0 0 525 48" fill="none" xmlns="http://www.w3.org/2000/svg">
<mask id="mask0_2088_7" style="mask-type:luminance" maskUnits="userSpaceOnUse" x="0" y="0" width="525" height="48">
<path d="M524.138 0H0V48H524.138V0Z" fill="white"/>
</mask>
<g mask="url(#mask0_2088_7)">
<path d="M75.7804 16.6708C75.4821 16.3577 75.333 15.9849 75.333 15.5524C75.333 15.284 75.3927 15.0604 75.497 14.8516C75.6014 14.6577 75.7356 14.4788 75.8996 14.3297L79.4337 11.3474C79.8959 10.9597 80.2687 10.6167 80.552 10.3036C80.8353 10.0054 81.0739 9.72205 81.238 9.48347C81.402 9.24488 81.5064 9.02121 81.566 8.81245C81.6256 8.60369 81.6555 8.39493 81.6555 8.18617C81.6555 7.78356 81.566 7.47042 81.402 7.23184C81.2379 6.99325 81.0441 6.81432 80.8055 6.69502C80.5669 6.57573 80.3283 6.50118 80.0749 6.47135C79.8214 6.44153 79.6126 6.42662 79.4635 6.42662C79.0609 6.42662 78.6583 6.48626 78.2407 6.62047C77.8232 6.73976 77.4206 6.9187 77.018 7.14237C76.854 7.23184 76.7049 7.27657 76.5557 7.27657C76.3023 7.27657 76.0935 7.15728 75.9444 6.90378C75.8698 6.78449 75.84 6.6652 75.84 6.51609C75.84 6.39679 75.8698 6.2775 75.9295 6.15821C75.9891 6.05383 76.0786 5.96436 76.2128 5.8898C77.2715 5.29335 78.36 4.99512 79.4486 4.99512C80.0152 4.99512 80.5222 5.06967 80.9845 5.2337C81.4467 5.38281 81.8493 5.60649 82.1774 5.8898C82.5054 6.17312 82.7589 6.50118 82.9528 6.90378C83.1317 7.29148 83.2212 7.73883 83.2212 8.21599C83.2212 8.58878 83.1764 8.93174 83.0721 9.2598C82.9826 9.58785 82.8186 9.93081 82.5949 10.2738C82.3712 10.6167 82.1028 10.9746 81.7599 11.3325C81.4169 11.6904 80.9994 12.0781 80.5073 12.4956L77.0478 15.4481C77.0478 15.4481 76.9733 15.5226 76.9733 15.5823C76.9733 15.6121 76.9882 15.6568 77.018 15.6866C77.0478 15.7165 77.0777 15.7314 77.1224 15.7314H82.7887C83.0124 15.7314 83.1913 15.8059 83.3256 15.9401C83.4598 16.0892 83.5194 16.2533 83.5194 16.4471C83.5194 16.641 83.4598 16.805 83.3256 16.9541C83.2063 17.1032 83.0273 17.1629 82.7887 17.1629H76.9584C76.4514 17.1629 76.0488 17.0138 75.7505 16.6857" fill="#9DC41A"/>
<path d="M88.5594 6.66573C88.2463 6.82975 87.9928 7.03851 87.8287 7.26219C87.6498 7.50077 87.5305 7.73935 87.456 7.99285C87.3814 8.24634 87.3367 8.4551 87.3068 8.60422C87.277 8.977 87.2472 9.3647 87.2174 9.79713C87.2025 10.2296 87.1875 10.662 87.1875 11.1093C87.1875 11.5567 87.1875 11.9891 87.2174 12.4216C87.2323 12.854 87.2621 13.2417 87.3068 13.6145C87.3218 13.7785 87.3814 13.9873 87.456 14.2258C87.5305 14.4793 87.6647 14.7179 87.8287 14.9565C88.0077 15.1951 88.2463 15.3889 88.5594 15.553C88.8725 15.717 89.2901 15.8065 89.7821 15.8065C90.2742 15.8065 90.6917 15.717 91.0049 15.553C91.318 15.3889 91.5715 15.1802 91.7355 14.9565C91.8996 14.7328 92.0338 14.4793 92.1083 14.2258C92.1829 13.9723 92.2276 13.7636 92.2574 13.6145C92.2873 13.2417 92.3171 12.854 92.3469 12.4216C92.3618 11.9891 92.3767 11.5567 92.3767 11.1093C92.3767 10.662 92.3767 10.2296 92.3469 9.79713C92.3171 9.3647 92.3022 8.977 92.2574 8.60422C92.2276 8.44019 92.1829 8.24634 92.1083 7.99285C92.0338 7.73935 91.9145 7.50077 91.7355 7.26219C91.5566 7.0236 91.318 6.82975 91.0049 6.66573C90.6917 6.5017 90.2742 6.41223 89.7821 6.41223C89.2901 6.41223 88.8725 6.5017 88.5594 6.66573ZM86.9042 16.2091C86.5762 15.8959 86.3078 15.538 86.1139 15.1205C85.9201 14.703 85.7859 14.2557 85.7411 13.7487C85.6964 13.361 85.6666 12.9435 85.6368 12.4961C85.6218 12.0488 85.6069 11.5865 85.6069 11.1093C85.6069 10.6322 85.6069 10.1699 85.6368 9.72258C85.6666 9.27523 85.6964 8.85771 85.7411 8.47001C85.8008 7.96302 85.9201 7.51568 86.1139 7.09816C86.3078 6.68064 86.5762 6.32276 86.9042 6.00962C87.6647 5.30878 88.619 4.96582 89.7821 4.96582C90.9452 4.96582 91.9145 5.30878 92.6601 6.00962C92.9881 6.32276 93.2565 6.68064 93.4504 7.09816C93.6442 7.51568 93.7635 7.96302 93.8231 8.47001C93.8679 8.85771 93.8977 9.27523 93.9275 9.72258C93.9573 10.1699 93.9573 10.6322 93.9573 11.1093C93.9573 11.5865 93.9573 12.0488 93.9275 12.4961C93.8977 12.9435 93.8679 13.361 93.8231 13.7487C93.7188 14.7477 93.3311 15.5679 92.6601 16.2091C91.8996 16.9099 90.9452 17.2529 89.7821 17.2529C88.619 17.2529 87.6498 16.9099 86.9042 16.2091Z" fill="#9DC41A"/>
<path d="M103.56 11.7798C103.918 12.2719 104.097 12.8684 104.097 13.6139C104.097 14.1657 103.993 14.6577 103.784 15.12C103.575 15.5673 103.292 15.955 102.919 16.2831C102.546 16.6111 102.099 16.8497 101.562 17.0138C101.025 17.1778 100.444 17.2673 99.7877 17.2673C99.1316 17.2673 98.4904 17.1778 97.8641 16.9839C97.2378 16.7901 96.701 16.5813 96.2686 16.3577C96.0002 16.2384 95.8511 16.0296 95.8511 15.7463C95.8511 15.627 95.8809 15.4928 95.9555 15.3586C96.1046 15.1051 96.3282 14.9858 96.6116 14.9858C96.7607 14.9858 96.9098 15.0156 97.044 15.0902C97.372 15.2542 97.7896 15.4182 98.2966 15.5823C98.8035 15.7612 99.2956 15.8357 99.7877 15.8357C100.041 15.8357 100.325 15.8059 100.638 15.7612C100.951 15.7165 101.249 15.6121 101.532 15.4481C101.816 15.2989 102.039 15.0753 102.233 14.777C102.427 14.4937 102.516 14.106 102.516 13.6139C102.516 12.9131 102.278 12.3763 101.801 11.9886C101.324 11.6009 100.653 11.407 99.7877 11.407H98.9825C98.7588 11.407 98.5948 11.3325 98.4606 11.1983C98.3264 11.0492 98.2667 10.8851 98.2667 10.6913C98.2667 10.4974 98.3264 10.3334 98.4606 10.1843C98.5948 10.0352 98.7737 9.97555 98.9825 9.97555H99.8623C100.026 9.97555 100.25 9.96063 100.503 9.93081C100.757 9.90099 101.01 9.82643 101.264 9.69223C101.517 9.57294 101.726 9.394 101.89 9.15542C102.069 8.91683 102.144 8.60369 102.144 8.20108C102.144 7.8283 102.069 7.54498 101.935 7.30639C101.801 7.08272 101.622 6.90378 101.398 6.76958C101.174 6.63538 100.936 6.54591 100.667 6.50118C100.399 6.45644 100.131 6.42662 99.8772 6.42662C99.4895 6.42662 99.0869 6.48626 98.6843 6.62047C98.2816 6.73976 97.879 6.9187 97.4764 7.15728C97.2975 7.23184 97.1335 7.27657 97.0142 7.27657C96.7308 7.27657 96.5221 7.15728 96.373 6.9187C96.2984 6.76958 96.2686 6.63538 96.2686 6.48626C96.2686 6.33715 96.2984 6.23277 96.373 6.12839C96.4475 6.02401 96.537 5.94945 96.6414 5.8898C97.7001 5.29335 98.7737 4.99512 99.8623 4.99512C100.429 4.99512 100.936 5.06967 101.398 5.20388C101.875 5.33808 102.263 5.54684 102.606 5.80034C102.979 6.09857 103.247 6.44153 103.441 6.84414C103.635 7.24675 103.724 7.69409 103.724 8.20108C103.724 8.81245 103.575 9.33435 103.292 9.73696C103.009 10.1545 102.591 10.4676 102.054 10.6913C102.71 10.9299 103.217 11.3027 103.575 11.7798" fill="#9DC41A"/>
<path d="M109.137 6.66573C108.824 6.82975 108.57 7.03851 108.406 7.26219C108.227 7.50077 108.108 7.73935 108.034 7.99285C107.959 8.24634 107.914 8.4551 107.884 8.60422C107.855 8.977 107.825 9.3647 107.795 9.79713C107.765 10.2296 107.765 10.662 107.765 11.1093C107.765 11.5567 107.765 11.9891 107.795 12.4216C107.81 12.854 107.84 13.2417 107.884 13.6145C107.899 13.7785 107.959 13.9873 108.034 14.2258C108.108 14.4793 108.227 14.7179 108.406 14.9565C108.585 15.1951 108.824 15.3889 109.137 15.553C109.45 15.717 109.868 15.8065 110.36 15.8065C110.852 15.8065 111.269 15.717 111.583 15.553C111.896 15.3889 112.149 15.1802 112.328 14.9565C112.507 14.7179 112.626 14.4793 112.701 14.2258C112.775 13.9723 112.82 13.7636 112.85 13.6145C112.88 13.2417 112.91 12.854 112.939 12.4216C112.954 11.9891 112.969 11.5567 112.969 11.1093C112.969 10.662 112.969 10.2296 112.939 9.79713C112.925 9.3647 112.895 8.977 112.85 8.60422C112.82 8.44019 112.775 8.24634 112.701 7.99285C112.626 7.73935 112.492 7.50077 112.328 7.26219C112.149 7.0236 111.911 6.82975 111.583 6.66573C111.269 6.5017 110.852 6.41223 110.36 6.41223C109.868 6.41223 109.45 6.5017 109.137 6.66573ZM107.482 16.2091C107.154 15.8959 106.885 15.538 106.692 15.1205C106.498 14.703 106.364 14.2557 106.319 13.7487C106.274 13.361 106.244 12.9435 106.214 12.4961C106.185 12.0488 106.185 11.5865 106.185 11.1093C106.185 10.6322 106.185 10.1699 106.214 9.72258C106.244 9.27523 106.274 8.85771 106.319 8.47001C106.378 7.96302 106.498 7.51568 106.692 7.09816C106.885 6.68064 107.154 6.32276 107.482 6.00962C108.242 5.30878 109.197 4.96582 110.36 4.96582C111.523 4.96582 112.492 5.30878 113.238 6.00962C113.566 6.32276 113.834 6.68064 114.028 7.09816C114.222 7.51568 114.356 7.96302 114.401 8.47001C114.446 8.85771 114.475 9.27523 114.505 9.72258C114.535 10.1699 114.535 10.6322 114.535 11.1093C114.535 11.5865 114.535 12.0488 114.505 12.4961C114.49 12.9435 114.446 13.361 114.401 13.7487C114.296 14.7477 113.909 15.5679 113.238 16.2091C112.477 16.9099 111.523 17.2529 110.36 17.2529C109.197 17.2529 108.227 16.9099 107.482 16.2091Z" fill="#9DC41A"/>
<path d="M61.4058 3.07155C60.9733 3.07155 60.6304 3.41452 60.6304 3.83204V22.3819C60.6304 22.7994 60.9733 23.1424 61.4058 23.1424C61.8382 23.1424 62.1812 22.7994 62.1812 22.3819V3.81713C62.1812 3.3996 61.8382 3.05664 61.4058 3.05664" fill="#006633"/>
<path d="M9.46876 17.4316C9.03632 17.4316 8.69336 17.7746 8.69336 18.1921V23.0234C8.69336 23.441 9.03632 23.7839 9.46876 23.7839C9.90119 23.7839 10.2442 23.441 10.2442 23.0234V18.1921C10.2442 17.7746 9.90119 17.4316 9.46876 17.4316Z" fill="#009FE3"/>
<path d="M13.4653 9.05078C13.0329 9.05078 12.6899 9.39375 12.6899 9.81127V20.9949C12.6899 21.4124 13.0329 21.7553 13.4653 21.7553C13.8978 21.7553 14.2407 21.4124 14.2407 20.9949V9.81127C14.2407 9.39375 13.8978 9.05078 13.4653 9.05078Z" fill="#1D71B8"/>
<path d="M65.4019 2.26686C64.9694 2.26686 64.6265 2.60983 64.6265 3.02735V19.9369C64.6265 20.3545 64.9694 20.6974 65.4019 20.6974C65.8343 20.6974 66.1773 20.3545 66.1773 19.9369V3.01244C66.1773 2.59492 65.8343 2.25195 65.4019 2.25195" fill="#6BA230"/>
<path d="M69.398 3.68359C68.9655 3.68359 68.6226 4.02656 68.6226 4.44408V19.445C68.6226 19.8625 68.9655 20.2055 69.398 20.2055C69.8304 20.2055 70.1734 19.8625 70.1734 19.445V4.44408C70.1734 4.02656 69.8304 3.68359 69.398 3.68359Z" fill="#9DC41A"/>
<path d="M17.4316 2.49023C16.9992 2.49023 16.6562 2.8332 16.6562 3.25072V19.8472C16.6562 20.2647 16.9992 20.6077 17.4316 20.6077C17.8641 20.6077 18.207 20.2647 18.207 19.8472V3.25072C18.207 2.8332 17.8641 2.49023 17.4316 2.49023Z" fill="#4598CE"/>
<path d="M21.458 4.69727C21.0256 4.69727 20.6826 5.04023 20.6826 5.45775V18.6991C20.6826 19.1166 21.0256 19.4596 21.458 19.4596C21.8904 19.4596 22.2334 19.1166 22.2334 18.6991V5.45775C22.2334 5.04023 21.8904 4.69727 21.458 4.69727Z" fill="#005492"/>
<path d="M25.439 4.57812C25.0065 4.57812 24.6636 4.92109 24.6636 5.33861V18.4905C24.6636 18.908 25.0065 19.251 25.439 19.251C25.8714 19.251 26.2144 18.908 26.2144 18.4905V5.33861C26.2144 4.92109 25.8714 4.57812 25.439 4.57812Z" fill="#BE1622"/>
<path d="M29.4356 5.91921C29.0031 5.91921 28.6602 6.26217 28.6602 6.67969V20.0255C28.6602 20.443 29.0031 20.7859 29.4356 20.7859C29.868 20.7859 30.2109 20.443 30.2109 20.0255V6.66478C30.2109 6.24726 29.868 5.9043 29.4356 5.9043" fill="#E94E1B"/>
<path d="M33.4316 4.2207C32.9992 4.2207 32.6562 4.56367 32.6562 4.98119V21.0856C32.6562 21.5031 32.9992 21.8461 33.4316 21.8461C33.8641 21.8461 34.207 21.5031 34.207 21.0856V4.98119C34.207 4.56367 33.8641 4.2207 33.4316 4.2207Z" fill="#A3195B"/>
<path d="M37.4131 5.69531C36.9807 5.69531 36.6377 6.03828 36.6377 6.4558V21.069C36.6377 21.4866 36.9807 21.8295 37.4131 21.8295C37.8455 21.8295 38.1885 21.4866 38.1885 21.069V6.4558C38.1885 6.03828 37.8455 5.69531 37.4131 5.69531Z" fill="#E6007E"/>
<path d="M41.4243 9.20046C40.9919 9.20046 40.6489 9.54342 40.6489 9.96094V22.0094C40.6489 22.4269 40.9919 22.7699 41.4243 22.7699C41.8568 22.7699 42.1997 22.4269 42.1997 22.0094V9.94603C42.1997 9.52851 41.8568 9.18555 41.4243 9.18555" fill="#F7BF00"/>
<path d="M45.4204 10.2285C44.988 10.2285 44.645 10.5715 44.645 10.989V24.6181C44.645 25.0356 44.988 25.3786 45.4204 25.3786C45.8528 25.3786 46.1958 25.0356 46.1958 24.6181V10.989C46.1958 10.5715 45.8528 10.2285 45.4204 10.2285Z" fill="#FFDF00"/>
<path d="M53.4131 5.12988C52.9807 5.12988 52.6377 5.47285 52.6377 5.89037V27.0796C52.6377 27.4971 52.9807 27.84 53.4131 27.84C53.8455 27.84 54.1885 27.4971 54.1885 27.0796V5.89037C54.1885 5.47285 53.8455 5.12988 53.4131 5.12988Z" fill="#F6A000"/>
<path d="M57.4092 4.04102C56.9768 4.04102 56.6338 4.38398 56.6338 4.8015V24.4697C56.6338 24.8872 56.9768 25.2302 57.4092 25.2302C57.8416 25.2302 58.1846 24.8872 58.1846 24.4697V4.8015C58.1846 4.38398 57.8416 4.04102 57.4092 4.04102Z" fill="#3AAA35"/>
<path d="M49.417 6.69531C48.9846 6.69531 48.6416 7.03828 48.6416 7.4558V28.138C48.6416 28.5555 48.9846 28.8985 49.417 28.8985C49.8494 28.8985 50.1924 28.5555 50.1924 28.138V7.4558C50.1924 7.03828 49.8494 6.69531 49.417 6.69531Z" fill="#FCBF00"/>
<path d="M58.0206 40.1857H53.9945L56.0523 36.592C56.2462 36.2341 56.3058 35.8315 56.2014 35.4438C56.0971 35.0561 55.8436 34.7281 55.4857 34.5193C55.262 34.3851 54.9936 34.3105 54.7252 34.3105C54.1735 34.3105 53.6665 34.6088 53.3981 35.071L48.6264 43.3916C48.2089 44.1223 48.4624 45.0468 49.193 45.4643C49.4167 45.5985 49.6851 45.6731 49.9535 45.6731C50.4903 45.6731 50.9973 45.3749 51.2807 44.9126L52.2499 43.2276H58.0206C58.8557 43.2276 59.5416 42.5417 59.5416 41.7066C59.5416 40.8716 58.8557 40.1857 58.0206 40.1857Z" fill="#005492"/>
<path d="M55.739 31.0164L54.4268 33.3128C54.5311 33.3128 54.6355 33.2979 54.725 33.2979C55.6346 33.2979 56.4398 33.7601 56.917 34.5504V34.5803C56.917 34.5803 56.9766 34.6548 56.9915 34.6697L62.6728 44.899C62.9412 45.3762 63.4482 45.6744 63.9999 45.6744C64.2534 45.6744 64.5069 45.6147 64.7306 45.4805C65.4612 45.0779 65.7296 44.1534 65.327 43.4078L58.4379 31.0164C58.1695 30.5094 57.6625 30.1963 57.0959 30.1963C56.5293 30.1963 56.0372 30.4945 55.7688 30.9717L55.739 31.0313V31.0164Z" fill="#005492"/>
<path d="M90.9453 41.3046V41.2748C90.9453 41.2748 90.8856 41.2002 90.8856 41.1853L85.2044 30.9561C84.9359 30.4789 84.429 30.1807 83.8772 30.1807C83.6237 30.1807 83.3702 30.2403 83.1466 30.3745C82.7887 30.5684 82.5352 30.8964 82.4159 31.2841C82.2966 31.6718 82.3563 32.0893 82.5501 32.4323L89.4392 44.8237C89.7076 45.3307 90.2146 45.6439 90.7812 45.6439C91.3479 45.6439 91.84 45.3456 92.1084 44.8685L92.1382 44.8088L93.4504 42.5124C93.346 42.5124 93.2416 42.5274 93.1373 42.5274C92.2277 42.5274 91.4075 42.0651 90.9453 41.2748" fill="#005492"/>
<path d="M94.4494 40.7534L99.2211 32.4328C99.4298 32.0749 99.4746 31.6723 99.3702 31.2846C99.2658 30.8969 99.0123 30.5689 98.6544 30.3601C98.4307 30.2259 98.1624 30.1514 97.8939 30.1514C97.3571 30.1514 96.8501 30.4496 96.5668 30.9119L91.7952 39.2324C91.6013 39.5903 91.5417 39.9929 91.646 40.3806C91.7504 40.7683 92.0039 41.0964 92.3618 41.3051C92.7197 41.5139 93.1223 41.5586 93.51 41.4543C93.8977 41.3499 94.2257 41.0964 94.4345 40.7385" fill="#005492"/>
<path d="M42.468 30.5088C41.6777 30.2404 40.8576 30.1211 40.0226 30.1211C35.7281 30.1211 32.2388 33.6104 32.2388 37.9049C32.2388 42.1994 35.7281 45.6887 40.0226 45.6887C42.2444 45.6887 44.3618 44.7343 45.838 43.0792C46.3897 42.4529 46.345 41.4836 45.7187 40.9319C45.0925 40.3802 44.1232 40.4249 43.5715 41.0512C42.6768 42.0652 41.3795 42.6467 40.0226 42.6467C37.3981 42.6467 35.2807 40.5144 35.2807 37.9049C35.2807 35.2954 37.413 33.163 40.0226 33.163C40.5295 33.163 41.0365 33.2376 41.5137 33.4016C41.9014 33.5358 42.304 33.506 42.6768 33.3121C43.0347 33.1332 43.318 32.8201 43.4373 32.4324C43.7057 31.6421 43.2732 30.7772 42.468 30.5088Z" fill="#005492"/>
<path d="M46.315 36.4434H41.4092C40.5741 36.4434 39.8882 37.1293 39.8882 37.9643C39.8882 38.7994 40.5741 39.4853 41.4092 39.4853H44.7642C45.8229 39.5151 46.7475 40.1861 47.1202 41.1703C47.5825 40.1563 47.836 39.038 47.836 37.9047C47.8062 37.0846 47.1352 36.4434 46.315 36.4434Z" fill="#005492"/>
<path d="M20.8613 30.1807C20.0263 30.1807 19.3403 30.8666 19.3403 31.7016V40.0819C19.3403 40.9169 20.0263 41.6028 20.8613 41.6028C21.6963 41.6028 22.3823 40.9169 22.3823 40.0819V31.7016C22.3823 30.8666 21.6963 30.1807 20.8613 30.1807Z" fill="#005492"/>
<path d="M29.7485 42.6457H20.8762C20.3096 42.6457 19.7728 42.4667 19.3403 42.1387V44.1666C19.3403 45.0017 20.0263 45.6876 20.8613 45.6876H29.7634C30.5985 45.6876 31.2844 45.0017 31.2844 44.1666C31.2844 43.3316 30.5985 42.6457 29.7634 42.6457" fill="#005492"/>
<path d="M69.2939 34.2363C68.4589 34.2363 67.7729 34.9223 67.7729 35.7573V44.0928C67.7729 44.9278 68.4589 45.6138 69.2939 45.6138C70.129 45.6138 70.8149 44.9278 70.8149 44.0928V35.7573C70.8149 34.9223 70.129 34.2363 69.2939 34.2363Z" fill="#005492"/>
<path d="M77.6742 45.1816C77.9575 45.5246 78.3899 45.7184 78.8224 45.7184C79.1803 45.7184 79.5381 45.5842 79.8065 45.3605C80.1197 45.0921 80.2986 44.7343 80.3284 44.3316C80.3583 43.929 80.239 43.5413 79.9706 43.2282L76.8392 39.56L77.1523 39.4854C79.2548 38.9635 80.7311 37.0698 80.7311 34.9076C80.7311 32.2981 78.6136 30.1807 76.019 30.1807H73.7525H73.7227H69.2641C68.4291 30.1807 67.7432 30.8666 67.7432 31.7016V33.7296C68.1756 33.4015 68.7124 33.2226 69.279 33.2226H73.7077H73.7376H73.7674H75.9892C76.9137 33.2226 77.6742 33.9831 77.6742 34.9076C77.6742 35.8321 76.9286 36.5926 75.9892 36.5926H73.5885C72.992 36.5926 72.4552 36.9356 72.2166 37.4724C71.9631 38.0092 72.0526 38.6504 72.4403 39.0977L77.6444 45.2114L77.6742 45.1816Z" fill="#005492"/>
<path d="M9.57336 40.1857H5.54727L7.60505 36.592C7.7989 36.2341 7.85854 35.8315 7.75416 35.4438C7.64978 35.0561 7.39629 34.7281 7.03841 34.5193C6.81474 34.3851 6.54633 34.3105 6.27793 34.3105C5.7262 34.3105 5.23413 34.6088 4.95081 35.071L0.179141 43.3916C-0.23838 44.1223 0.0151145 45.0468 0.745776 45.4643C0.969448 45.5985 1.23785 45.6731 1.50626 45.6731C2.04307 45.6731 2.55006 45.3749 2.81847 44.9126L3.78771 43.2276H9.55845C10.3935 43.2276 11.0794 42.5417 11.0794 41.7066C11.0794 40.8716 10.3935 40.1857 9.55845 40.1857" fill="#005492"/>
<path d="M10.0058 31.0008C9.73741 30.4938 9.23042 30.1807 8.66378 30.1807C8.09715 30.1807 7.60507 30.4789 7.33666 30.9561L7.30684 31.0157L5.99463 33.3121C6.09901 33.3121 6.20339 33.2972 6.29286 33.2972C7.20246 33.2972 8.02259 33.7594 8.48484 34.5497V34.5795C8.48484 34.5795 8.54449 34.6541 8.54449 34.669L14.2258 44.8983C14.4942 45.3754 15.0012 45.6737 15.5529 45.6737C15.8064 45.6737 16.0599 45.5991 16.2835 45.4798C17.0142 45.0772 17.2826 44.1527 16.8651 43.4071L9.97599 31.0157L10.0058 31.0008Z" fill="#005492"/>
<path d="M113.029 30.1956H103.202C102.367 30.1956 101.681 30.8815 101.681 31.7165V40.0371C101.681 40.8722 102.367 41.5581 103.202 41.5581C104.037 41.5581 104.723 40.8722 104.723 40.0371V33.2226H113.029C113.864 33.2226 114.55 32.5367 114.55 31.7016C114.55 30.8666 113.864 30.1807 113.029 30.1807" fill="#005492"/>
<path d="M112.984 42.6027H103.217C102.65 42.6027 102.114 42.4238 101.681 42.0957V44.1237C101.681 44.9587 102.367 45.6446 103.202 45.6446H112.999C113.834 45.6446 114.52 44.9587 114.52 44.1237C114.52 43.2886 113.834 42.6027 112.999 42.6027" fill="#005492"/>
<path d="M112.06 37.9643C112.06 37.1293 111.374 36.4434 110.539 36.4434H107.318C106.483 36.4434 105.797 37.1293 105.797 37.9643C105.797 38.7994 106.483 39.4853 107.318 39.4853H110.539C111.374 39.4853 112.06 38.7994 112.06 37.9643Z" fill="#005492"/>
<path d="M201.037 5.60648H203.005C204.153 5.60648 204.75 5.47228 205.331 5.03985C205.823 4.68197 206.181 3.86184 206.181 3.08645C206.181 2.31105 205.838 1.47601 205.331 1.10322C204.75 0.670789 204.168 0.536586 203.005 0.536586H201.037V5.59157V5.60648ZM203.005 0.178711C204.228 0.178711 204.884 0.283091 205.555 0.790081C206.166 1.23742 206.599 2.16194 206.599 3.08645C206.599 4.01096 206.166 4.93547 205.555 5.38281C204.884 5.87489 204.183 5.99418 203.005 5.99418H201.037V10.4229H200.619V0.178711H203.005Z" fill="#2B3183"/>
<path d="M207.389 5.30848C207.389 8.12675 209.566 10.2144 212.28 10.2144C214.994 10.2144 217.171 8.12675 217.171 5.29357C217.171 2.46039 214.994 0.372786 212.28 0.372786C209.566 0.372786 207.389 2.46039 207.389 5.29357V5.30848ZM206.971 5.27866C206.971 2.22181 209.342 0 212.28 0C215.217 0 217.588 2.22181 217.588 5.29357C217.588 8.36533 215.217 10.5871 212.28 10.5871C209.342 10.5871 206.971 8.36533 206.971 5.29357V5.27866Z" fill="#2B3183"/>
<path d="M218.751 0.178711H221.093C222.688 0.178711 223.314 0.312914 223.821 0.611143C224.641 1.02866 225.298 2.14702 225.298 3.33994C225.327 3.98113 225.134 4.77144 224.641 5.41263C223.896 6.39679 223.046 6.51608 221.883 6.56082L224.627 10.4229H224.105L221.107 6.18803H221.406C222.151 6.18803 223.374 6.18803 224.015 5.54684C224.671 4.87582 224.895 4.16007 224.895 3.35485C224.895 2.47508 224.463 1.49092 223.672 0.98393C223.046 0.581321 222.3 0.566409 221.107 0.566409H219.184V10.4229H218.766V0.178711H218.751Z" fill="#2B3183"/>
</g>
<path d="M225.133 0.178711V0.551497H227.922V10.3931H228.339V0.551497H231.113V0.178711H225.133Z" fill="#2B3183"/>
<mask id="mask1_2088_7" style="mask-type:luminance" maskUnits="userSpaceOnUse" x="0" y="0" width="525" height="48">
<path d="M524.138 0H0V48H524.138V0Z" fill="white"/>
</mask>
<g mask="url(#mask1_2088_7)">
<path d="M232.306 0.178711V6.81431C232.306 7.81338 232.306 8.43966 232.947 9.2747C233.394 9.85625 234.229 10.2141 235.05 10.2141C235.87 10.2141 236.66 9.85625 237.107 9.2747C237.749 8.43966 237.749 7.81338 237.749 6.81431V0.178711H238.166V6.81431C238.166 7.73882 238.136 9.12559 236.943 9.96063C236.421 10.3483 235.735 10.5869 235.035 10.5869C234.334 10.5869 233.663 10.3483 233.141 9.96063C231.933 9.11068 231.903 7.73882 231.918 6.81431V0.178711H232.336H232.306Z" fill="#2B3183"/>
<path d="M248.887 2.44548C248.47 1.90867 247.993 1.46132 247.456 1.13327C246.665 0.641193 245.741 0.372786 244.742 0.372786C242.028 0.372786 239.851 2.46039 239.851 5.29357C239.851 8.12675 242.028 10.2144 244.742 10.2144C246.039 10.2144 247.187 9.73718 248.052 9.05126C248.917 8.35042 249.514 7.411 249.692 6.45666H243.594V6.08388H250.185C250.125 6.60578 249.976 7.11277 249.737 7.58993C248.887 9.33457 246.979 10.5871 244.727 10.5871C241.804 10.5871 239.418 8.36533 239.418 5.29357C239.418 2.22181 241.804 0 244.727 0C246.606 0 248.44 0.92451 249.364 2.44548H248.872H248.887Z" fill="#2B3183"/>
</g>
<path d="M254.628 0.566409L257.133 6.47135H252.138L254.628 0.566409ZM254.36 0.178711L249.976 10.408H250.423L251.959 6.84414H257.312L258.848 10.408H259.295L254.911 0.178711H254.374H254.36Z" fill="#2B3183"/>
<path d="M260.101 0.178711V10.3931H264.842V10.0203H260.518V0.178711H260.101Z" fill="#2B3183"/>
<mask id="mask2_2088_7" style="mask-type:luminance" maskUnits="userSpaceOnUse" x="0" y="0" width="525" height="48">
<path d="M524.138 0H0V48H524.138V0Z" fill="white"/>
</mask>
<g mask="url(#mask2_2088_7)">
<path d="M199.59 44.2117C202.99 40.9461 206.33 37.6358 209.685 34.3553C212.503 31.701 215.485 29.1362 215.649 25.3786C215.649 21.3674 212.921 18.8324 209.357 18.8324C205.793 18.8324 203.228 21.606 203.109 26.2882H199.843C199.933 23.3059 200.753 20.7858 202.498 18.9219C204.526 16.4764 207.553 15.8203 209.7 15.8203C215.366 15.8203 219.139 19.9657 219.049 25.2145C218.93 28.5249 217.394 30.8511 214.367 33.9974C211.012 37.3525 207.657 40.7075 204.272 44.0626H219.139V47.0002H199.605V44.2266L199.59 44.2117Z" fill="#136330"/>
<path d="M225.088 37.263C225.088 41.5724 228.115 44.51 232.037 44.51C235.228 44.51 238.986 42.0197 238.986 37.263V26.0943C238.986 23.0673 237.167 18.8473 231.948 18.8473C227.936 18.8473 225.073 21.8296 225.073 26.2583V37.263H225.088ZM221.659 26.4224C221.659 17.565 229.025 15.8203 232.007 15.8203C236.928 15.8203 242.401 19.2201 242.401 26.1689V37.1735C242.401 45.2406 235.526 47.5221 232.141 47.5221C228.25 47.5221 221.674 45.0468 221.674 37.1735V26.4074L221.659 26.4224Z" fill="#136330"/>
<path d="M246.322 23.6041C246.531 18.057 251.005 15.8203 254.598 15.8203C258.982 15.8203 262.546 18.8026 262.546 23.3506C262.546 26.4075 260.727 28.5696 258.326 29.8073C263.754 31.6712 264.5 36.0999 264.5 38.0086C264.5 43.6004 260.19 47.537 254.434 47.537C251.407 47.537 248.231 46.2546 246.367 43.8091C245.085 42.1092 244.503 40.0067 244.458 38.0086H247.888C248.052 42.1092 251.198 44.51 254.554 44.51C258.609 44.51 261.055 41.5277 261.055 37.934C261.055 34.6684 258.401 31.3879 253.853 31.3879H251.825V28.7336H253.361C257.745 28.7336 259.161 25.5426 259.161 23.7234C259.161 20.9499 257.342 18.8324 254.568 18.8324C251.377 18.8324 249.856 21.2332 249.678 23.5892H246.322V23.6041Z" fill="#BD1C1B"/>
<path d="M270.703 37.263C270.703 41.5724 273.73 44.51 277.651 44.51C280.842 44.51 284.6 42.0197 284.6 37.263V26.0943C284.6 23.0673 282.781 18.8473 277.562 18.8473C273.551 18.8473 270.688 21.8296 270.688 26.2583V37.263H270.703ZM267.273 26.4224C267.273 17.565 274.639 15.8203 277.621 15.8203C282.542 15.8203 288.015 19.2201 288.015 26.1689V37.1735C288.015 45.2406 281.141 47.5221 277.756 47.5221C273.864 47.5221 267.288 45.0468 267.288 37.1735V26.4074L267.273 26.4224Z" fill="#BD1C1B"/>
</g>
<path d="M164.712 43.3624L178.982 47.985L184.559 35.9365L164.712 43.3624Z" fill="#2B3183"/>
<path d="M158.568 15.0764V45.0932L162.222 36.4594L172.272 29.2125V0.0605469L158.568 15.0764Z" fill="#086530"/>
<path d="M168.201 4.50416L171.318 29.8984L172.272 29.2125V0.0605469L168.201 4.50416Z" fill="#008D39"/>
<path d="M193.655 0L176.373 3.48928V31.3588L164.712 39.5303L184.574 32.1491L193.655 23.2171V0Z" fill="#BD1C1B"/>
<path d="M191.598 0.40261L193.655 7.53029V0L191.598 0.40261Z" fill="#E3161A"/>
<path d="M178.982 47.985L184.574 46.2702L184.559 35.9365L178.982 47.985Z" fill="#FACE06"/>
<path d="M393.573 3.51855H331.243V45.0768H393.573V3.51855Z" fill="#164194"/>
<path d="M361.081 12.5701L362.408 11.6009L363.72 12.5701L363.213 11.0193L364.556 10.0501H362.9L362.408 8.48438L361.901 10.0501H360.246L361.588 11.0193L361.081 12.5701Z" fill="#FAEA27"/>
<path d="M354.281 14.3895L355.594 13.4351L356.906 14.3895L356.414 12.8387L357.741 11.8843H356.101L355.594 10.3037L355.087 11.8843H353.446L354.773 12.8387L354.281 14.3895Z" fill="#FAEA27"/>
<path d="M350.613 15.2998L350.106 16.8804H348.466L349.793 17.8348L349.301 19.3855L350.613 18.4312L351.925 19.3855L351.433 17.8348L352.76 16.8804H351.12L350.613 15.2998Z" fill="#FAEA27"/>
<path d="M348.794 25.231L350.106 26.1853L349.599 24.6346L350.941 23.6653H349.286L348.794 22.0996L348.287 23.6802L346.632 23.6653L347.974 24.6346L347.467 26.1853L348.794 25.231Z" fill="#FAEA27"/>
<path d="M351.12 30.4937L350.613 28.9131L350.106 30.4937H348.466L349.793 31.448L349.301 32.9988L350.613 32.0445L351.925 32.9988L351.433 31.448L352.76 30.4937H351.12Z" fill="#FAEA27"/>
<path d="M356.101 35.4749L355.609 33.9092L355.102 35.4749H353.461L354.789 36.4441L354.296 37.9949L355.609 37.0257L356.921 37.9949L356.414 36.4441L357.756 35.4749H356.101Z" fill="#FAEA27"/>
<path d="M362.9 37.2935L362.408 35.7129L361.901 37.2935H360.246L361.588 38.2478L361.081 39.7986L362.408 38.8443L363.72 39.7986L363.213 38.2478L364.556 37.2935H362.9Z" fill="#FAEA27"/>
<path d="M369.7 35.4749L369.193 33.9092L368.701 35.4749H367.046L368.388 36.4441L367.881 37.9949L369.193 37.0257L370.52 37.9949L370.013 36.4441L371.355 35.4749H369.7Z" fill="#FAEA27"/>
<path d="M374.695 30.4937L374.188 28.9131L373.681 30.4937H372.041L373.368 31.448L372.876 32.9988L374.188 32.0445L375.5 32.9988L375.008 31.448L376.336 30.4937H374.695Z" fill="#FAEA27"/>
<path d="M378.14 23.6497H376.499L375.992 22.084L375.485 23.6497H373.845L375.187 24.604L374.68 26.1697L375.992 25.2005L377.305 26.1697L376.813 24.604L378.14 23.6497Z" fill="#FAEA27"/>
<path d="M372.876 19.3699L374.188 18.4007L375.5 19.3699L375.008 17.8191L376.336 16.8499H374.695L374.188 15.2842L373.681 16.8499H372.041L373.368 17.8191L372.876 19.3699Z" fill="#FAEA27"/>
<path d="M369.223 10.3037L368.716 11.8843H367.076L368.403 12.8387L367.911 14.3895L369.223 13.4351L370.535 14.3895L370.028 12.8387L371.37 11.8843H369.715L369.223 10.3037Z" fill="#FAEA27"/>
<mask id="mask3_2088_7" style="mask-type:luminance" maskUnits="userSpaceOnUse" x="0" y="0" width="525" height="48">
<path d="M524.138 0H0V48H524.138V0Z" fill="white"/>
</mask>
<g mask="url(#mask3_2088_7)">
<path d="M409.171 15.3443L411.169 15.9855C410.856 17.1039 410.349 17.924 409.633 18.4757C408.917 19.0125 408.008 19.2959 406.919 19.2959C405.562 19.2959 404.444 18.8336 403.579 17.9091C402.699 16.9846 402.267 15.7171 402.267 14.1067C402.267 12.4068 402.714 11.0796 403.579 10.1402C404.459 9.2008 405.607 8.72363 407.053 8.72363C408.306 8.72363 409.32 9.09642 410.095 9.82708C410.557 10.2595 410.915 10.8858 411.139 11.7059L409.096 12.198C408.977 11.6612 408.723 11.2437 408.336 10.9454C407.948 10.6323 407.486 10.4832 406.934 10.4832C406.173 10.4832 405.562 10.7516 405.085 11.3033C404.608 11.8401 404.369 12.7199 404.369 13.9426C404.369 15.2399 404.608 16.1645 405.07 16.7013C405.532 17.253 406.144 17.5214 406.889 17.5214C407.441 17.5214 407.903 17.3425 408.306 16.9995C408.693 16.6565 408.992 16.1048 409.156 15.3592" fill="#164194"/>
<path d="M414.479 15.4041C414.479 16.1347 414.658 16.7014 415.001 17.0891C415.344 17.4768 415.776 17.6706 416.283 17.6706C416.79 17.6706 417.223 17.4768 417.566 17.0891C417.908 16.7014 418.087 16.1347 418.087 15.3891C418.087 14.6436 417.908 14.1068 417.566 13.7191C417.223 13.3314 416.79 13.1375 416.283 13.1375C415.776 13.1375 415.344 13.3314 415.001 13.7191C414.658 14.1068 414.479 14.6734 414.479 15.4041ZM412.466 15.2997C412.466 14.6436 412.63 14.0173 412.943 13.4059C413.256 12.7946 413.718 12.3323 414.3 12.0192C414.881 11.6911 415.538 11.542 416.268 11.542C417.387 11.542 418.311 11.8999 419.027 12.6305C419.743 13.3612 420.1 14.2857 420.1 15.3891C420.1 16.4926 419.743 17.4469 419.012 18.1776C418.296 18.9083 417.387 19.281 416.283 19.281C415.612 19.281 414.956 19.1319 414.345 18.8188C413.733 18.5056 413.256 18.0583 412.943 17.4618C412.63 16.8654 412.466 16.1496 412.466 15.2997Z" fill="#164194"/>
<path d="M426.349 11.7059H428.302V19.1169H426.349V11.7059ZM426.349 8.88766H428.302V10.7069H426.349V8.88766ZM420.846 11.7059H421.935V11.1393C421.935 10.513 421.994 10.0508 422.129 9.75252C422.263 9.43938 422.501 9.2008 422.859 9.00695C423.217 8.8131 423.664 8.72363 424.201 8.72363C424.738 8.72363 425.305 8.8131 425.842 8.97713L425.573 10.349C425.26 10.2744 424.962 10.2446 424.678 10.2446C424.395 10.2446 424.186 10.3192 424.067 10.4385C423.948 10.5727 423.888 10.8261 423.888 11.1989V11.7208H425.349V13.2567H423.888V19.1169H421.935V13.2567H420.846V11.7208V11.7059Z" fill="#164194"/>
<path d="M437.114 19.1168H435.146V15.3442C435.146 14.5389 435.101 14.0319 435.027 13.7934C434.937 13.5548 434.803 13.3758 434.624 13.2416C434.43 13.1074 434.207 13.0478 433.938 13.0478C433.595 13.0478 433.297 13.1373 433.029 13.3311C432.76 13.51 432.581 13.7635 432.477 14.0767C432.373 14.3749 432.328 14.9565 432.328 15.7766V19.1317H430.375V11.7207H432.194V12.8092C432.835 11.9742 433.655 11.5566 434.639 11.5566C435.072 11.5566 435.474 11.6312 435.832 11.7952C436.19 11.9443 436.458 12.1531 436.652 12.3917C436.831 12.6303 436.965 12.9136 437.04 13.2118C437.114 13.525 437.144 13.9574 437.144 14.5389V19.1466L437.114 19.1168Z" fill="#164194"/>
<path d="M443.198 15.5537C442.945 15.6432 442.557 15.7326 442.006 15.8519C441.454 15.9712 441.111 16.0756 440.932 16.1949C440.678 16.3738 440.544 16.6124 440.544 16.8808C440.544 17.1492 440.649 17.3878 440.857 17.5966C441.066 17.7904 441.32 17.8948 441.633 17.8948C441.991 17.8948 442.319 17.7755 442.647 17.5518C442.885 17.3729 443.034 17.1641 443.109 16.9106C443.169 16.7466 443.184 16.4186 443.184 15.9563V15.5686L443.198 15.5537ZM440.574 13.9582L438.8 13.6301C438.993 12.9144 439.336 12.3776 439.828 12.0346C440.321 11.6916 441.036 11.5127 442.006 11.5127C442.885 11.5127 443.527 11.6171 443.959 11.8258C444.391 12.0346 444.69 12.303 444.869 12.6161C445.048 12.9293 445.122 13.5257 445.122 14.3757V16.6571C445.107 17.3133 445.122 17.7904 445.197 18.1036C445.256 18.4167 445.376 18.7448 445.554 19.1026H443.616C443.556 18.9684 443.497 18.7746 443.422 18.5211C443.392 18.4018 443.362 18.3272 443.348 18.2974C443.005 18.6255 442.662 18.864 442.274 19.0281C441.886 19.1921 441.484 19.2667 441.051 19.2667C440.291 19.2667 439.694 19.0579 439.247 18.6404C438.8 18.2229 438.591 17.701 438.591 17.0747C438.591 16.6571 438.695 16.2844 438.889 15.9563C439.083 15.6283 439.366 15.3748 439.724 15.2107C440.082 15.0318 440.604 14.8827 441.275 14.7485C442.185 14.5845 442.826 14.4204 443.184 14.2713V14.0775C443.184 13.7047 443.094 13.4363 442.9 13.2722C442.721 13.1082 442.363 13.0337 441.842 13.0337C441.499 13.0337 441.215 13.1082 441.021 13.2424C440.828 13.3766 440.664 13.6152 440.544 13.9582" fill="#164194"/>
<path d="M453.786 19.1168H451.817V15.3442C451.817 14.5389 451.773 14.0319 451.698 13.7934C451.609 13.5548 451.474 13.3758 451.295 13.2416C451.102 13.1074 450.878 13.0478 450.61 13.0478C450.267 13.0478 449.968 13.1373 449.7 13.3311C449.432 13.51 449.253 13.7635 449.148 14.0767C449.044 14.3749 448.999 14.9565 448.999 15.7766V19.1317H447.031V11.7207H448.85V12.8092C449.491 11.9742 450.311 11.5566 451.295 11.5566C451.728 11.5566 452.13 11.6312 452.488 11.7952C452.846 11.9443 453.115 12.1531 453.308 12.3917C453.487 12.6303 453.622 12.9136 453.696 13.2118C453.771 13.525 453.801 13.9574 453.801 14.5389V19.1466L453.786 19.1168Z" fill="#164194"/>
<path d="M462.24 13.898L460.302 14.241C460.242 13.8533 460.093 13.57 459.854 13.3761C459.631 13.1823 459.332 13.0779 458.96 13.0779C458.468 13.0779 458.08 13.2419 457.797 13.5849C457.513 13.9278 457.364 14.4796 457.364 15.2699C457.364 16.1496 457.513 16.7759 457.811 17.1338C458.11 17.4917 458.497 17.6855 459.004 17.6855C459.377 17.6855 459.675 17.5811 459.914 17.3724C460.153 17.1636 460.317 16.7908 460.421 16.2838L462.345 16.6119C462.151 17.4917 461.763 18.1627 461.196 18.61C460.63 19.0574 459.869 19.281 458.915 19.281C457.826 19.281 456.962 18.9381 456.32 18.2521C455.679 17.5662 455.351 16.6268 455.351 15.419C455.351 14.2111 455.679 13.2419 456.32 12.556C456.962 11.87 457.841 11.542 458.945 11.542C459.854 11.542 460.57 11.7358 461.092 12.1235C461.629 12.5112 462.002 13.1077 462.24 13.898Z" fill="#164194"/>
</g>
<path d="M463.732 11.705H465.7V19.116H463.732V11.705ZM463.732 8.88672H465.7V10.7059H463.732V8.88672Z" fill="#164194"/>
<mask id="mask4_2088_7" style="mask-type:luminance" maskUnits="userSpaceOnUse" x="0" y="0" width="525" height="48">
<path d="M524.138 0H0V48H524.138V0Z" fill="white"/>
</mask>
<g mask="url(#mask4_2088_7)">
<path d="M471.784 15.5527C471.53 15.6422 471.143 15.7317 470.591 15.851C470.039 15.9702 469.696 16.0746 469.517 16.1939C469.264 16.3729 469.13 16.6114 469.13 16.8798C469.13 17.1483 469.234 17.3868 469.443 17.5956C469.652 17.7894 469.905 17.8938 470.218 17.8938C470.576 17.8938 470.904 17.7745 471.232 17.5509C471.471 17.3719 471.62 17.1632 471.694 16.9097C471.754 16.7456 471.769 16.4176 471.769 15.9553V15.5676L471.784 15.5527ZM469.159 13.9572L467.385 13.6291C467.579 12.9134 467.922 12.3766 468.414 12.0336C468.906 11.6907 469.622 11.5117 470.591 11.5117C471.471 11.5117 472.112 11.6161 472.544 11.8249C472.977 12.0336 473.275 12.302 473.439 12.6152C473.618 12.9283 473.707 13.5248 473.707 14.3747V16.6562C473.693 17.3123 473.707 17.7894 473.782 18.1026C473.842 18.4157 473.961 18.7438 474.14 19.1017H472.201C472.142 18.9674 472.082 18.7736 472.008 18.5201C471.978 18.4008 471.948 18.3263 471.933 18.2964C471.59 18.6245 471.247 18.8631 470.859 19.0271C470.472 19.1911 470.069 19.2657 469.637 19.2657C468.876 19.2657 468.265 19.0569 467.832 18.6394C467.385 18.2219 467.176 17.7 467.176 17.0737C467.176 16.6562 467.281 16.2834 467.474 15.9553C467.668 15.6273 467.952 15.3738 468.31 15.2098C468.667 15.0308 469.189 14.8817 469.86 14.7475C470.77 14.5835 471.411 14.4195 471.769 14.2703V14.0765C471.769 13.7037 471.68 13.4353 471.486 13.2713C471.307 13.1072 470.949 13.0327 470.427 13.0327C470.084 13.0327 469.801 13.1072 469.607 13.2414C469.413 13.3757 469.249 13.6142 469.13 13.9572" fill="#164194"/>
<path d="M477.197 15.2398C477.197 16.0301 477.301 16.5967 477.525 16.9546C477.838 17.4616 478.285 17.7151 478.852 17.7151C479.299 17.7151 479.687 17.5212 480 17.1335C480.313 16.7458 480.477 16.1792 480.477 15.4187C480.477 14.5688 480.328 13.9574 480.015 13.5846C479.702 13.2118 479.314 13.018 478.837 13.018C478.36 13.018 477.987 13.1969 477.674 13.5697C477.361 13.9425 477.197 14.4942 477.197 15.2249M482.431 19.0869H480.612V17.9984C480.313 18.4159 479.955 18.744 479.538 18.9378C479.12 19.1466 478.718 19.251 478.3 19.251C477.45 19.251 476.72 18.908 476.108 18.2221C475.497 17.5362 475.199 16.5818 475.199 15.3442C475.199 14.1065 475.497 13.1373 476.093 12.4812C476.69 11.8251 477.435 11.497 478.33 11.497C479.15 11.497 479.881 11.84 480.477 12.5259V8.84277H482.431V19.072V19.0869Z" fill="#164194"/>
<path d="M485.92 15.4031C485.92 16.1337 486.099 16.7004 486.442 17.0881C486.8 17.4758 487.217 17.6696 487.724 17.6696C488.231 17.6696 488.663 17.4758 489.006 17.0881C489.349 16.7004 489.528 16.1337 489.528 15.3882C489.528 14.6426 489.349 14.1058 489.006 13.7181C488.663 13.3304 488.231 13.1365 487.724 13.1365C487.217 13.1365 486.785 13.3304 486.442 13.7181C486.099 14.1058 485.92 14.6724 485.92 15.4031ZM483.907 15.2987C483.907 14.6426 484.071 14.0163 484.384 13.4049C484.697 12.7936 485.159 12.3313 485.756 12.0182C486.337 11.6901 486.993 11.541 487.724 11.541C488.842 11.541 489.767 11.8989 490.483 12.6296C491.198 13.3602 491.556 14.2847 491.556 15.3882C491.556 16.4916 491.198 17.446 490.468 18.1766C489.752 18.9073 488.828 19.2801 487.739 19.2801C487.068 19.2801 486.412 19.1309 485.8 18.8178C485.189 18.5047 484.712 18.0573 484.399 17.4609C484.086 16.8644 483.922 16.1487 483.922 15.2987" fill="#164194"/>
<path d="M498.938 15.2838C498.938 16.1188 499.102 16.7302 499.43 17.1328C499.758 17.5354 500.161 17.7293 500.638 17.7293C501.115 17.7293 501.473 17.5503 501.771 17.1775C502.069 16.8048 502.219 16.2083 502.219 15.3882C502.219 14.6128 502.069 14.0312 501.756 13.6584C501.443 13.2857 501.056 13.0918 500.593 13.0918C500.131 13.0918 499.713 13.2707 499.4 13.6435C499.087 14.0163 498.923 14.5531 498.923 15.2838M496.985 11.705H498.819V12.7936C499.057 12.4208 499.37 12.1226 499.773 11.884C500.176 11.6454 500.623 11.541 501.115 11.541C501.98 11.541 502.711 11.884 503.307 12.555C503.904 13.226 504.202 14.1654 504.202 15.3733C504.202 16.5811 503.904 17.5652 503.292 18.2512C502.696 18.9371 501.95 19.2801 501.1 19.2801C500.683 19.2801 500.325 19.1906 499.982 19.0415C499.654 18.8775 499.296 18.5941 498.923 18.2064V21.9343H496.97V11.705H496.985Z" fill="#164194"/>
<path d="M510.196 14.7765C510.181 14.2099 510.032 13.7775 509.748 13.4792C509.465 13.181 509.137 13.0319 508.734 13.0319C508.302 13.0319 507.959 13.181 507.676 13.4942C507.392 13.8073 507.258 14.2248 507.258 14.7616H510.196V14.7765ZM510.076 16.7598L512.03 17.0878C511.776 17.8036 511.389 18.3553 510.837 18.7281C510.3 19.1009 509.614 19.2947 508.809 19.2947C507.527 19.2947 506.572 18.8772 505.946 18.0272C505.454 17.3562 505.215 16.5063 505.215 15.4774C505.215 14.2546 505.528 13.2854 506.185 12.5995C506.826 11.8986 507.631 11.5557 508.615 11.5557C509.719 11.5557 510.583 11.9135 511.225 12.6442C511.866 13.3749 512.164 14.4932 512.134 15.9844H507.228C507.228 16.5659 507.392 17.0133 507.706 17.3413C508.004 17.6694 508.391 17.8334 508.839 17.8334C509.152 17.8334 509.405 17.7439 509.614 17.5799C509.823 17.4159 509.987 17.1475 510.091 16.7747" fill="#164194"/>
</g>
<path d="M515.683 8.88672H513.729V19.116H515.683V8.88672Z" fill="#164194"/>
<mask id="mask5_2088_7" style="mask-type:luminance" maskUnits="userSpaceOnUse" x="0" y="0" width="525" height="48">
<path d="M524.138 0H0V48H524.138V0Z" fill="white"/>
</mask>
<g mask="url(#mask5_2088_7)">
<path d="M521.782 15.5527C521.529 15.6422 521.141 15.7317 520.589 15.851C520.038 15.9702 519.695 16.0746 519.516 16.1939C519.262 16.3729 519.128 16.6114 519.128 16.8798C519.128 17.1483 519.232 17.3868 519.441 17.5956C519.65 17.7894 519.903 17.8938 520.217 17.8938C520.574 17.8938 520.902 17.7745 521.231 17.5509C521.469 17.3719 521.618 17.1632 521.693 16.9097C521.737 16.7456 521.767 16.4176 521.767 15.9553V15.5676L521.782 15.5527ZM519.158 13.9572L517.383 13.6291C517.577 12.9134 517.92 12.3766 518.412 12.0336C518.904 11.6907 519.62 11.5117 520.589 11.5117C521.469 11.5117 522.11 11.6161 522.543 11.8249C522.975 12.0336 523.273 12.302 523.452 12.6152C523.631 12.9283 523.706 13.5248 523.706 14.3747V16.6562C523.691 17.3123 523.706 17.7894 523.78 18.1026C523.84 18.4157 523.959 18.7438 524.123 19.1017H522.185C522.125 18.9674 522.066 18.7736 521.991 18.5201C521.961 18.4008 521.931 18.3263 521.916 18.2964C521.588 18.6245 521.23 18.8631 520.843 19.0271C520.455 19.1911 520.052 19.2657 519.62 19.2657C518.86 19.2657 518.263 19.0569 517.816 18.6394C517.368 18.2219 517.16 17.7 517.16 17.0737C517.16 16.6562 517.264 16.2834 517.458 15.9553C517.652 15.6273 517.935 15.3738 518.293 15.2098C518.651 15.0308 519.173 14.8817 519.859 14.7475C520.768 14.5835 521.409 14.4195 521.767 14.2703V14.0765C521.767 13.7037 521.678 13.4353 521.484 13.2713C521.305 13.1072 520.947 13.0327 520.425 13.0327C520.082 13.0327 519.799 13.1072 519.605 13.2414C519.411 13.3757 519.247 13.6142 519.128 13.9572" fill="#164194"/>
<path d="M402.61 26.0205H404.682V31.5527C404.682 32.4324 404.712 32.9991 404.757 33.2675C404.846 33.685 405.055 34.028 405.383 34.2815C405.711 34.535 406.173 34.6692 406.74 34.6692C407.307 34.6692 407.769 34.5499 408.067 34.3113C408.365 34.0727 408.544 33.7745 408.604 33.4315C408.664 33.0885 408.694 32.507 408.694 31.6869V26.0354H410.751V31.4035C410.751 32.6263 410.692 33.4911 410.587 33.9981C410.483 34.5051 410.274 34.9376 409.976 35.2805C409.678 35.6384 409.275 35.9068 408.768 36.1156C408.261 36.3243 407.605 36.4287 406.8 36.4287C405.831 36.4287 405.085 36.3094 404.578 36.0857C404.071 35.8621 403.668 35.5638 403.385 35.206C403.087 34.8481 402.893 34.4753 402.803 34.0727C402.669 33.4911 402.595 32.6263 402.595 31.4781V26.0205H402.61Z" fill="#164194"/>
<path d="M419.668 36.2498H417.715V32.4623C417.715 31.6571 417.67 31.1501 417.596 30.9115C417.506 30.6729 417.372 30.494 417.193 30.3598C416.999 30.2256 416.776 30.166 416.507 30.166C416.164 30.166 415.866 30.2554 415.598 30.4493C415.329 30.6282 415.15 30.8817 415.046 31.1948C414.942 31.508 414.897 32.0746 414.897 32.8947V36.2498H412.943V28.8388H414.763V29.9274C415.404 29.0923 416.224 28.6748 417.208 28.6748C417.64 28.6748 418.028 28.7494 418.401 28.9134C418.759 29.0625 419.027 29.2713 419.206 29.5098C419.385 29.7484 419.519 30.0317 419.594 30.33C419.668 30.6282 419.698 31.0755 419.698 31.6422V36.2498H419.668Z" fill="#164194"/>
</g>
<path d="M421.651 28.8388H423.605V36.2498H421.651V28.8388ZM421.651 26.0205H423.605V27.8397H421.651V26.0205Z" fill="#164194"/>
<mask id="mask6_2088_7" style="mask-type:luminance" maskUnits="userSpaceOnUse" x="0" y="0" width="525" height="48">
<path d="M524.138 0H0V48H524.138V0Z" fill="white"/>
</mask>
<g mask="url(#mask6_2088_7)">
<path d="M429.719 32.701C429.465 32.7905 429.077 32.88 428.526 32.9993C427.974 33.1186 427.631 33.2229 427.452 33.3422C427.198 33.5212 427.064 33.7597 427.064 34.0282C427.064 34.2966 427.169 34.5351 427.377 34.7439C427.586 34.9377 427.84 35.0421 428.153 35.0421C428.511 35.0421 428.839 34.9228 429.167 34.6992C429.405 34.5202 429.555 34.3115 429.629 34.0431C429.674 33.879 429.704 33.5659 429.704 33.0887V32.701H429.719ZM427.079 27.8548H426.185C426.185 27.7504 426.185 27.661 426.185 27.6013C426.185 27.1092 426.304 26.7364 426.542 26.468C426.781 26.1996 427.079 26.0654 427.452 26.0654C427.616 26.0654 427.765 26.0803 427.899 26.1102C428.034 26.14 428.302 26.2444 428.66 26.4084C429.033 26.5724 429.316 26.6619 429.525 26.6619C429.674 26.6619 429.793 26.6172 429.897 26.5277C430.002 26.4382 430.062 26.2742 430.091 26.0654H431.001C431.001 26.6917 430.882 27.1391 430.643 27.4075C430.419 27.6759 430.121 27.8101 429.748 27.8101C429.584 27.8101 429.435 27.7952 429.286 27.7653C429.182 27.7355 428.913 27.646 428.481 27.482C428.048 27.318 427.735 27.2434 427.541 27.2434C427.392 27.2434 427.273 27.2882 427.199 27.3776C427.109 27.4671 427.064 27.6311 427.064 27.8399M427.064 31.1055L425.29 30.7775C425.484 30.0617 425.827 29.5249 426.319 29.1819C426.811 28.839 427.527 28.66 428.496 28.66C429.376 28.66 430.017 28.7644 430.449 28.9732C430.882 29.1819 431.18 29.4354 431.359 29.7635C431.538 30.0766 431.612 30.6582 431.612 31.523V33.8045C431.597 34.4606 431.612 34.9377 431.687 35.2509C431.746 35.564 431.866 35.8921 432.045 36.25H430.106C430.047 36.1158 429.987 35.9219 429.912 35.6684C429.883 35.5491 429.853 35.4746 429.838 35.4447C429.51 35.7728 429.152 36.0114 428.764 36.1754C428.376 36.3394 427.974 36.414 427.541 36.414C426.781 36.414 426.17 36.2052 425.737 35.7877C425.29 35.3702 425.081 34.8483 425.081 34.222C425.081 33.8045 425.185 33.4317 425.379 33.1036C425.573 32.7756 425.856 32.5221 426.214 32.3432C426.572 32.1642 427.094 32.0151 427.765 31.8809C428.69 31.702 429.316 31.5528 429.674 31.4037V31.2099C429.674 30.8371 429.584 30.5687 429.39 30.4047C429.212 30.2406 428.854 30.1661 428.332 30.1661C427.989 30.1661 427.705 30.2406 427.512 30.3748C427.318 30.509 427.154 30.7476 427.034 31.0906" fill="#164194"/>
<path d="M435.132 32.5528C435.132 33.2834 435.311 33.8501 435.654 34.2378C435.997 34.6255 436.429 34.8193 436.936 34.8193C437.443 34.8193 437.875 34.6255 438.218 34.2378C438.561 33.8501 438.74 33.2834 438.74 32.5378C438.74 31.7923 438.561 31.2555 438.218 30.8678C437.875 30.4801 437.443 30.2862 436.936 30.2862C436.429 30.2862 435.997 30.4801 435.654 30.8678C435.311 31.2555 435.132 31.8221 435.132 32.5528ZM433.119 32.4484C433.119 31.7923 433.283 31.166 433.596 30.5546C433.909 29.9433 434.371 29.481 434.953 29.1529C435.534 28.8249 436.19 28.6758 436.921 28.6758C438.039 28.6758 438.964 29.0337 439.68 29.7643C440.395 30.495 440.753 31.4046 440.753 32.5229C440.753 33.6413 440.395 34.5807 439.665 35.3114C438.949 36.042 438.025 36.4148 436.936 36.4148C436.25 36.4148 435.609 36.2657 434.997 35.9526C434.386 35.6394 433.909 35.1921 433.596 34.5956C433.268 33.9992 433.119 33.2834 433.119 32.4335" fill="#164194"/>
</g>
<path d="M446.285 36.2498V26.0205H453.86V27.7502H448.343V30.0168H453.472V31.7465H448.343V34.535H454.054V36.2498H446.285Z" fill="#164194"/>
<mask id="mask7_2088_7" style="mask-type:luminance" maskUnits="userSpaceOnUse" x="0" y="0" width="525" height="48">
<path d="M524.138 0H0V48H524.138V0Z" fill="white"/>
</mask>
<g mask="url(#mask7_2088_7)">
<path d="M460.675 36.2489V35.1454C460.406 35.548 460.049 35.8463 459.616 36.0849C459.184 36.3085 458.707 36.4278 458.229 36.4278C457.752 36.4278 457.29 36.3234 456.887 36.0998C456.5 35.8761 456.201 35.5779 456.037 35.1753C455.859 34.7727 455.769 34.2358 455.769 33.535V28.8528H457.737V32.2526C457.737 33.2964 457.767 33.9376 457.842 34.1613C457.916 34.3999 458.05 34.5788 458.229 34.713C458.423 34.8472 458.662 34.9218 458.96 34.9218C459.288 34.9218 459.601 34.8323 459.855 34.6534C460.123 34.4744 460.302 34.2358 460.406 33.9674C460.511 33.699 460.556 33.028 460.556 31.9693V28.8379H462.509V36.2489H460.69H460.675Z" fill="#164194"/>
<path d="M466.401 36.2498H464.447V28.8388H466.266V29.8975C466.58 29.4055 466.863 29.0774 467.102 28.9134C467.34 28.7494 467.638 28.6748 467.951 28.6748C468.399 28.6748 468.831 28.7941 469.234 29.0476L468.623 30.7624C468.294 30.5536 467.981 30.4344 467.698 30.4344C467.415 30.4344 467.191 30.5089 466.997 30.658C466.803 30.8071 466.654 31.0756 466.55 31.4782C466.445 31.8659 466.386 32.7009 466.386 33.9535V36.2349L466.401 36.2498Z" fill="#164194"/>
<path d="M471.635 32.5518C471.635 33.2824 471.814 33.8491 472.157 34.2368C472.5 34.6245 472.932 34.8183 473.439 34.8183C473.946 34.8183 474.379 34.6245 474.722 34.2368C475.065 33.8491 475.244 33.2824 475.244 32.5369C475.244 31.7913 475.065 31.2545 474.722 30.8668C474.379 30.4791 473.946 30.2852 473.439 30.2852C472.932 30.2852 472.5 30.4791 472.157 30.8668C471.814 31.2545 471.635 31.8211 471.635 32.5518ZM469.622 32.4474C469.622 31.7913 469.786 31.165 470.099 30.5536C470.412 29.9423 470.875 29.48 471.471 29.152C472.053 28.8239 472.709 28.6748 473.439 28.6748C474.558 28.6748 475.482 29.0327 476.198 29.7633C476.914 30.494 477.272 31.4036 477.272 32.522C477.272 33.6403 476.914 34.5797 476.183 35.3104C475.467 36.0411 474.543 36.4139 473.454 36.4139C472.783 36.4139 472.127 36.2647 471.516 35.9516C470.904 35.6385 470.427 35.1911 470.114 34.5947C469.786 33.9982 469.637 33.2824 469.637 32.4325" fill="#164194"/>
<path d="M480.686 32.4176C480.686 33.2526 480.85 33.864 481.178 34.2666C481.506 34.6692 481.909 34.8631 482.386 34.8631C482.863 34.8631 483.221 34.6841 483.519 34.3113C483.818 33.9386 483.967 33.3421 483.967 32.522C483.967 31.7466 483.818 31.165 483.505 30.7922C483.191 30.4194 482.804 30.2256 482.341 30.2256C481.879 30.2256 481.462 30.4045 481.149 30.7773C480.835 31.1501 480.671 31.6869 480.671 32.4176M478.733 28.8388H480.567V29.9274C480.806 29.5546 481.119 29.2564 481.536 29.0178C481.939 28.7792 482.386 28.6748 482.878 28.6748C483.743 28.6748 484.474 29.0178 485.07 29.6888C485.667 30.3598 485.965 31.2992 485.965 32.5071C485.965 33.7149 485.667 34.699 485.055 35.385C484.459 36.0709 483.713 36.4139 482.863 36.4139C482.461 36.4139 482.088 36.3393 481.76 36.1753C481.432 36.0112 481.074 35.7279 480.701 35.3402V39.0681H478.748V28.8388H478.733Z" fill="#164194"/>
<path d="M491.93 31.9106C491.915 31.344 491.766 30.9115 491.482 30.6133C491.199 30.3151 490.856 30.166 490.468 30.166C490.036 30.166 489.693 30.3151 489.41 30.6282C489.126 30.9413 488.992 31.3589 488.992 31.8957H491.93V31.9106ZM491.81 33.8938L493.764 34.2219C493.51 34.9376 493.123 35.4893 492.571 35.8621C492.034 36.2349 491.348 36.4288 490.543 36.4288C489.26 36.4288 488.306 36.0112 487.68 35.1613C487.188 34.4903 486.949 33.6403 486.949 32.6114C486.949 31.3887 487.277 30.4194 487.918 29.7186C488.56 29.0178 489.365 28.6748 490.349 28.6748C491.452 28.6748 492.317 29.0327 492.959 29.7633C493.6 30.494 493.898 31.6124 493.868 33.1035H488.962C488.977 33.6851 489.141 34.1324 489.439 34.4605C489.738 34.7885 490.11 34.9525 490.573 34.9525C490.886 34.9525 491.139 34.8631 491.348 34.699C491.557 34.535 491.721 34.2666 491.825 33.8938" fill="#164194"/>
</g>
<path d="M495.478 28.8388H497.446V36.2498H495.478V28.8388ZM495.478 26.0205H497.446V27.8397H495.478V26.0205Z" fill="#164194"/>
<mask id="mask8_2088_7" style="mask-type:luminance" maskUnits="userSpaceOnUse" x="0" y="0" width="525" height="48">
<path d="M524.138 0H0V48H524.138V0Z" fill="white"/>
</mask>
<g mask="url(#mask8_2088_7)">
<path d="M503.53 32.7012C503.277 32.7906 502.889 32.8801 502.337 32.9994C501.801 33.1187 501.443 33.2231 501.264 33.3424C501.01 33.5213 500.876 33.7599 500.876 34.0283C500.876 34.2967 500.98 34.5353 501.189 34.744C501.398 34.9379 501.651 35.0423 501.965 35.0423C502.322 35.0423 502.651 34.923 502.979 34.6993C503.217 34.5204 503.366 34.3116 503.441 34.0432C503.486 33.8792 503.515 33.566 503.515 33.0889V32.7012H503.53ZM500.906 31.1056L499.131 30.7776C499.325 30.0618 499.668 29.525 500.16 29.1821C500.652 28.8391 501.368 28.6602 502.337 28.6602C503.217 28.6602 503.858 28.7645 504.291 28.9733C504.723 29.1821 505.021 29.4356 505.2 29.7636C505.379 30.0767 505.454 30.6583 505.454 31.5232V33.8046C505.439 34.4607 505.454 34.9379 505.528 35.251C505.588 35.5642 505.707 35.8922 505.871 36.2501H503.933C503.873 36.1159 503.814 35.922 503.739 35.6685C503.709 35.5493 503.679 35.4747 503.664 35.4449C503.336 35.7729 502.979 36.0115 502.591 36.1755C502.203 36.3396 501.801 36.4141 501.368 36.4141C500.608 36.4141 499.996 36.2054 499.564 35.7878C499.116 35.3703 498.908 34.8484 498.908 34.2221C498.908 33.8046 499.012 33.4318 499.206 33.1038C499.4 32.7757 499.683 32.5222 500.041 32.3433C500.399 32.1644 500.921 32.0152 501.592 31.881C502.501 31.7021 503.143 31.553 503.5 31.4039V31.21C503.5 30.8372 503.411 30.5688 503.217 30.4048C503.038 30.2408 502.68 30.1662 502.158 30.1662C501.815 30.1662 501.532 30.2408 501.338 30.375C501.144 30.5092 500.98 30.7478 500.861 31.0907" fill="#164194"/>
</g>
</svg>
