<svg id="Layer_1" data-name="Layer 1" xmlns="http://www.w3.org/2000/svg" viewBox="0 0 425.23 225.54"><polygon points="328.31 71.81 328.31 71.81 328.31 71.81 328.31 71.81"/><path d="M329,70.67c-.07,0-.07,0-.09-.08s0,0,0,0,0-.08-.05-.11a.08.08,0,0,1,0,0s0,0,0-.07,0-.07,0-.1,0,0,0,0,0-.14-.08-.19,0-.05-.05,0h-.07l.06,0h.09v0a.1.1,0,0,0-.11,0h0s0,0,0,0l0-.06c0-.1-.05-.27-.05-.29s0,0,0-.13a8.12,8.12,0,0,0-.23-1c-.56-2-.77-2.7-.92-3.45-.05-.27-.16-.67-.31-1.2a6.49,6.49,0,0,0-.24-.76l-.17-.42a16,16,0,0,1-.55-1.7l-.22-.72a16.55,16.55,0,0,1-.59-1.81c-.15-.51-.37-1.2-.43-1.5l-.33-1.09a15.82,15.82,0,0,1-.63-2.05l-.14-.56.1.31a25.91,25.91,0,0,0,.89,2.67l.23.77c.64,2.11.59,1.93.64,1.86s-.45-1.62-.44-1.74l-.14-.42c0-.07-.06-.06-.1-.13s-.08-.23-.12-.38l-.12-.43c-.06-.25-.14-.57-.14-.64s-.23-.9-.43-1.6L324,53a27,27,0,0,1-.69-2.61c-.09-.4-.29-1.27-.4-1.68-.17-.73-.35-1.47-.49-2.22l-.21-1.14a4.29,4.29,0,0,0-.45-1.37,2.34,2.34,0,0,0-.85-.83,2.65,2.65,0,0,0-.74-.26,12.75,12.75,0,0,0-1.38-.07l-1.46-.05c-1.83-.06-3.63-.14-5.48-.26l-3.24-.22q-3.08-.22-6.2-.68c-1.34-.19-2.62-.41-3.9-.64-1.61-.3-3.27-.7-4.88-1.13l-.29-.09a3.9,3.9,0,0,0-.74-.21l-1-.22a11.08,11.08,0,0,1-1.15-.38c-.3-.13-.62-.26-1.77-.66-.42-.15-1.11-.43-1.47-.58-1.32-.58-2.84-1.23-4.22-1.94-.77-.39-1.19-.6-.83-.38.95.56-1-.44-.88-.35l-.64-.36c-.35-.2-.71-.41-1-.57a2.88,2.88,0,0,0-.5-.3c-.07,0,.07.11.18.22s.46.3.35.25-.66-.36-1.07-.6c-.76-.46-1.56-1-2.3-1.49a5.1,5.1,0,0,1-.5-.38A20.93,20.93,0,0,1,278,33l.63.4a7.4,7.4,0,0,0,.84.46s-.21-.15-.36-.24c-1-.58-1.9-1.19-2.83-1.83s-1.62-1.11-1-.64.07.1-.36-.19a24.23,24.23,0,0,1-2.1-1.57l-1.19-1A23.25,23.25,0,0,1,269.16,26s0,0,0,0c-.36-.4-.54-.57-1.49-1.51-.62-.62-1.26-1.28-1.87-1.92-1.07-1.14-1.38-1.46-2-2-.2-.19-.42-.4-.88-.88l-1.16-1.2c-.52-.51-.61-.61-.92-.94s-1.25-1.29-2-2a12.7,12.7,0,0,0-1-.92c-.13-.1-.15-.1-.18-.11a14.15,14.15,0,0,1-1.44-1.18A10.09,10.09,0,0,0,254.47,12l-.29-.21-.5-.37a1.33,1.33,0,0,1-.3-.18l-1-.74-1.59-1.2a.81.81,0,0,1-.19-.18c-.68-.47-.89-.64-1.16-.86s-.61-.47-1.08-.8c-.72-.5-1.56-1-1.59-1.1L246.22,6c-.91-.51-2.11-1.25-2.54-1.51a31.46,31.46,0,0,0-3.41-1.78c-.47-.22-1-.43-1.44-.62s-1-.38-1.46-.55c-1.23-.44-2.33-.73-3-.92a7.15,7.15,0,0,0-1.26-.27c-.9-.14-1.94-.25-3.31-.34h-1.38l-.83.08-.57.05a3.17,3.17,0,0,0-.45.11l-.53.16-.7.2c-.23.08-.51.1-.59.3a1.07,1.07,0,0,0-.06,1.23l.46.49c.25.15.53.29.8.43l1,.51c2.42,1.27,4.89,2.3,7.3,3.55.36.19.89.47.72.34s.12,0,1,.51,2,1.12,2.94,1.72l1.22.71c1,.64,1.76,1.06,2.33,1.37a16.83,16.83,0,0,1,1.5.94,21.84,21.84,0,0,1,3.11,2.41c.19.19.16.14.21.18a.27.27,0,0,1,.09.16c0,.07,0,.18-.06.13s-.05-.05-.08,0-.06,0-.1,0l-.14-.07c-.19-.11-.22-.11-.27-.11s-.61-.26-.43-.14c.4.27-.37-.11-1.29-.59s-1.28-.63-1.59-.76c-.13-.05-.85-.42-1.23-.61s-.79-.41-.93-.5a2,2,0,0,1-.38-.28s.08,0,.28.11c1.1.49,1.92.86,3.54,1.69l.45.22-.3-.18c-.9-.49-1.81-1-2.76-1.42l-1-.51c-1.41-.73-3-1.47-4.55-2.13-1.88-.84-4-1.67-5.66-2.23-.9-.3.35.2-.26,0L232,8.5a13.57,13.57,0,0,1,1.74.7c.34.17,1,.44,1.54.69l.83.37a.87.87,0,0,0,.33.11c.05,0-.06-.09.11,0s.71.29,1.09.45a2.55,2.55,0,0,1,.4.21c-.36-.13-.23,0,.11.15s.06.1-.55-.14l-.63-.26c-.58-.32-2.27-1-2.88-1.31a19.13,19.13,0,0,0-2.18-.86c-.68-.23-1.39-.5-2.18-.79-.29-.09-.7-.24-.75-.26a3.94,3.94,0,0,0-.88-.3l-1.86-.57c-.69-.22-.69-.25,0-.07.4.09.89.22,1.28.34.15,0,.28.06.2,0-.53-.2-1.13-.38-1.71-.56l-.58-.14-.62-.17a21.35,21.35,0,0,0-2.25-.58c-.46-.1-1-.25-1.49-.34l-1.26-.25a4.84,4.84,0,0,0-1.24-.22c-.07,0,.13.07-1.2-.1h-.2c.31.07,1.23.22,0,.09,1.34.2.42.1-.42,0l-1-.08a1.92,1.92,0,0,0-.33,0c-.07,0-.25,0-.2,0,.22,0-.63-.14.69,0h.22l-.72-.08a14.27,14.27,0,0,0-1.88,0c-.14,0,0,0-.08,0s-1,0-1.54,0-.84,0-.41,0,0,0-.54,0h-1.25c.24,0,.49,0,.72,0a9,9,0,0,0,2-.08,5.39,5.39,0,0,1,.89,0c.33,0,0,0-.54-.08a16.41,16.41,0,0,0-2.07.07c-.26.06-.54,0-1.22.07l-1.78.16a4,4,0,0,0-.64.08,2.29,2.29,0,0,0-.41.19.94.94,0,0,0-.44.66,1,1,0,0,0,.08.59,2.17,2.17,0,0,0,.32.37,1,1,0,0,0,.18.17,1.75,1.75,0,0,0,.27.16l.55.31.53.29.53.27c.63.29,1.22.55,1.83.79l-.33-.16c-.69-.32-.15-.1,0-.06s.55.21,1,.4a11.35,11.35,0,0,0,1.85.61c.34,0,1.35.28,2.28.48l1.64.4c.18.05.16,0,0,0-1.14-.35-1.08-.39.56.06,1.3.38,1.4.41,1.35.35a2,2,0,0,0-.32-.15c-.06,0-.2-.09-.11-.07l.74.21.67.27c.14.06.09.06.18.11l.34.14.56.21c.12,0,.09,0,.12,0,.22,0,.24,0,2.58,1.05l1,.49.72.36-.36-.15c-1.11-.52-1-.42-.95-.35s.09.15-.25,0L222.36,12c-.7-.28-.76-.27-.22,0l2,1c1.33.64,3,1.33,4.42,1.9a14.42,14.42,0,0,1,1.78.79l.21.12.14.08L231,16c.16.1.32.18.36.32a.15.15,0,0,1-.11.13s-.1,0-.14,0l-1.15-.23c-.51-.11-.64-.14-.25,0,.82.26.15.11-1.48-.27l-1-.23a14.94,14.94,0,0,1-2.39-.6c-.1-.06,0-.08-1-.31-.8-.2-1.33-.31-1.95-.41s-1.33-.2-2-.28l-.59-.09c-2.3-.42-2.31-.38-3.78-.7l-.28-.06-.3-.05-.2,0-.24,0,.36.08c.13,0-.23,0-1.06-.11l-1.37-.21c-.22-.09-1.6-.22-2.56-.32l-1.28-.11c-1.13-.12-2-.14-2.74-.15a8,8,0,0,1-1-.05c-.4,0-.94,0-1.51,0-.31,0-.52,0-1,0l-1,.2-1,.19-.59.1a.66.66,0,0,0-.3.52.64.64,0,0,0,.17.56c.06,0,0,0-.06-.12s0-.17,0-.39.07-.23,0,0a.72.72,0,0,0,.09.4.56.56,0,0,0,.16.15l.25.11a18.73,18.73,0,0,0,2.41.81c-.21,0-.21,0-.06,0l.54.19c.09,0,.19.06.13,0l-.22,0-.67-.17-.33-.08.74.23.69.19c.49.14,1,.27,1.51.38l.53.11,1,.25c1.12.29,2.6.68,3.34.89a19.46,19.46,0,0,0,2,.53l.49.13c.43.17,1.35.4,2.34.66l.86.26a14.15,14.15,0,0,0,1.73.48c1.05.25,2,.5,3.22.86a5.31,5.31,0,0,0,1,.25,3.93,3.93,0,0,1,1,.18c.56.12,1,.24,1.63.39.77.2.54.16.66.21a5.76,5.76,0,0,0,.62.2c.91.22,1.92.53,2.64.72l.82.28c1.09.43,2.35.9,3.43,1.45a7.42,7.42,0,0,1,1.27.78c.17.14.35.34.27.54s-.23.27-.37.16l-.2-.09-.13-.05-.25-.1-1.35-.49c-.23-.08-.78-.26-.54-.16s.11.07-.63-.18l-1.82-.58c-.66-.2-1.31-.35-1.95-.51l-.87-.21-.32-.1c.67.14-.48-.16-.84-.25-.56-.16-1.36-.35-1.65-.4-.67-.1-1.56-.31-2.61-.56-1.24-.27-3.08-.62-3.62-.65-.08,0,0,0,.17.05.55.11.64.13.2.07-.84-.11-1-.13-2.45-.42-.91-.15-.89-.15.06,0,.31,0,.71.1.67.08s-.63-.11-1-.16l-2.41-.35c-.41-.06-.26-.08-.46-.13s-.57-.09-1.43-.17a6.58,6.58,0,0,0-1.32-.08,9,9,0,0,1-1.29-.05,3.13,3.13,0,0,1-1-.12c-.26,0-.81-.1-1.14-.11-1,0-1.91-.09-2.86-.09s-1.91,0-2.82,0c-.5.05-2.79.12-3.29.21l-.78.07-1.14.12-1.15.19c-.26.05-1.07.15-1.64.29a1.68,1.68,0,0,0-.56.33,1,1,0,0,0-.26.66.85.85,0,0,0,.22.61,1.44,1.44,0,0,0,.58.45l1.4.62c.67.31,1.34.55,2,.8l1.33.53c.44.17.8.31.81.33a4,4,0,0,0,.83.34c1.11.39,2.5.89,3.26,1.11l3.4,1.07c1.33.39,2.36.72,3,1a5.31,5.31,0,0,0,.94.27,6,6,0,0,1,.91.24c1.17.36,2.33.7,3.71,1.07a12.35,12.35,0,0,0,1.33.35,13.06,13.06,0,0,1,1.45.39c.49.16.75.26,1.15.4s.64.23.94.31l4.53,1.37.9.29c.13,0,.27.11.22.1s-1-.33-.09,0c.74.27,1.26.45,1.92.66s.56.17.39.09.16,0,.24,0c1.37.49,2.19.78,3.38,1.25a3.82,3.82,0,0,1,.65.29,4.54,4.54,0,0,0,.49.31c.4.22,1,.49,1.55.71s1,.41,2.06,1l1.63.88c.55.29,1.08.61,1.62.92,1.24.73,2.47,1.51,3.67,2.33.44.29.47.32.29.22s-.16-.09-.12-.06l.37.29.47.31.57.29.44.28c.65.46,1.58,1.2,1.81,1.39l2.9,2.43c1,.88,2.09,1.85,2.75,2.53l.88.87c.71.66,1.46,1.42,2,2s.73.74,1.16,1.22,1,1.08,1.48,1.64l.66.75.33.38a1.81,1.81,0,0,1,.22.32,1.53,1.53,0,0,1,.18.71,1,1,0,0,1-.19.61.81.81,0,0,1-.55.25,9.12,9.12,0,0,1-.94,0c-.67,0-1.33,0-2,0a9.48,9.48,0,0,1-1.22-.09c-.42-.06-.8-.18-1-.22a2.55,2.55,0,0,1-.81-.4c-.55-.43-.72-.64-1.62-1.36-.71-.54-1.11-.89-1.62-1.27s-.73-.57-1.17-.85c-.67-.43-2.14-1.39-3.15-1.94a32.67,32.67,0,0,0-5-2.38c-1.14-.43-2.1-.68-2.74-.9l-.61-.14c-1.22-.27-2.34-.4-3.21-.51-.07,0-.37,0-.62,0s-.44,0-.27,0a3.28,3.28,0,0,1-.43,0h-.74l-.82.07a2.43,2.43,0,0,0-.88.16.8.8,0,0,0-.53.48.88.88,0,0,0,0,.73,6.79,6.79,0,0,0,.52.58l.39.27.19.14.12.1.37.3a36.35,36.35,0,0,1,2.79,2.64,39.41,39.41,0,0,1,3.07,3.7c.57.77,1.43,1.89,2.18,2.85l1.88,2.38c.61.76,1.14,1.35,2,2.19l.14.15c1,1,1,1,1.76,1.83.3.31.68.71,1.07,1.09a53.77,53.77,0,0,0,4.57,3.91c.6.45,1.2.91,1.79,1.33a18.13,18.13,0,0,0,4.66,2.55l.47.16a15.34,15.34,0,0,0,2.85.67,65.47,65.47,0,0,0,9.48.29c3.32-.09,6.76-.22,10.13-.45,3.55-.24,3.54-.26,2.74-.3a.33.33,0,0,0-.17,0l-.94,0s0,0,0,0l.34,0h.18c.07,0,.06,0,.87,0a7.94,7.94,0,0,1,1.47-.08s.69,0,.82-.06c1.21-.14,3-.28,4.07-.42.41-.06,1.1-.12,1.63-.15l1.05-.07c.87,0,1.75-.11,3.06-.27l.78-.07,6.71-.67c1.9-.2,3.74-.37,5.81-.52.9-.06.55-.06.55-.07a6.45,6.45,0,0,1,1.23-.12l1.16-.07c.76,0,1.46-.07,2.16-.14s1.23-.1,2-.14l1.33,0c1.37-.07,2.61-.19,4.16-.18l.47,0a21.12,21.12,0,0,1,2.6,0l1.37,0a6.5,6.5,0,0,0,.66,0l.4,0h.14c0,.07.12.07.17.09a.13.13,0,0,0,.08,0s0,0,0,0,.05-.08.1-.08h0l0-.1s0,0,0-.06,0,0,0,0h0s.07,0,.11,0H325s0,0,0,0,0,0,0-.05h0l2.79.16a.43.43,0,0,0,0,0s0,0,0,0h.12s0,0,0,0h0s0,0,.05,0h.17v0l.11,0,.05,0h0a.36.36,0,0,0,0-.1s0,0,0,0,.06-.05.05-.1,0,0,0-.07a.1.1,0,0,1,0,0c.05,0,.05,0,0-.06s0,0,0,0,0,0,0,0,0,0,.05,0a.27.27,0,0,1,.08.07h0a.09.09,0,0,0,0-.11s-.07-.1-.14-.11v0s0-.06-.08-.07-.06,0-.08-.07a.07.07,0,0,1,0,0l0,0,.09,0a.6.6,0,0,0,.2-.08.13.13,0,0,1,.12,0c.06,0,.1,0,.09-.08Zm-.67-.62.08.11s0,0,0,0h0a.11.11,0,0,0-.11,0s0,0,0,0v0l0,0a.07.07,0,0,1,0,0S328.27,70,328.28,70.05Zm-5.6-19.81c-.2-.82-.41-1.66-.58-2.48l-.18-.73c-.07-.26-.12-.38-.18-.58a2.5,2.5,0,0,1-.07-.31l-.07-.41c.07.21.07.06-.05-.65,0,0,0,0,0,0s.2.9.36,1.71.37,1.66.45,2S322.58,49.78,322.68,50.24ZM319.38,43a4.29,4.29,0,0,1,1.08.2,2,2,0,0,1,1.07.84,3.54,3.54,0,0,1,.42,1.14l.2,1,.12.68s0,0,0,0l-.13-.6-.15-.8a5.49,5.49,0,0,0-.22-.89,1.91,1.91,0,0,0-.58-.89,2.25,2.25,0,0,0-1.11-.52l-.49-.09a8.75,8.75,0,0,0-.89-.06c-.16,0-.31,0-.47,0Zm-7.29.21.73,0,1.09.09c.5.05,1.11.08,2,.1s.49,0,.45,0-.05,0,.71,0l1.2.07c.7,0,1.68.07,1.14,0,0,0,.09,0,.13,0s.44.06.5.07a1.59,1.59,0,0,1,1.15,1.11,3.76,3.76,0,0,1,.16.6s0,.09,0,0c-.16-.73,0-.38.23.9.18,1,.32,1.47.49,2.13.07.31.14.63.23.94.17.63.39,1.46.36,1.15.59,2.3,1.17,4.35,1.73,6.33.09.33.22.8.27,1,.14.44.28.83.36,1s-.29-1-.11-.46l.42,1.24.38,1.25c0,.12-.05-.08,0,0,.09.46-.36-.84.15.95,0,.08,0,.09,0,0l-.23-.6c-.06-.14-.11-.27-.19-.48a128.33,128.33,0,0,1-4-15A2.54,2.54,0,0,0,320.7,44a2.51,2.51,0,0,0-1.51-.38c-1.78,0-3.57-.12-5.35-.21.06,0-.08,0-.46-.07l-1.1-.09C312.13,43.19,312,43.17,312.09,43.17Zm-1.48,0,.6,0Zm-5.89-.55h.08l-1.25-.15A8.73,8.73,0,0,1,304.72,42.62ZM259.66,17.18a29.58,29.58,0,0,1,3.27,3.24c.11.12.13.16,0,.06-.37-.37-1.15-1.16-.59-.52L262,19.6l-.85-.81c0-.05-.07-.06-.08-.08-.25-.25-.5-.51-.75-.75.21.18,0-.06-.35-.41S259.45,17,259.66,17.18Zm-2.3-2.25s0,0,0,0l.26.22.31.29c.06.14,1.63,1.68.54.78,0,0,0,0,0,0s0,0,.05.07L258,15.8s.09,0,.06,0c-.16-.19.36.21-.62-.7-.25-.24-.12-.17-.17-.24Zm-2.46-2c.67.54.78.69.61.58s-.14-.08-.14-.07l-1.2-1c.07.05.11.06,0,0C253.78,12.1,254.38,12.54,254.9,13Zm-9.81-7.45c1.06.62-.05-.1.74.36l.41.23c.16.11.47.32.45.32s.81.59,0,.09c-.06,0,.07.07.14.11l1.39.92.79.56-.64-.42c-1.07-.73-2.05-1.37-3-2a1.85,1.85,0,0,1-.25-.18S245,5.46,245.09,5.52Zm-29.72-.8c1.7.2,2,.25,1.69.27-.08,0-.55,0-1-.08l-1.23-.15a.48.48,0,0,1-.25-.09Zm-3.56-.14.78,0c.26,0,.45,0,.37,0l.92,0,.66.09-.86,0s-1.22,0,.24.14c.09,0-.1,0-.16,0l-.48,0c-.63-.06-1.2-.06-1.52-.09S211.39,4.6,211.81,4.58ZM231,15.41l-.49-.2-.35-.17a.26.26,0,0,1-.09-.06l-.34-.18,1.34.59h0S231.11,15.43,231,15.41Zm-5.11.35,1.31.16.42.08.3.08.34.19-1-.17-1.19-.27C226,15.8,225.84,15.75,225.92,15.76ZM217.11,14l.95.15a6.2,6.2,0,0,0,1.4.11c.07,0-.15-.06-.16-.07a10.48,10.48,0,0,1,2.57.42c1.81.37,1.88.41,1.75.44-.83-.14.51.15.5.17a.41.41,0,0,1-.15.14l-.89-.18s0,0,0,0-.09-.07-1.66-.37c-.88-.17-1.07-.19-.93-.14l.07,0-2.06-.38-.61-.13C217.42,14.1,216.87,14,217.11,14Zm-7.47-1.42c.05,0,.58,0,.88.08a2.26,2.26,0,0,1,.4.07c-.33,0-.55,0-.07.09.2,0-.22,0-.42,0l-.48,0c-.21,0-.56-.06-.59-.08s0-.05,0-.07l-.13,0C209.34,12.64,209.41,12.61,209.64,12.6Zm14.81,7.73a7.58,7.58,0,0,1-.91-.23l-.73-.26,1.9.47c-.58-.12-.43-.07.6.19.15,0,.4.12.34.12S224.88,20.44,224.45,20.33ZM232,22.92l-1.68-.71c-.37-.15-.94-.36-.53-.23s.63.18-.32-.22l-.21-.09c.86.32,1.73.67,2.49,1C232.1,22.89,232.33,23,232,22.92Zm-12.16-1.25.55.12c-1.33-.29-2.69-.55-4.07-.8C217.56,21.19,218.71,21.44,219.87,21.67Zm-6.32-1.18.5.08.63.14-1.5-.22a.36.36,0,0,0-.13,0Zm63.9,54.9-.93,0c-.6,0-1,0-.59,0a2.8,2.8,0,0,1,.78-.06c.62,0,1.74-.08,2.65-.14C279.46,75.24,278.08,75.33,277.45,75.39ZM299,73.17c-.6.08-1.79.19-2.77.28l-.52,0c-1.47.12-2.87.24-3.74.39l-1,.1s-.07,0-.07,0,.05,0,.08,0c-.58,0,0,0,.82-.13l4.37-.49c1.1-.12,1.95-.19,2.38-.19S299.31,73.13,299,73.17ZM327.9,69.1c0-.18.16.4-.09-.59-.15-.57-.35-1.25-.52-1.82s-.24-.79-.41-1.41c-.24-.86-.28-1-.05-.3a5.5,5.5,0,0,0,.31.89,12.6,12.6,0,0,1,.47,1.6l.15.49c.08.25-.05-.4.18.46.27,1.06.12.32.28,1,0,.19,0,.15,0,.24v.31s0,0-.05,0,0,0,0,0h0C328.05,69.7,328,69.4,327.9,69.1Z"/><polygon points="108.94 59.31 108.93 59.31 108.93 59.31 108.94 59.31"/><path d="M239.72,81.25l-.39-.18c-.25-.12-.52-.25-.76-.35l-.69-.25c-1-.36-2.28-.78-2.92-.93-1.34-.35-2.58-.63-3.93-.88a68.71,68.71,0,0,0-6.84-.86c-2.29-.2-4.56-.29-6.79-.56-1.29-.15-2.44-.31-3.73-.57-.57-.11-1.18-.23-1.65-.3-.25-.05-.92-.18-1.34-.29a13.17,13.17,0,0,0-1.66-.36c-.06,0-.45-.09-.79-.17-.16,0-.72-.19-.82-.23-.49-.16-1-.33-1.27-.44s.42.11.49.12.11,0-.14-.09l-1.71-.56-.95-.3-.51-.16c-1.46-.53-2.88-1.1-4.32-1.72A45.55,45.55,0,0,1,194.88,70c-.67-.38-2.06-1.33-2.23-1.42s-2-1.38-2.62-1.84a28.25,28.25,0,0,1-2.48-1.88l-.21-.16a26.23,26.23,0,0,1-2.46-1.94l-.45-.36q-2.4-1.86-4.77-3.77L178,57.36c.1.11,1.27,1.06.4.39-.29-.22-1-.84-1.55-1.28l-.23-.19c-.93-.78-1-.81-.41-.38.19.14.63.49.27.19l-1.17-1-.2-.16c.8.22,1.25.38,1.41.4s.66.22,1,.36l.55.22c-.61-.18.9.4,1.57.71a9.72,9.72,0,0,0,1.07.44,7,7,0,0,1,.82.37c1.66.82,2.31,1.14,4,1.89l.9.42c1.54.78,3.06,1.52,4.64,2.24a17.52,17.52,0,0,0,2.26,1,7.23,7.23,0,0,1,.78.32l1.22.54,1,.37A37.17,37.17,0,0,0,204.11,66a28.41,28.41,0,0,0,3.25.14,20.13,20.13,0,0,0,2.18-.15c.54-.08,1.2-.18,1.58-.27l.69-.14.68-.19a12,12,0,0,0,1.32-.44,2.31,2.31,0,0,0,.69-.32.69.69,0,0,0,.2-.68,1,1,0,0,0-.48-.53l-.57-.38A21.76,21.76,0,0,0,209.92,61l-.45-.22-.46-.24L208.2,60c-.32-.18-1-.51-1.85-.85s-1.46-.6-2.48-1c-1.46-.63-1.57-.67-1.51-.59h-.08l-1.39-.61c-.12,0-.2-.1-.1-.06s.84.35.2.06c-.89-.4-1.74-.76-2.53-1.12a1,1,0,0,0-.34-.11l-.13,0c-.25-.12-.57-.27-.76-.38-.9-.48-1.7-.95-2.61-1.5-.52-.34-.94-.61-1.26-.8a4.09,4.09,0,0,0-.59-.36c-.05,0,0,0-.07,0s-.07.08-1.37-1l-.48-.34-.23-.14c-.48-.37-1-.75-1.42-1.13a9.51,9.51,0,0,0-1.08-1l-.67-.63c-.58-.57-1.82-1.67-3-2.73-.36-.31-.81-.7-.5-.39s.21.27-.4-.26l-.34-.28-1.08-1,.1.09a1.24,1.24,0,0,0,.16.12l-.65-.59-.89-.78.23.17,1.13.91c.5.42.09,0-.35-.36a67.92,67.92,0,0,0-6.71-5.57c-.85-.61-1.23-.87-1.79-1.3a20.06,20.06,0,0,0-2.09-1.3c-.37-.18-1-.53-1.63-.86s-1.26-.58-1.56-.7l-.19-.08-.52-.25c-.57-.28-1.33-.56-1.67-.73a24.26,24.26,0,0,0-2.89-1.05c-1.15-.34-2.26-.66-3.1-.84a6.75,6.75,0,0,1-1-.25l-1-.27-1-.19c-2.17-.48-4.6-.78-6.61-1.09a4,4,0,0,0-.49,0c-.06,0-.29,0,.89.15l1.34.19L150.59,29l-3-.36-2.66-.25c-.82-.05-1.79-.13-2.48-.16a2.92,2.92,0,0,0-.85,0,6.64,6.64,0,0,1-.85,0c-.52-.09-2.6-.13-3.86-.14s-3.7,0-4.1.06-2.31.12-3.24.24l-1.29.1a12.16,12.16,0,0,0-1.24.16s0,0,0,0l-1.65.19-1.6.21c-.88.12-1.51.24-1.07.12a5.17,5.17,0,0,0-1.06.15c-1,.16-2,.4-2.48.52l-.43.11-.75.17-.61.12c-.32.06-.82.16-1.09.23-.79.21-1.25.34-1.33.38a94,94,0,0,0-16.5,6c1.64,3.82,3.11,7.13,4.63,10.36-.14-.26-.33-.65-.66-1.34-.5-1-.86-1.79-1.33-2.9l-.48-1.07L98.88,38l-.31-.73L98.45,37l-.06-.12s0-.08,0-.09c.2-.11.51-.26.87-.43l1.3-.59c1-.38,2-.86,3.07-1.23s2.19-.82,3.34-1.28c.3-.13,1.12-.4,1.69-.59.81-.29,1.62-.52,2.44-.78.63-.2,1.43-.39,1.83-.54.06,0-1,.24-1.55.42s-1.39.41-2.08.63L106,33.55c-.6.19-1.36.46-2.09.76s-1.45.58-2,.83c-1,.41-1.91.83-2.87,1.27a6.46,6.46,0,0,0-.79.39l.35.83.62,1.42c.57,1.3.57,1.31.41,1.05s-.16-.2.59,1.52l.66,1.52c.28.68.39.94.15.49-.33-.64-.29-.54.3.78.44,1,.87,1.91,1.3,2.87a38.47,38.47,0,0,0,2.14,4.27c.2.35.37.62,1.06,2,.6,1.16,1.09,2.06.89,1.56a8.3,8.3,0,0,1,.6,1l.69,1.31.09.18,0,0h0v0h0s0,0,0,0,0,0,0,0l0,0s0,.09-.15-.2-.55-.95-1-1.74c-.2-.4-.49-1-.34-.63.27.58-.14-.17-.42-.68s-.24-.42,0,.07l.78,1.6c.14.31.29.6.44.88l.23.43.13.22.06.12s0,0,0,0,0,0,0,0,0,0,0,0l0,.08s0,0,0,.06,0,0,0,0a.07.07,0,0,1,0,.09s0,.06,0,.08,0,0,0,0l.08.05.05.09s0,0,0,0l0,0s0,0,0,0,0,0,0,0,0,.09.07.08H108a0,0,0,0,0,.06,0,.06.06,0,0,1,.09,0,.1.1,0,0,0,.1,0,0,0,0,0,1,.06,0l0,.09,0,.09h0s.06,0,.1,0l.16.06h.1l0,.09,0,0h0c-.06,0-.06,0-.11,0s0,0,0,0,0,0,0,0,0,0,0,0,0,0,0,0,0,0,0,0,0,.09,0,.13a.15.15,0,0,0,0,.11l0,0,.11,0s0,0,0,0h0s0,0,0,0,0-.08.07-.11.05,0,.07,0a.56.56,0,0,1,0,.12l.1-.05s.07,0,0-.11v0l0,.09L111.3,62h0s0,0,0,0a.12.12,0,0,0,0,.07c.06,0,.11.08.19.07l.13,0s0,0,0,0,0,0,0,.05,0,0,0,0,0,0,0,0,0,0,0,0,0,.05,0,.06a.26.26,0,0,0,.15,0l0,0a.21.21,0,0,0,.11,0l1.4-.1c1.91-.11,4.51-.26,6.74-.33,1.39-.05,2.73-.08,4.17-.08s3,0,4.43.05l1,0c.36,0,1.64,0,2.67.07l2.71.16.56,0c.8.12,2.31.19,3.71.34l.67.09-.86-.13-.48-.06.63.05c.25,0,.65.09.89.14A8.1,8.1,0,0,1,143.43,64a13.53,13.53,0,0,1,2.62,2.52c.41.48.81,1,1.19,1.5a27.8,27.8,0,0,0,2.34,2.74l1.31,1.39.84,1,0,0a13.28,13.28,0,0,0,1.12,1.16l1.31,1.25.53.54c-.71-.62.26.34,1.13,1.17,1.61,1.53,2.45,2.25,3.61,3.22l1,.86,4.65,4c.69.61,2.34,2,2.82,2.35l.71.55.51.46a10,10,0,0,0,1.2,1c1.62,1.34,2.94,2.34,4.13,3.21L178,95.55c.85.61,1.9,1.33,2.93,2a55.85,55.85,0,0,0,8.88,4.63c.72.3.88.35.51.18l-.21-.1c-.08,0,0,0-.22-.14-.9-.38-.78-.29-1.21-.48l-1.27-.55c-1.07-.54-1.73-.93-1.34-.77s1.7.8,2.23,1c.68.37,2.49,1.09,3.09,1.34l1.41.52,1.62.54a39.59,39.59,0,0,0,6,1.42l1.8.28c2,.28,4.1.44,6.2.54,1.24.05,1.35.05.53,0-.57,0,0,0,.49,0,1.29,0,2.72.06,3.51.12.57,0,1.21.06,2.16.07,1.19,0,2.55,0,3.62,0a12.36,12.36,0,0,0,2.12-.13c.51-.07.91-.14,1.4-.24,1-.22,1.5-.37,1.06-.32a4.6,4.6,0,0,1,.6-.16l1.36-.34a27.8,27.8,0,0,0,4.16-1.33,4,4,0,0,0,1.94-1.34.92.92,0,0,0-.27-.91.7.7,0,0,0-.33-.17l-.41,0c-.19,0,0,0-.14,0l-.64,0-.42,0h-.35l-.69,0-1.34,0c-1.3,0-2.58-.08-3.61-.13a17.16,17.16,0,0,0-1.78,0,13.55,13.55,0,0,1-1.52,0l-1.51-.07c-1.53,0-2.94-.14-4.4-.24-1-.07-1.67-.13-2.15-.2-.71-.05-1.37-.09-2.16-.17-.42,0-1.08-.11-1.6-.19l-1.2-.17a5.36,5.36,0,0,0-1.07-.14,6.29,6.29,0,0,1-1.63-.25l-1-.24c-1.63-.39-3.58-.85-5.37-1.37l-.38-.1-1.07-.27L195,97l-.65-.24c-1.24-.45-2.47-.92-3.7-1.48-1.06-.5,0,0-.61-.24l-.75-.36-.52-.3-.46-.29a2,2,0,0,1-.55-.52.37.37,0,0,1,0-.34l0-.07s.05,0,.08,0l.16,0c.2,0,.38.06.5.1l.18,0,.47.08,1.09.21c1.07.23.76.12,1.26.22.68.17.9.26,2,.54s2.57.69,3.59.92c.73.17,1.44.36,2.06.56a12.79,12.79,0,0,0,1.45.36c.42.08,1.11.25,1.65.38a9.5,9.5,0,0,0,1.57.33c.27,0,.33,0,.71.08l1.33.21c.34.07,1.55.23.37.1-.1,0,0,0,.24.06.68.12,2.07.25,2.57.33l.44,0c.91,0,2.6.15,4.13.2.71,0,1.17,0,1.53,0s0,0-.66-.07l-.66,0c.2,0-.42-.11.61-.14h1.15c.36,0,.82,0-.08.06-.7,0-1.41,0,0,.05s1.86,0,1.26.1c-.27,0-.17,0,.37,0,1.06,0,2.19,0,3.24,0a4.82,4.82,0,0,0,.65-.06c.28,0,.81,0,1.4,0h.22c.49,0,1.21,0,2.7,0a28.6,28.6,0,0,0,3.91-.3l.53-.1c.69-.13,2.22-.55,1.49-.41,0,0,.51-.14.82-.25a7.31,7.31,0,0,1,.75-.23,7.48,7.48,0,0,0,1.09-.35A15.82,15.82,0,0,0,236.42,95c.31-.2.62-.39.92-.6l.53-.37c.19-.16.35-.32.53-.48l.26-.24a.58.58,0,0,0,.13-.26.82.82,0,0,0-.07-.63.85.85,0,0,0-.46-.42,1.91,1.91,0,0,0-.62-.08l-1.47.15-.83.1-2,.25c-1.17.15-2.17.26-3.3.33l-2.66.23c-1.15.1-2.25.19-3.4.25s-2.3.08-3.36.09c-1.25,0-2.73-.06-3.61-.09a27.84,27.84,0,0,1-2.89-.23l-.65-.06c-1.9-.15-3.75-.37-5.68-.66l-3.88-.57a3.86,3.86,0,0,0-.71-.07c-.08,0,0,0-.08,0s-1.13-.2-1.58-.32l-.23-.07a13.16,13.16,0,0,0-1.45-.37l-.4-.1c-.93-.25-2.21-.78-1.4-.41a8.14,8.14,0,0,1-1.09-.47,1.35,1.35,0,0,1-.26-.15l-.21-.13a2,2,0,0,1-.37-.35c.08.06,0,0-.07-.15a.75.75,0,0,1,0-.57c.09-.16.17-.31.2-.26h0l0,.08-.08.15c0,.07,0,.15,0,.25a1.41,1.41,0,0,1,.06-.22l.13-.19a2.83,2.83,0,0,1,.67.13l.36.09.45.12c.2,0,1.52.35,2.29.49s1.43.26.45,0c-.66-.14-.4-.11.33,0,.2,0,.24,0,.35,0l-.85-.17-.57-.1c-.34-.07-.85-.2-.89-.21s.11,0,.38.05l1.26.25c1.38.26,3,.51,3.15.49l1.9.28c.25,0,.56.09,1.05.14l.33,0c1.87.24,3.76.43,5.66.59.44,0,.66.07.34.07-.91,0-.21.07,1.47.22,1,.07.24,0,0,0s-.21,0,.38,0a22.86,22.86,0,0,0,2.58.1,5,5,0,0,1,.74,0h1c.22,0,.58,0,.74,0a10.81,10.81,0,0,0,1.56.09,11.09,11.09,0,0,0,1.87-.05l.6,0,2.77-.08a1.58,1.58,0,0,1-.52.09c-1.48.1-1.93.12-1.53.14s.79,0,1.76,0a35.39,35.39,0,0,0,4-.39,27.47,27.47,0,0,0,3.9-1l.82-.26c.46-.13,1-.31,1.55-.5l.5-.18a3,3,0,0,0,.54-.22,1.32,1.32,0,0,0,.43-.27.76.76,0,0,0,.21-.46.81.81,0,0,0-.24-.67,2.17,2.17,0,0,0-.67-.3,5.17,5.17,0,0,0-.8-.18c-.21,0-.43-.06-.64-.09a19.76,19.76,0,0,0-2.54-.14c-1.69,0-3.35,0-5-.07-1.21-.09-2.21-.22-3.15-.3-1.1-.1-.56,0,.12.12s.05,0-.7-.05l-1.48-.19c-.71-.11-.94-.13-1.26-.16l-.8-.11-.24-.06c.19,0,.06,0-1.86-.36l-.8-.13s0,0,.07,0l.38.08,1,.21L218,85.35l-2-.32a7.73,7.73,0,0,1-1.69-.33c.37,0-2-.44-1.76-.45-1.18-.2-1.56-.37-3-.6l-.43-.09c-.39-.1-1.11-.25-1.45-.31-.66-.09-1.6-.31-2.55-.53-1.22-.29-2.43-.58-3.62-.9-1.89-.51-3.09-.82-4.43-1.25l-.39-.16-.29-.12c-.19-.08-.39-.17-.6-.28a2.66,2.66,0,0,1-.62-.41.31.31,0,0,1-.12-.36.22.22,0,0,1,0-.08h.11l.2,0c.31,0,.62.08.93.12l1.15.17c1,.17,2,.36,3,.55s2.28.46,2.51.44l1.05.21c1.77.38,3.53.74,5.54,1.06l.88.14c2.11.4,4.16.7,6.32,1,1.54.19,3.32.33,4.7.39l1.16.09,1.94.1c1.08,0,2.27.09,3.2.09s1.87,0,2.89,0l.59,0c1.21-.08,2.59-.12,3.89-.23.74-.06,1.49-.12,2.21-.2l1.5-.18a5.14,5.14,0,0,0,.88-.16.76.76,0,0,0,.57-.49.77.77,0,0,0-.16-.76A1.25,1.25,0,0,0,239.72,81.25ZM185.4,46.7c.78.69.69.64.6.58l-.6-.53C185.23,46.58,184.85,46.21,185.4,46.7ZM108.26,57.61s0,0,0,0h0s0,0,0-.05l-.15-.29-.27-.56c0-.05,0,0,0-.05h0c.17.31.33.63.51,1ZM209.8,97.52c-.12,0-.2,0-.13,0,1.69.17.06.09-.11.11s-2-.17-2.19-.23c-.35-.08-1.17-.2-2.06-.38-.34-.07-.14-.06-.24-.11.4,0,1,.1,1.6.14l1,.13a16.92,16.92,0,0,0,2.11.23l.68.06C211.38,97.58,211.26,97.6,209.8,97.52Zm26.91-3a14.78,14.78,0,0,1-2.74,1.5c-1.68.68-1.84.64-1.43.49a2.59,2.59,0,0,0,.34-.17c.05,0,.44-.18,1.16-.49a22.07,22.07,0,0,0,2.69-1.48l.51-.33.26-.16A3.72,3.72,0,0,1,236.71,94.56Zm.33-5.83c-1,.35-1.94.67-2.22.73s-.57.14-.9.23c1-.32,2-.67,3.05-1l.42-.11C237.44,88.54,237.25,88.66,237,88.73Zm-11.65-2.28a13.52,13.52,0,0,0,1.43.15c.53,0,1.34.11,2.64.16.46,0,1.38,0,1.79,0a15,15,0,0,1,1.55,0,10.28,10.28,0,0,0,1.6.15c.09,0-.05,0-.25,0h-.32c-.74,0-1.49,0-2.25,0l-1.94-.06c-.16,0-.21,0-.12,0,.26,0-.36,0-1-.08l-.93-.07.26,0,.27.05c-.38,0-.79-.06-1.12-.1-.72-.08-1.42-.17-2.06-.26-.34,0-.52-.08-.78-.12Zm-18.62-5.39a18,18,0,0,1-2.36-.48s.05,0,.49,0c.81.13.95.14.66.07l2.39.45.3.11C208.5,81.34,208,81.27,206.77,81.06Zm5,.79-.41-.06c-.13,0-.33-.07-.37-.09l0,0,1.06.19h0Zm20.16,1.43c-.76,0-1.86.08-2.3.08-.8,0-2.23,0-2.14-.07s0,0,0,0h1.75c.41,0,1,0,2.37,0H232S232.05,83.27,231.9,83.28Z"/><path d="M92.43,139.58c-7.35-1.86-12.77-.66-19.89,2.12C66,144.24,56.52,146.88,50,144c-4.31-1.95-12.12-3.89-16.83-3.59-8.85.57-9.43,1.52-17.49,1.37-5.58-.1-9.06,2.24-10.24,8.89-2,11-4.39,22-5.18,33.21a165.62,165.62,0,0,0,1.12,30.34C2.34,222.26,8,226,15.53,225.49c8.25-.54,12.14-4,13.09-12.83,1-9.56,1.64-28.87,1.43-28.89,0-6.34-.35-12.74.19-19,.19-2.23,1.44-6,3.9-6.23s4.64,3,4.93,5.48c.19,1.58.37,36.34,2.15,51.45,1.1,9.35,5.19,10.93,14.33,9.25,8-1.46,11.18-5.17,10.85-14.22-.44-11.83-1.5-24-1.49-35.81a52.18,52.18,0,0,1,1.64-13.57c.44-1.45,3.27-3.47,5-2.62,2,1,1.31,4.44,1.18,7.34-.6,13.46-.74,33.5-.09,39,.48,4.12,1.48,9.76,4.88,13.16,5,5,12,4.08,18.24,2.58,4.47-1.08,7.17-4.37,8.39-10.28,3.73-25.2,1.83-47.37-1.93-58.21C99.32,143.76,95.49,140.35,92.43,139.58Z"/><path d="M163.25,142.42c-3.45-.83-10.69-2.56-14.21-2.87-22.44-2-36.12,21.25-32.22,48.93,3.15,22.34,23.37,36.22,40.33,36.31,11.61.06,24.91-7.79,28.79-20.83C194.18,176.28,185.14,148.57,163.25,142.42ZM157,198.25c-4.38,7.47-11.57,5.83-13.52-3.54a45.79,45.79,0,0,1-.34-11.33,77.83,77.83,0,0,1,3.3-15.57c2.16-7.55,8-8.76,12.56-3C163.3,173.18,163.67,186.86,157,198.25Z"/><path d="M406.56,172.46c-6.25-3.31-16.66-4.21-18.84-11.79-1.65-5.72,5.36-6.67,9.49-2.7,1.57,1.51,3.39,3.4,4.64,3.8,3.69,1.18,7.34,0,8.82-2.7s-.94-7.24-2.63-9.25a29.7,29.7,0,0,0-12.18-8.27c-12.27-3.72-23-2.47-34.81,2.9-6,2.74-10,9.27-10,17.54s5.2,12.07,11.08,13.85c5.5,1.65,11.07,2.91,16.6,4.36,4.33,1.14,8.87,1.63,12.92,3.65,4.76,2.37,6.22,6.18,2.36,10.59-4.21,4.81-10.35,5-15.5,2.42-4.68-2.36-9.27-5.17-14.1-6.9-5.61-2-10.59,1.08-12.21,6.53-2.43,8.23,2.16,21.72,10.21,24.25,15.07,4.72,37,5,47.86,2.5,5.73-1.32,11.48-4.18,13.51-12.54C428.49,191.28,421.4,180.32,406.56,172.46Z"/><path d="M294.4,140.87a26.55,26.55,0,0,0-12.43,10c-12.74,19-10.3,48.56,4.75,64.94,12.21,13.28,37.68,12.59,49.22-1.2,3.56-4.25,3.67-7.66-.59-11.25-5.61-4.72-11.4-5-17.69-2.53-5.89,2.28-20.23,6.46-18.84-3,.69-4.69,7.26-4.69,10.45-5.09,8.08-1,16.23-1,24.35-1.49s10.41-3.91,9.08-13.44C338.73,149.38,317.52,132.81,294.4,140.87ZM307.59,179c-3.52,0-7.17-2.59-7.44-6.19s2.49-9,7.27-9.45c5.74-.54,10.63,5.2,10.48,9.32S313.61,179,307.59,179Z"/><path d="M230.52,169.83c1.86-10,7.79-12.28,14.31-5.78,1.9,1.88,3.73,4.79,5.64,5.48,3.93,1.43,10.63,1.89,13.54-1.05,4.23-4.27-.26-10.15-2.94-14.13-7.25-10.8-17.38-14-27.56-13.87-3.12.06-9.56.59-12.11,1.35-6.75,2-17.14,8.29-20.87,23.41-4.35,17.69.46,36.84,12.08,48.25C224.4,225,243.18,227.28,255,217.92a31.44,31.44,0,0,0,8.1-10.54c1.4-2.85,2.37-8.54,1.13-10.31-1.77-2.51-5.87-3.8-8.77-3.4-3.28.46-6,3.34-8.87,5.64a39,39,0,0,1-6.13,4.06c-8.05,4.13-14.32-1.81-13.06-12.4C228.21,183.88,229.22,176.81,230.52,169.83Z"/></svg>