<svg preserveAspectRatio="none" width="100%" height="100%" overflow="visible" style="display: block;" viewBox="0 0 436 464" fill="none" xmlns="http://www.w3.org/2000/svg">
<path id="Vector" d="M240.419 357.545C240.058 357.339 239.749 357.082 239.388 356.927C238.357 356.31 236.913 356.258 236.139 357.133C235.675 357.648 235.624 358.42 235.366 359.089C231.447 369.691 229.797 378.132 226.033 389.969C222.733 400.417 219.227 411.277 215.256 421.107C212.678 427.386 211.08 434.592 208.914 441.077C206.645 447.922 204.222 454.767 201.643 461.561C200.303 465.061 199.375 464.443 197.415 461.921C195.92 459.965 194.528 457.907 193.187 455.848C190.248 451.164 187.67 446.326 185.195 441.385C180.451 431.812 176.429 421.931 171.994 412.203C168.694 404.998 165.394 397.741 162.094 390.536C159.567 385.028 157.402 376.33 153.225 371.956C146.78 365.265 139.303 373.654 134.662 378.441C128.732 384.565 123.267 390.999 117.285 397.072C111.871 402.579 106.044 407.726 100.321 412.975C99.8568 413.387 98.413 413.593 98.3099 413.387C97.8458 412.564 97.3301 411.483 97.5364 410.659C99.238 404.277 101.043 397.998 102.847 391.668C105.065 383.999 107.282 376.331 109.602 368.713C112.438 359.449 115.532 350.236 118.265 340.869C120.07 334.693 121.514 328.414 122.957 322.135C123.576 319.459 121.926 318.275 119.245 319.202C112.438 321.569 105.58 323.834 98.9286 326.561C87.3268 331.348 75.8797 336.598 64.2779 341.436C54.4292 345.553 44.5805 349.722 34.5256 353.376C27.8224 355.795 20.7582 357.39 13.9002 359.295C13.5909 359.398 13.1783 359.14 11.6314 358.832C23.2332 343.082 36.5883 331.245 50.1495 317.091C59.9981 306.798 69.8983 296.453 78.9735 285.439C82.1705 281.579 98.413 265.058 98.6193 260.168C98.6193 259.396 98.0005 258.779 97.4333 258.264C79.3861 242.824 61.184 228.516 41.9508 214.465C30.6068 206.179 19.3144 197.893 7.97041 189.606C-10.5925 176.019 7.30011 178.489 20.8098 179.827C37.207 181.474 53.6042 183.327 69.9499 185.386C77.9423 186.364 106.869 194.959 111.871 187.393C116.409 180.548 102.847 150.851 100.321 143.44C94.752 127.022 88.4097 110.861 82.7377 94.4944C80.1595 86.9801 76.3438 79.7232 73.4562 72.3119C68.6608 59.9597 59.8434 43.49 59.9981 29.9026C63.1435 32.7848 65.7732 34.9979 68.2483 37.4169C77.6844 46.5781 86.9659 55.8423 96.4536 64.952C110.685 78.6424 124.298 94.5973 138.787 108.596C146.728 116.265 155.081 123.574 164.157 129.853C172.097 135.308 178.698 141.844 186.226 147.146C189.578 149.513 191.124 148.896 192.62 145.087C197.106 133.558 201.592 121.978 205.975 110.398C210.409 98.7147 214.895 87.083 218.969 75.297C222.423 65.2608 225.105 54.9673 228.456 44.9312C231.035 37.1596 234.335 29.6453 237.119 21.9252C239.027 16.5211 240.574 11.0141 242.379 5.5585C242.997 3.6542 243.926 1.85283 244.699 0C245.06 0 245.421 0.0514502 245.782 0.102918C246.71 3.55124 247.793 6.9996 248.463 10.5509C250.887 23.8295 251.351 36.9537 253.31 50.1808C256.559 72.2604 259.962 93.8253 263.778 115.75C264.757 121.412 265.221 127.125 266.304 132.735C267.439 138.499 268.882 144.263 270.584 149.873C271.512 152.961 273.936 151.984 275.379 150.337C278.989 146.322 282.237 141.999 285.744 137.881C291.88 130.779 298.119 123.779 304.307 116.677C307.607 112.92 310.855 109.06 314.207 105.354C317.713 101.442 321.426 97.7368 324.777 93.7223C330.552 86.8257 336.018 79.6202 341.845 72.7751C345.557 68.4003 349.734 64.3859 353.653 60.217C354.014 60.3714 354.323 60.5773 354.684 60.7317C353.962 63.4595 353.24 66.1357 352.467 68.8635C352.209 69.7385 351.797 70.562 351.539 71.4369C348.342 81.8848 345.093 92.3327 342.051 102.884C338.906 113.692 336.276 124.706 333.028 135.463C329.882 145.807 326.273 155.947 322.766 166.189C319.879 174.681 316.837 183.121 313.846 191.562C312.815 194.496 313.433 195.988 316.888 195.834C324.519 195.525 332.151 195.319 339.731 195.113C342.257 195.01 344.836 194.856 347.362 194.908C355.458 195.062 363.553 195.422 371.649 195.525C376.496 195.577 381.291 195.319 386.138 195.319C396.09 195.371 406.042 195.577 415.993 195.679C419.603 195.679 423.212 195.679 426.822 195.525C430.07 195.422 433.319 195.01 436 198.15C433.937 199.076 432.03 200.003 430.122 200.826C420.84 204.892 411.559 208.958 402.226 212.973C387.994 219.097 373.711 225.067 359.531 231.244C349.27 235.67 339.164 240.25 328.902 244.677C325.396 246.221 325.448 247.816 327.613 250.801C331.377 255.897 334.317 261.558 337.978 266.705C343.186 274.065 348.6 281.27 354.169 288.373C359.067 294.652 364.481 300.519 369.38 306.798C376.083 315.341 382.425 324.194 389.18 332.738C394.904 339.994 400.988 346.994 406.815 354.097C408.414 356.052 409.806 358.214 411.095 360.684C392.274 355.28 374.742 346.634 356.901 338.811C338.906 330.885 320.962 322.907 302.605 314.775C302.45 315.136 301.728 316.011 301.728 316.834C302.296 332.532 303.017 348.178 303.585 363.875C303.842 370.721 303.585 377.566 303.997 384.359C304.564 392.903 305.699 401.447 306.421 409.99C306.885 415.24 307.194 420.541 307.4 425.842C307.4 427.026 306.833 428.21 306.472 429.599C306.318 430.114 296.16 418.174 295.386 417.196C289.662 409.99 283.423 403.094 277.236 396.248C270.996 389.352 264.551 382.558 258.002 375.919C252.691 370.515 246.555 362.074 240.11 357.751L240.419 357.545Z" fill="var(--fill-0, #D7D7AA)"/>
</svg>
