<svg width="320" height="464" viewBox="0 0 320 464" fill="none" xmlns="http://www.w3.org/2000/svg">
<path d="M124.419 357.545C124.058 357.339 123.749 357.082 123.388 356.927C122.357 356.31 120.913 356.258 120.139 357.133C119.675 357.648 119.624 358.42 119.366 359.089C115.447 369.691 113.797 378.132 110.033 389.969C106.733 400.417 103.227 411.277 99.2561 421.107C96.678 427.386 95.0795 434.592 92.9138 441.077C90.645 447.922 88.2215 454.767 85.6434 461.561C84.3027 465.061 83.3746 464.443 81.4152 461.921C79.9198 459.965 78.5276 457.907 77.1869 455.848C74.2478 451.164 71.6696 446.326 69.1945 441.385C64.4507 431.812 60.4287 421.931 55.9943 412.203C52.6942 404.998 49.3941 397.741 46.0941 390.536C43.5675 385.029 41.4018 376.33 37.2251 371.956C30.7797 365.265 23.303 373.654 18.6623 378.441C12.7325 384.565 7.26665 390.999 1.28528 397.072C-4.12891 402.579 -9.95556 407.726 -15.6791 412.975C-16.1432 413.387 -17.587 413.593 -17.6901 413.387C-18.1542 412.564 -18.6699 411.483 -18.4636 410.659C-16.762 404.277 -14.9573 397.998 -13.1526 391.668C-10.9353 383.999 -8.71802 376.331 -6.39765 368.713C-3.56165 359.449 -0.467873 350.236 2.265 340.869C4.06973 334.693 5.51353 328.414 6.95731 322.135C7.57607 319.459 5.92603 318.275 3.24472 319.202C-3.56168 321.569 -10.4197 323.834 -17.0714 326.561C-28.6732 331.348 -40.1203 336.598 -51.7221 341.436C-61.5708 345.553 -71.4194 349.722 -81.4744 353.376C-88.1776 355.795 -95.2418 357.39 -102.1 359.295C-102.409 359.398 -102.822 359.14 -104.369 358.832C-92.7668 343.082 -79.4117 331.245 -65.8505 317.091C-56.0019 306.798 -46.1017 296.453 -37.0265 285.439C-33.8295 281.579 -17.587 265.058 -17.3807 260.168C-17.3807 259.396 -17.9995 258.779 -18.5667 258.264C-36.6139 242.824 -54.816 228.516 -74.0492 214.465C-85.3932 206.179 -96.6856 197.893 -108.03 189.606C-126.592 176.019 -108.7 178.489 -95.1902 179.827C-78.793 181.474 -62.3958 183.327 -46.0501 185.386C-38.0577 186.364 -9.13059 194.959 -4.12892 187.393C0.408676 180.548 -13.1525 150.851 -15.6791 143.44C-21.248 127.022 -27.5903 110.861 -33.2623 94.4944C-35.8405 86.9801 -39.6562 79.7232 -42.5438 72.3119C-47.3392 59.9597 -56.1566 43.49 -56.0019 29.9026C-52.8565 32.7848 -50.2268 34.9979 -47.7517 37.4169C-38.3156 46.5781 -29.0341 55.8423 -19.5464 64.952C-5.31483 78.6424 8.29792 94.5973 22.7873 108.596C30.7281 116.265 39.0815 123.574 48.1567 129.853C56.0975 135.308 62.6976 141.844 70.2259 147.146C73.5775 149.513 75.1244 148.896 76.6197 145.087C81.1058 133.558 85.5918 121.978 89.9747 110.398C94.4091 98.7147 98.8952 87.083 102.969 75.297C106.423 65.2608 109.105 54.9673 112.456 44.9312C115.035 37.1596 118.335 29.6453 121.119 21.9252C123.027 16.5211 124.574 11.0141 126.379 5.5585C126.997 3.6542 127.926 1.85283 128.699 0C129.06 0 129.421 0.0514502 129.782 0.102918C130.71 3.55124 131.793 6.9996 132.463 10.5509C134.887 23.8295 135.351 36.9537 137.31 50.1808C140.559 72.2604 143.962 93.8253 147.778 115.75C148.757 121.412 149.221 127.125 150.304 132.735C151.439 138.499 152.882 144.263 154.584 149.873C155.512 152.961 157.936 151.984 159.379 150.337C162.989 146.322 166.237 141.999 169.744 137.881C175.88 130.779 182.119 123.779 188.307 116.677C191.607 112.92 194.855 109.06 198.207 105.354C201.713 101.442 205.426 97.7368 208.777 93.7223C214.552 86.8257 220.018 79.6202 225.845 72.7751C229.557 68.4003 233.734 64.3858 237.653 60.217C238.014 60.3714 238.323 60.5773 238.684 60.7317C237.962 63.4595 237.24 66.1357 236.467 68.8635C236.209 69.7385 235.797 70.562 235.539 71.4369C232.342 81.8848 229.093 92.3327 226.051 102.884C222.906 113.692 220.276 124.706 217.028 135.463C213.882 145.807 210.273 155.947 206.766 166.189C203.879 174.681 200.837 183.121 197.846 191.562C196.815 194.496 197.433 195.988 200.888 195.834C208.52 195.525 216.151 195.319 223.731 195.113C226.257 195.01 228.836 194.856 231.362 194.908C239.458 195.062 247.553 195.422 255.649 195.525C260.496 195.577 265.291 195.319 270.138 195.319C280.09 195.371 290.042 195.577 299.993 195.679C303.603 195.679 307.212 195.679 310.822 195.525C314.07 195.422 317.319 195.01 320 198.15C317.937 199.076 316.03 200.003 314.122 200.826C304.84 204.892 295.559 208.958 286.226 212.973C271.994 219.097 257.711 225.067 243.531 231.244C233.27 235.67 223.164 240.25 212.902 244.677C209.396 246.221 209.448 247.816 211.613 250.801C215.377 255.897 218.317 261.558 221.978 266.705C227.186 274.065 232.6 281.27 238.169 288.373C243.067 294.652 248.481 300.519 253.38 306.798C260.083 315.341 266.425 324.194 273.18 332.738C278.904 339.994 284.988 346.994 290.815 354.096C292.414 356.052 293.806 358.214 295.095 360.684C276.274 355.28 258.742 346.634 240.901 338.811C222.906 330.885 204.962 322.907 186.605 314.775C186.45 315.136 185.728 316.011 185.728 316.834C186.296 332.532 187.017 348.178 187.585 363.875C187.842 370.721 187.585 377.566 187.997 384.359C188.564 392.903 189.699 401.447 190.421 409.99C190.885 415.24 191.194 420.541 191.4 425.842C191.4 427.026 190.833 428.21 190.472 429.599C190.318 430.114 180.16 418.174 179.386 417.196C173.663 409.99 167.423 403.094 161.236 396.248C154.996 389.352 148.551 382.558 142.002 375.919C136.691 370.515 130.555 362.074 124.11 357.751L124.419 357.545Z" fill="#D7D7AA"/>
</svg>
